{
.appVersion = "3225";
.formatVersion = 3;
DisplayStrings = (
lah
);
customParameters = (
{
name = vendorID;
value = "HL  ";
},
{
name = panose;
value = (
2,
0,
0,
0,
0,
0,
0,
0,
0,
0
);
},
{
name = glyphOrder;
value = (
.notdef,
.null,
CR,
space,
exclam,
quotedbl,
numbersign,
dollar,
percent,
ampersand,
quotesingle,
parenleft,
parenright,
asterisk,
plus,
comma,
hyphen,
period,
slash,
zero,
one,
two,
three,
four,
five,
six,
seven,
eight,
nine,
colon,
semicolon,
less,
equal,
greater,
question,
at,
A,
B,
C,
D,
E,
F,
G,
H,
I,
J,
K,
L,
M,
N,
O,
P,
Q,
R,
S,
T,
U,
V,
W,
X,
Y,
Z,
bracketleft,
backslash,
bracketright,
asciicircum,
underscore,
grave,
a,
b,
c,
d,
e,
f,
g,
h,
i,
j,
k,
l,
m,
n,
o,
p,
q,
r,
s,
t,
u,
v,
w,
x,
y,
z,
braceleft,
bar,
braceright,
asciitilde,
Adieresis,
Aring,
Ccedilla,
Eacute,
Ntilde,
Odieresis,
Udieresis,
aacute,
agrave,
acircumflex,
adieresis,
atilde,
aring,
ccedilla,
eacute,
egrave,
ecircumflex,
edieresis,
iacute,
igrave,
icircumflex,
idieresis,
ntilde,
oacute,
ograve,
ocircumflex,
odieresis,
otilde,
uacute,
ugrave,
ucircumflex,
udieresis,
dagger,
degree,
cent,
sterling,
section,
bullet,
paragraph,
germandbls,
registered,
copyright,
trademark,
acute,
dieresis,
AE,
Oslash,
plusminus,
yen,
mu,
ordfeminine,
ordmasculine,
ae,
oslash,
questiondown,
exclamdown,
logicalnot,
florin,
guillemotleft,
guillemotright,
ellipsis,
nonbreakingspace,
Agrave,
Atilde,
Otilde,
OE,
oe,
endash,
emdash,
quotedblleft,
quotedblright,
quoteleft,
quoteright,
divide,
ydieresis,
Ydieresis,
currency,
guilsinglleft,
guilsinglright,
daggerdbl,
periodcentered,
quotesinglbase,
quotedblbase,
perthousand,
Acircumflex,
Ecircumflex,
Aacute,
Edieresis,
Egrave,
Iacute,
Icircumflex,
Idieresis,
Igrave,
Oacute,
Ocircumflex,
Ograve,
Uacute,
Ucircumflex,
Ugrave,
circumflex,
tilde,
macron,
cedilla,
Scaron,
scaron,
brokenbar,
Eth,
eth,
Yacute,
yacute,
Thorn,
thorn,
minus,
multiply,
onesuperior,
twosuperior,
threesuperior,
onehalf,
onequarter,
threequarters,
Lslash,
lslash,
Zcaron,
zcaron,

glyphs = (
{
glyphname = .notdef;
layers = (
{
layerId = m01;
shapes = (
{
closed = 1;
nodes = (
(1280,1280,l),
(256,1280,l),
(256,0,l),
(1280,0,l)
);
},
{
closed = 1;
nodes = (
(1248,1248,l),
(1248,32,l),
(288,32,l),
(288,1248,l)
);
}
);
width = 500;
}
);
note = ".notdef";
},
{
glyphname = space;
layers = (
{
layerId = m01;
shapes = (
{
closed = 1;
nodes = (
(753,1852,l),
(767,1846,o),
(763,1825,q),
(10,1825,l),
(-3,1832,o),
(0,1852,q)
);
},
{
closed = 1;
nodes = (
(753,1035,l),
(767,1028,o),
(763,1008,q),
(10,1008,l),
(-3,1014,o),
(0,1035,q)
);
},
{
closed = 1;
nodes = (
(763,407,l),
(767,394,o),
(757,380,q),
(0,380,l),
(0,407,l)
);
},
{
closed = 1;
nodes = (
(763,-410,l),
(767,-424,o),
(757,-438,q),
(0,-438,l),
(0,-410,l)
);
}
);
width = 773;
}
);
note = space;
unicode = 32;
},
{
glyphname = exclam;
layers = (
{
layerId = m01;
shapes = (
{
closed = 1;
nodes = (
(226,1852,l),
(226,1825,l),
(0,1825,l),
(0,1852,l)
);
},
{
closed = 1;
nodes = (
(118,1794,o),
(142,1770,q),
(149,1716,l),
(149,1696,l),
(152,1685,l),
(155,1078,l),
(152,1037,l),
(226,1034,l),
(226,1007,l),
(166,1007,ls),
(159,1007,o),
(152,997,q),
(152,895,l),
(149,885,o),
(149,868,qs),
(145,739,l),
(142,695,l),
(138,678,l),
(138,641,l),
(128,613,o),
(98,607,q),
(78,624,o),
(68,651,q),
(68,800,l),
(64,814,o),
(64,834,qs),
(64,919,l),
(68,936,l),
(68,1004,l),
(0,1007,l),
(0,1034,l),
(27,1031,o),
(68,1037,q),
(64,1747,l),
(68,1770,o),
(88,1791,q)
);
},
{
closed = 1;
nodes = (
(196,518,o),
(155,440,q),
(91,376,o),
(51,464,q),
(57,508,o),
(101,532,q)
);
},
{
closed = 1;
nodes = (
(226,406,l),
(226,379,l),
(0,379,l),
(0,406,l)
);
},
{
closed = 1;
nodes = (
(226,-411,l),
(226,-438,l),
(0,-438,l),
(0,-411,l)
);
}
);
width = 230;
}
);
note = exclam;
unicode = 33;
},
{
glyphname = quotedbl;
layers = (
{
layerId = m01;
shapes = (
{
closed = 1;
nodes = (
(459,1852,l),
(459,1825,l),
(0,1825,l),
(0,1852,l)
);
},
{
closed = 1;
nodes = (
(172,1534,o),
(193,1514,q),
(223,1399,o),
(193,1264,q),
(179,1247,o),
(152,1244,q),
(135,1250,o),
(125,1267,q),
(118,1304,o),
(125,1352,q),
(125,1406,l),
(128,1426,l),
(125,1460,o),
(118,1480,q),
(118,1517,l),
(128,1531,o),
(145,1538,q)
);
},
{
closed = 1;
nodes = (
(318,1534,o),
(341,1521,q),
(348,1500,o),
(348,1477,q),
(351,1467,l),
(355,1311,l),
(351,1291,l),
(334,1257,l),
(321,1247,o),
(301,1240,q),
(274,1257,l),
(260,1315,o),
(274,1379,q),
(274,1426,l),
(270,1463,l),
(267,1470,l),
(267,1507,l),
(277,1524,o),
(297,1538,q)
);
},
{
closed = 1;
nodes = (
(459,1038,l),
(459,1011,l),
(0,1011,l),
(0,1038,l)
);
},
{
closed = 1;
nodes = (
(459,413,l),
(459,386,l),
(0,386,l),
(0,413,l)
);
},
{
closed = 1;
nodes = (
(459,-401,l),
(459,-428,l),
(0,-428,l),
(0,-401,l)
);
}
);
width = 460;
}
);
note = quotedbl;
unicode = 34;
},
{
glyphname = numbersign;
layers = (
{
layerId = m01;
shapes = (
{
closed = 1;
nodes = (
(892,1852,l),
(909,1849,o),
(906,1825,q),
(14,1825,l),
(-3,1829,o),
(0,1852,q)
);
},
{
closed = 1;
nodes = (
(448,1394,l),
(472,1388,o),
(485,1364,q),
(482,1320,o),
(458,1269,q),
(438,1208,l),
(431,1198,l),
(394,1093,l),
(390,1086,l),
(414,1086,o),
(444,1093,q),
(465,1093,o),
(489,1099,qs),
(509,1103,l),
(533,1106,l),
(560,1109,ls),
(580,1113,o),
(594,1113,q),
(617,1116,l),
(641,1120,l),
(658,1147,o),
(675,1194,qs),
(689,1228,l),
(692,1232,o),
(695,1242,qs),
(706,1269,l),
(712,1279,l),
(716,1293,l),
(726,1306,o),
(729,1327,q),
(736,1340,l),
(743,1361,o),
(760,1381,q),
(794,1394,o),
(831,1381,q),
(838,1367,o),
(841,1347,q),
(838,1330,o),
(824,1306,q),
(807,1259,l),
(801,1249,l),
(797,1235,l),
(774,1177,l),
(767,1167,o),
(757,1137,q),
(862,1154,o),
(902,1106,q),
(882,1031,o),
(736,1035,q),
(906,1035,l),
(906,1008,l),
(706,1008,l),
(665,909,l),
(662,896,l),
(651,879,o),
(641,845,q),
(638,838,l),
(706,841,l),
(743,848,o),
(767,848,qs),
(777,848,l),
(801,838,l),
(865,757,o),
(716,753,qs),
(685,753,o),
(641,746,qs),
(617,743,l),
(604,743,l),
(597,736,l),
(590,706,o),
(570,662,q),
(567,645,l),
(553,614,l),
(550,597,o),
(539,577,q),
(502,475,l),
(495,461,l),
(485,431,l),
(431,400,o),
(394,448,q),
(394,489,o),
(417,533,q),
(458,645,l),
(461,662,o),
(472,682,q),
(475,699,o),
(482,713,o),
(482,723,q),
(444,719,l),
(421,716,l),
(397,713,l),
(373,709,l),
(360,706,l),
(316,702,l),
(299,699,l),
(268,696,l),
(254,672,o),
(244,641,qs),
(241,631,o),
(231,614,q),
(217,577,l),
(207,553,l),
(197,536,l),
(193,523,l),
(190,519,o),
(180,499,q),
(156,438,l),
(78,377,o),
(58,461,q),
(92,536,l),
(95,540,o),
(98,550,qs),
(112,584,l),
(122,601,o),
(132,628,qs),
(146,662,l),
(156,679,l),
(41,641,o),
(3,702,q),
(0,774,o),
(183,777,q),
(200,808,o),
(214,855,q),
(224,875,ls),
(231,892,o),
(234,909,q),
(244,926,o),
(254,960,q),
(258,967,l),
(234,970,o),
(204,960,q),
(183,960,o),
(159,953,q),
(149,953,l),
(122,960,l),
(109,981,o),
(98,1008,q),
(0,1008,l),
(0,1035,l),
(119,1035,l),
(149,1042,ls),
(170,1048,o),
(204,1052,q),
(251,1062,o),
(282,1065,q),
(326,1188,l),
(332,1198,l),
(336,1215,l),
(353,1259,l),
(363,1279,o),
(373,1316,q),
(394,1371,l),
(404,1384,o),
(424,1394,q)
);
},
{
closed = 1;
nodes = (
(431,998,l),
(411,994,l),
(373,987,l),
(363,987,l),
(353,964,o),
(346,933,q),
(336,909,l),
(329,886,l),
(319,858,l),
(316,838,o),
(305,811,qs),
(299,794,l),
(326,794,o),
(366,801,q),
(387,801,l),
(414,804,l),
(482,818,l),
(502,818,l),
(519,821,l),
(597,1008,l),
(489,1008,l)
);
},
{
closed = 1;
nodes = (
(906,407,l),
(913,387,o),
(896,380,q),
(3,380,l),
(0,390,o),
(0,407,q)
);
},
{
closed = 1;
nodes = (
(892,-410,l),
(909,-414,o),
(906,-438,q),
(14,-438,l),
(-3,-434,o),
(0,-410,q)
);
}
);
width = 925;
}
);
note = numbersign;
unicode = 35;
},
{
glyphname = dollar;
layers = (
{
layerId = m01;
shapes = (
{
closed = 1;
nodes = (
(804,1852,l),
(807,1838,o),
(797,1825,q),
(3,1825,l),
(0,1835,o),
(0,1852,q)
);
},
{
closed = 1;
nodes = (
(456,1784,l),
(510,1764,o),
(497,1683,q),
(706,1683,o),
(760,1561,q),
(743,1534,o),
(709,1524,q),
(689,1531,l),
(682,1534,l),
(611,1612,o),
(490,1595,q),
(486,1517,l),
(483,1511,l),
(483,1345,l),
(480,1335,l),
(480,1257,l),
(476,1240,l),
(476,1230,l),
(632,1186,o),
(733,1038,q),
(804,1038,l),
(804,1011,l),
(753,1011,l),
(746,1007,l),
(777,967,o),
(787,909,q),
(794,886,o),
(797,855,q),
(801,848,l),
(787,531,o),
(453,521,q),
(463,443,o),
(399,420,q),
(355,453,o),
(361,524,q),
(132,541,o),
(27,710,q),
(-51,886,o),
(108,1011,q),
(0,1011,l),
(0,1038,l),
(186,1041,l),
(199,1038,l),
(382,1038,l),
(388,1041,l),
(385,1068,o),
(392,1109,q),
(392,1156,l),
(111,1223,o),
(125,1453,q),
(176,1652,o),
(409,1679,q),
(415,1723,l),
(415,1760,l),
(426,1774,o),
(442,1784,q)
);
},
{
closed = 1;
nodes = (
(274,1575,o),
(209,1456,q),
(196,1288,o),
(385,1257,q),
(395,1247,l),
(399,1274,o),
(399,1315,qs),
(399,1348,l),
(402,1369,o),
(402,1396,qs),
(402,1446,l),
(405,1470,o),
(405,1500,qs),
(405,1541,l),
(409,1558,l),
(409,1592,l),
(402,1598,o),
(392,1598,q)
);
},
{
closed = 1;
nodes = (
(470,1048,l),
(473,1038,l),
(605,1038,l),
(618,1041,l),
(561,1102,o),
(473,1132,q)
);
},
{
closed = 1;
nodes = (
(236,987,o),
(223,963,q),
(209,950,l),
(95,926,o),
(98,805,q),
(152,619,o),
(372,622,q),
(372,646,o),
(375,683,q),
(375,740,l),
(378,778,l),
(378,825,l),
(382,842,l),
(378,882,o),
(385,946,q),
(385,1007,l),
(236,1011,l)
);
},
{
closed = 1;
nodes = (
(466,980,o),
(466,903,q),
(463,892,l),
(456,632,l),
(453,615,l),
(696,609,o),
(699,845,q),
(692,930,o),
(638,1011,q),
(473,1011,l)
);
},
{
closed = 1;
nodes = (
(804,413,l),
(807,399,o),
(797,386,q),
(3,386,l),
(0,396,o),
(0,413,q)
);
},
{
closed = 1;
nodes = (
(804,-401,l),
(807,-415,o),
(797,-428,q),
(3,-428,l),
(0,-418,o),
(0,-401,q)
);
}
);
width = 800;
}
);
note = dollar;
unicode = 36;
},
{
glyphname = percent;
layers = (
{
layerId = m01;
shapes = (
{
closed = 1;
nodes = (
(807,1852,l),
(811,1838,o),
(801,1825,q),
(3,1825,l),
(0,1835,o),
(0,1852,q)
);
},
{
closed = 1;
nodes = (
(763,1531,l),
(780,1524,l),
(801,1511,o),
(804,1480,q),
(794,1460,o),
(774,1433,q),
(770,1426,l),
(723,1359,l),
(716,1345,o),
(699,1321,qs),
(676,1291,o),
(665,1271,q),
(642,1237,l),
(628,1220,o),
(611,1190,qs),
(588,1152,o),
(567,1125,q),
(564,1119,l),
(544,1092,l),
(540,1085,l),
(507,1038,l),
(807,1038,l),
(807,1011,l),
(490,1011,l),
(442,940,l),
(429,926,o),
(419,906,q),
(395,872,l),
(372,838,l),
(361,828,l),
(301,744,l),
(277,710,l),
(263,693,l),
(169,558,l),
(162,551,l),
(108,477,ls),
(98,463,o),
(88,457,q),
(51,440,o),
(10,463,q),
(0,484,o),
(7,507,q),
(20,521,o),
(41,548,qs),
(47,555,l),
(81,599,l),
(91,609,l),
(101,622,l),
(108,629,l),
(128,659,l),
(138,673,l),
(159,700,l),
(162,707,l),
(203,761,l),
(213,774,l),
(243,818,l),
(250,825,l),
(287,879,l),
(290,886,l),
(318,923,ls),
(345,957,o),
(361,987,qs),
(375,1011,l),
(0,1011,l),
(0,1038,l),
(395,1038,l),
(442,1105,l),
(449,1112,l),
(466,1142,o),
(500,1186,q),
(540,1250,l),
(554,1267,o),
(571,1298,q),
(605,1348,l),
(608,1355,l),
(622,1375,l),
(635,1392,ls),
(665,1436,o),
(703,1507,o),
(736,1534,q)
);
},
{
closed = 1;
nodes = (
(294,1291,o),
(287,1156,q),
(250,1048,o),
(128,1055,q),
(51,1095,o),
(61,1190,q),
(81,1281,o),
(179,1311,q)
);
},
{
closed = 1;
nodes = (
(142,1227,o),
(122,1183,q),
(118,1129,o),
(172,1115,q),
(226,1132,o),
(223,1193,q),
(216,1230,o),
(176,1244,q)
);
},
{
closed = 1;
nodes = (
(770,903,o),
(801,784,q),
(804,642,o),
(662,636,q),
(578,659,o),
(561,754,qs),
(544,862,o),
(659,903,q)
);
},
{
closed = 1;
nodes = (
(622,808,o),
(628,744,q),
(645,700,o),
(696,703,q),
(763,764,o),
(696,838,q),
(669,838,l)
);
},
{
closed = 1;
nodes = (
(807,413,l),
(811,399,o),
(801,386,q),
(3,386,l),
(0,396,o),
(0,413,q)
);
},
{
closed = 1;
nodes = (
(807,-401,l),
(811,-415,o),
(801,-428,q),
(3,-428,l),
(0,-418,o),
(0,-401,q)
);
}
);
width = 810;
}
);
note = percent;
unicode = 37;
},
{
glyphname = ampersand;
layers = (
{
layerId = m01;
shapes = (
{
closed = 1;
nodes = (
(807,1852,l),
(811,1839,o),
(801,1825,q),
(3,1825,l),
(0,1835,o),
(0,1852,q)
);
},
{
closed = 1;
nodes = (
(621,1411,o),
(295,1035,q),
(804,1035,l),
(807,1025,o),
(807,1008,q),
(302,1008,l),
(278,1004,l),
(292,987,o),
(302,960,q),
(339,906,l),
(349,886,o),
(373,862,q),
(380,848,o),
(414,814,o),
(438,780,q),
(458,760,l),
(468,743,o),
(475,736,qs),
(489,723,l),
(495,713,l),
(516,696,o),
(539,662,q),
(550,651,l),
(563,726,o),
(529,804,q),
(519,814,l),
(468,808,o),
(434,855,q),
(465,957,o),
(573,875,q),
(685,763,o),
(628,584,q),
(682,516,o),
(780,506,q),
(790,502,o),
(804,492,q),
(807,472,o),
(801,451,q),
(689,387,o),
(573,506,q),
(516,455,o),
(431,438,q),
(221,387,o),
(41,540,q),
(34,550,o),
(27,567,qs),
(-58,753,o),
(156,1008,q),
(0,1008,l),
(0,1035,l),
(122,1035,l),
(159,1038,l),
(92,1137,o),
(119,1262,qs),
(153,1394,o),
(302,1435,q)
);
},
{
closed = 1;
nodes = (
(248,1340,o),
(207,1266,q),
(183,1177,o),
(231,1096,q),
(237,1103,l),
(336,1194,o),
(370,1330,q),
(353,1350,o),
(322,1357,q)
);
},
{
closed = 1;
nodes = (
(183,882,l),
(27,682,o),
(142,573,q),
(282,485,o),
(465,540,q),
(502,563,l),
(509,570,l),
(329,760,l),
(214,940,l)
);
},
{
closed = 1;
nodes = (
(807,407,l),
(811,394,o),
(801,380,q),
(3,380,l),
(0,390,o),
(0,407,q)
);
},
{
closed = 1;
nodes = (
(807,-410,l),
(811,-424,o),
(801,-438,q),
(3,-438,l),
(0,-427,o),
(0,-410,q)
);
}
);
width = 810;
}
);
note = ampersand;
unicode = 38;
},
{
glyphname = quotesingle;
layers = (
{
layerId = m01;
shapes = (
{
closed = 1;
nodes = (
(338,1852,l),
(338,1825,l),
(0,1825,l),
(0,1852,l)
);
},
{
closed = 1;
nodes = (
(169,1605,o),
(193,1595,q),
(243,1517,o),
(223,1416,q),
(220,1308,o),
(111,1267,q),
(169,1399,o),
(111,1551,q),
(115,1585,o),
(149,1605,q)
);
},
{
closed = 1;
nodes = (
(338,1038,l),
(338,1011,l),
(0,1011,l),
(0,1038,l)
);
},
{
closed = 1;
nodes = (
(338,413,l),
(338,386,l),
(0,386,l),
(0,413,l)
);
},
{
closed = 1;
nodes = (
(338,-401,l),
(338,-428,l),
(0,-428,l),
(0,-401,l)
);
}
);
width = 340;
}
);
note = quotesingle;
unicode = 39;
},
{
glyphname = parenleft;
layers = (
{
layerId = m01;
shapes = (
{
closed = 1;
nodes = (
(380,1852,l),
(380,1825,l),
(0,1825,l),
(0,1852,l)
);
},
{
closed = 1;
nodes = (
(285,1612,o),
(309,1578,q),
(305,1540,o),
(288,1496,qs),
(241,1367,l),
(237,1354,l),
(227,1330,l),
(221,1293,l),
(217,1279,o),
(214,1272,qs),
(204,1249,o),
(200,1211,qs),
(197,1194,l),
(180,1072,l),
(180,1038,l),
(210,1031,o),
(258,1035,q),
(380,1035,l),
(380,1008,l),
(193,1008,l),
(176,1004,l),
(176,872,l),
(173,862,l),
(173,668,l),
(176,648,o),
(176,621,qs),
(176,519,l),
(180,509,l),
(180,451,l),
(183,428,l),
(187,407,l),
(380,407,l),
(380,380,l),
(204,380,l),
(187,377,l),
(193,353,o),
(193,316,q),
(197,292,l),
(200,288,o),
(204,268,qs),
(207,248,l),
(210,224,l),
(210,210,l),
(214,193,l),
(217,180,l),
(221,163,l),
(224,149,l),
(227,132,l),
(231,119,l),
(261,-13,l),
(261,-24,l),
(268,-41,l),
(271,-61,l),
(278,-75,l),
(282,-92,l),
(302,-163,l),
(299,-176,o),
(288,-190,q),
(258,-200,o),
(224,-190,q),
(207,-170,l),
(193,-142,o),
(187,-105,q),
(166,-47,l),
(163,-27,l),
(153,-3,o),
(146,34,q),
(142,48,l),
(139,61,l),
(136,75,l),
(126,122,l),
(126,136,l),
(122,139,o),
(122,156,o),
(119,163,q),
(119,177,l),
(112,207,ls),
(105,231,o),
(102,265,qs),
(98,288,l),
(95,309,l),
(92,319,o),
(92,336,q),
(88,350,l),
(85,377,l),
(51,383,o),
(0,380,q),
(0,407,l),
(71,407,l),
(81,411,l),
(71,858,l),
(75,875,l),
(75,1004,l),
(0,1008,l),
(0,1035,l),
(68,1035,l),
(78,1038,l),
(78,1072,o),
(85,1123,q),
(88,1133,l),
(98,1191,l),
(102,1201,l),
(102,1218,l),
(109,1238,o),
(112,1269,q),
(119,1286,l),
(122,1306,l),
(126,1320,l),
(129,1333,l),
(132,1347,l),
(136,1361,l),
(139,1374,l),
(142,1388,l),
(183,1493,l),
(193,1513,o),
(200,1540,q),
(210,1554,o),
(221,1581,q),
(231,1595,o),
(248,1605,q)
);
},
{
closed = 1;
nodes = (
(380,-410,l),
(380,-438,l),
(0,-438,l),
(0,-410,l)
);
}
);
width = 360;
}
);
note = parenleft;
unicode = 40;
},
{
glyphname = parenright;
layers = (
{
layerId = m01;
shapes = (
{
closed = 1;
nodes = (
(378,1852,l),
(378,1825,l),
(0,1825,l),
(0,1852,l)
);
},
{
closed = 1;
nodes = (
(128,1605,o),
(155,1588,q),
(166,1571,o),
(176,1544,qs),
(182,1524,l),
(189,1514,l),
(193,1497,o),
(209,1453,o),
(226,1416,q),
(233,1396,l),
(243,1365,l),
(247,1352,l),
(250,1338,l),
(253,1325,l),
(257,1311,l),
(260,1298,l),
(263,1271,o),
(270,1250,q),
(277,1217,l),
(280,1186,l),
(290,1146,l),
(294,1125,l),
(297,1105,l),
(301,1041,l),
(331,1034,o),
(378,1038,q),
(378,1011,l),
(348,1014,o),
(304,1007,q),
(304,876,l),
(307,865,l),
(301,436,l),
(297,416,l),
(378,413,l),
(378,386,l),
(345,389,o),
(294,382,q),
(287,325,l),
(284,311,l),
(277,264,l),
(274,240,l),
(270,224,ls),
(263,203,o),
(263,193,q),
(257,156,l),
(257,136,o),
(247,112,q),
(243,95,l),
(240,82,l),
(236,65,l),
(226,11,l),
(223,-6,l),
(199,-80,l),
(196,-94,l),
(182,-134,l),
(172,-165,l),
(132,-205,o),
(81,-172,q),
(78,-155,o),
(81,-131,q),
(95,-111,o),
(98,-80,q),
(128,24,l),
(132,38,l),
(142,85,l),
(145,112,o),
(152,132,q),
(152,149,o),
(159,170,qs),
(166,197,l),
(166,210,l),
(176,244,o),
(179,295,q),
(189,342,o),
(189,372,q),
(193,382,l),
(0,386,l),
(0,413,l),
(182,413,l),
(196,416,l),
(199,450,o),
(199,501,q),
(203,524,l),
(203,575,l),
(206,612,l),
(206,889,l),
(203,903,l),
(203,1007,l),
(0,1011,l),
(0,1038,l),
(186,1038,l),
(199,1041,l),
(203,1065,o),
(196,1095,q),
(196,1115,o),
(189,1139,q),
(189,1163,o),
(182,1200,q),
(182,1210,l),
(176,1227,o),
(172,1254,q),
(159,1291,o),
(155,1318,q),
(105,1460,l),
(101,1473,l),
(95,1494,l),
(88,1507,o),
(84,1524,q),
(74,1544,l),
(71,1558,o),
(71,1578,q),
(78,1592,o),
(98,1605,q)
);
},
{
closed = 1;
nodes = (
(378,-401,l),
(378,-428,l),
(0,-428,l),
(0,-401,l)
);
}
);
width = 370;
}
);
note = parenright;
unicode = 41;
},
{
glyphname = asterisk;
layers = (
{
layerId = m01;
shapes = (
{
closed = 1;
nodes = (
(513,1852,l),
(513,1825,l),
(0,1825,l),
(0,1852,l)
);
},
{
closed = 1;
nodes = (
(260,1619,o),
(287,1605,q),
(304,1541,o),
(294,1463,q),
(297,1456,l),
(439,1581,o),
(483,1514,q),
(483,1500,o),
(476,1480,q),
(459,1467,o),
(432,1456,q),
(392,1429,l),
(382,1419,l),
(345,1396,l),
(328,1382,l),
(351,1372,l),
(459,1304,l),
(473,1281,o),
(463,1250,q),
(442,1234,o),
(415,1234,q),
(402,1240,o),
(378,1257,qs),
(345,1284,l),
(324,1294,l),
(318,1301,l),
(304,1308,l),
(290,1318,l),
(290,1223,l),
(294,1217,l),
(294,1180,l),
(290,1163,l),
(250,1125,o),
(209,1166,q),
(213,1200,o),
(209,1250,q),
(209,1277,l),
(206,1288,l),
(51,1146,o),
(24,1247,q),
(30,1267,o),
(51,1284,q),
(122,1325,l),
(132,1328,l),
(186,1375,l),
(196,1382,l),
(166,1396,o),
(128,1423,q),
(108,1433,l),
(95,1443,l),
(54,1467,o),
(34,1490,q),
(27,1517,l),
(41,1544,o),
(78,1548,q),
(91,1541,o),
(111,1524,qs),
(118,1517,l),
(206,1460,l),
(220,1507,o),
(206,1561,q),
(206,1588,l),
(216,1605,o),
(240,1619,q)
);
},
{
closed = 1;
nodes = (
(513,1038,l),
(513,1011,l),
(0,1011,l),
(0,1038,l)
);
},
{
closed = 1;
nodes = (
(513,413,l),
(513,386,l),
(0,386,l),
(0,413,l)
);
},
{
closed = 1;
nodes = (
(513,-401,l),
(513,-428,l),
(0,-428,l),
(0,-401,l)
);
}
);
width = 500;
}
);
note = asterisk;
unicode = 42;
},
{
glyphname = plus;
layers = (
{
layerId = m01;
shapes = (
{
closed = 1;
nodes = (
(591,1852,l),
(588,1825,l),
(0,1825,l),
(0,1852,l)
);
},
{
closed = 1;
nodes = (
(591,1038,l),
(588,1011,l),
(0,1011,l),
(0,1038,l)
);
},
{
closed = 1;
nodes = (
(307,970,o),
(328,953,q),
(334,930,o),
(334,899,q),
(338,892,l),
(338,835,l),
(334,811,l),
(334,764,l),
(338,751,l),
(449,754,l),
(463,757,o),
(483,757,qs),
(517,757,l),
(520,754,o),
(530,754,q),
(544,744,o),
(557,727,q),
(554,686,o),
(510,669,q),
(334,673,l),
(328,646,o),
(328,602,qs),
(328,544,l),
(331,538,l),
(331,490,l),
(314,467,o),
(277,463,q),
(253,477,l),
(243,524,o),
(247,595,qs),
(250,619,l),
(250,673,l),
(84,680,l),
(64,683,o),
(37,693,q),
(27,710,o),
(24,737,q),
(47,764,l),
(98,771,o),
(155,757,q),
(179,754,l),
(247,754,l),
(250,778,o),
(250,808,qs),
(250,845,l),
(253,862,o),
(253,889,qs),
(253,903,l),
(250,923,o),
(253,946,q),
(267,960,o),
(287,970,q)
);
},
{
closed = 1;
nodes = (
(591,413,l),
(588,386,l),
(0,386,l),
(0,413,l)
);
},
{
closed = 1;
nodes = (
(591,-401,l),
(588,-428,l),
(0,-428,l),
(0,-401,l)
);
}
);
width = 590;
}
);
note = plus;
unicode = 43;
},
{
glyphname = comma;
layers = (
{
layerId = m01;
shapes = (
{
closed = 1;
nodes = (
(243,1852,l),
(243,1825,l),
(0,1825,l),
(0,1852,l)
);
},
{
closed = 1;
nodes = (
(243,1038,l),
(243,1011,l),
(0,1011,l),
(0,1038,l)
);
},
{
closed = 1;
nodes = (
(186,517,o),
(199,416,q),
(216,413,o),
(243,413,q),
(250,379,o),
(203,382,q),
(206,183,o),
(27,166,q),
(98,257,o),
(95,382,q),
(0,386,l),
(0,413,l),
(27,409,o),
(68,416,q),
(-7,494,o),
(95,538,q)
);
},
{
closed = 1;
nodes = (
(243,-401,l),
(243,-428,l),
(0,-428,l),
(0,-401,l)
);
}
);
width = 229;
}
);
note = comma;
unicode = 44;
},
{
glyphname = hyphen;
layers = (
{
layerId = m01;
shapes = (
{
closed = 1;
nodes = (
(470,1852,l),
(470,1825,l),
(0,1825,l),
(0,1852,l)
);
},
{
closed = 1;
nodes = (
(470,1032,l),
(470,1005,l),
(0,1005,l),
(0,1032,l)
);
},
{
closed = 1;
nodes = (
(174,760,l),
(197,754,o),
(235,757,q),
(398,754,l),
(470,716,o),
(405,665,q),
(306,665,l),
(296,668,l),
(197,668,l),
(180,672,l),
(51,675,l),
(14,719,o),
(58,760,q)
);
},
{
closed = 1;
nodes = (
(470,403,l),
(470,376,l),
(0,376,l),
(0,403,l)
);
},
{
closed = 1;
nodes = (
(470,-417,l),
(470,-444,l),
(0,-444,l),
(0,-417,l)
);
}
);
width = 460;
}
);
note = hyphen;
unicode = (45,8208);
},
{
glyphname = period;
layers = (
{
layerId = m01;
shapes = (
{
closed = 1;
nodes = (
(200,1852,l),
(200,1825,l),
(0,1825,l),
(0,1852,l)
);
},
{
closed = 1;
nodes = (
(200,1035,l),
(200,1008,l),
(0,1008,l),
(0,1035,l)
);
},
{
closed = 1;
nodes = (
(200,546,o),
(163,445,q),
(78,373,o),
(24,478,q),
(27,540,o),
(95,563,q)
);
},
{
closed = 1;
nodes = (
(200,407,l),
(200,380,l),
(0,380,l),
(0,407,l)
);
},
{
closed = 1;
nodes = (
(200,-410,l),
(200,-438,l),
(0,-438,l),
(0,-410,l)
);
}
);
width = 200;
}
);
note = period;
unicode = 46;
},
{
glyphname = slash;
layers = (
{
layerId = m01;
shapes = (
{
closed = 1;
nodes = (
(551,1852,l),
(551,1825,l),
(0,1825,l),
(0,1852,l)
);
},
{
closed = 1;
nodes = (
(507,1399,l),
(527,1389,o),
(540,1369,q),
(540,1348,l),
(507,1277,l),
(503,1267,l),
(402,1068,l),
(392,1038,l),
(551,1038,l),
(551,1011,l),
(419,1011,l),
(399,1014,o),
(372,1007,q),
(331,923,l),
(324,913,l),
(307,876,l),
(301,865,l),
(250,761,l),
(240,744,o),
(230,717,qs),
(193,632,ls),
(189,622,o),
(179,605,qs),
(169,585,l),
(125,494,l),
(108,470,l),
(74,440,o),
(27,457,q),
(-7,480,o),
(57,555,q),
(71,578,l),
(74,588,o),
(84,605,q),
(115,680,l),
(125,696,o),
(125,703,q),
(149,747,l),
(152,761,o),
(169,794,qs),
(179,815,l),
(206,869,l),
(209,879,l),
(223,899,o),
(236,933,q),
(247,953,l),
(267,990,l),
(277,1011,l),
(0,1011,l),
(0,1038,l),
(290,1038,l),
(321,1092,l),
(324,1102,o),
(334,1119,qs),
(345,1139,l),
(361,1180,l),
(372,1200,l),
(378,1210,ls),
(388,1227,o),
(399,1254,q),
(409,1271,l),
(412,1284,l),
(432,1321,l),
(436,1332,l),
(463,1382,l),
(476,1392,o),
(497,1399,q)
);
},
{
closed = 1;
nodes = (
(551,413,l),
(551,386,l),
(0,386,l),
(0,413,l)
);
},
{
closed = 1;
nodes = (
(551,-401,l),
(551,-428,l),
(0,-428,l),
(0,-401,l)
);
}
);
width = 560;
}
);
note = slash;
unicode = 47;
},
{
glyphname = zero;
layers = (
{
layerId = m01;
shapes = (
{
closed = 1;
nodes = (
(564,1852,l),
(561,1825,l),
(0,1825,l),
(0,1852,l)
);
},
{
closed = 1;
nodes = (
(480,1237,o),
(534,1041,q),
(564,1038,l),
(571,1011,o),
(540,1007,q),
(547,984,o),
(551,946,q),
(554,940,l),
(557,903,o),
(557,879,qs),
(557,848,l),
(540,548,o),
(304,426,q),
(284,423,l),
(260,420,l),
(230,420,l),
(34,453,o),
(17,666,q),
(-20,832,o),
(57,1007,q),
(34,1014,o),
(0,1011,q),
(0,1038,l),
(71,1038,l),
(135,1173,o),
(294,1223,q)
);
},
{
closed = 1;
nodes = (
(236,1122,o),
(176,1041,q),
(206,1034,o),
(253,1038,q),
(432,1038,l),
(419,1125,o),
(321,1146,q)
);
},
{
closed = 1;
nodes = (
(54,811,o),
(135,575,q),
(145,558,o),
(172,538,q),
(179,531,l),
(206,514,o),
(247,511,q),
(270,514,o),
(304,524,q),
(321,531,l),
(507,717,o),
(446,1007,q),
(159,1011,l)
);
},
{
closed = 1;
nodes = (
(564,413,l),
(561,386,l),
(0,386,l),
(0,413,l)
);
},
{
closed = 1;
nodes = (
(561,-401,l),
(564,-411,o),
(564,-428,q),
(3,-428,l),
(0,-418,o),
(0,-401,q)
);
}
);
width = 550;
}
);
note = zero;
unicode = 48;
},
{
glyphname = one;
layers = (
{
layerId = m01;
shapes = (
{
closed = 1;
nodes = (
(372,1852,l),
(372,1825,l),
(0,1825,l),
(0,1852,l)
);
},
{
closed = 1;
nodes = (
(334,1210,o),
(361,1183,q),
(361,1159,o),
(348,1132,q),
(334,1075,l),
(331,1055,l),
(328,1038,l),
(348,1044,o),
(372,1031,q),
(372,1011,l),
(351,1014,o),
(324,1004,q),
(324,943,l),
(321,919,l),
(314,710,l),
(311,693,l),
(311,463,l),
(307,440,l),
(290,423,l),
(260,416,o),
(230,430,q),
(223,443,o),
(220,467,q),
(220,622,l),
(223,639,l),
(223,794,l),
(226,825,o),
(230,845,q),
(230,906,l),
(233,953,l),
(230,970,l),
(88,791,o),
(3,896,q),
(10,919,l),
(34,933,l),
(44,936,o),
(78,953,q),
(128,987,l),
(152,1011,l),
(0,1011,l),
(0,1038,l),
(179,1038,l),
(247,1105,o),
(277,1200,q),
(280,1207,l),
(301,1217,l)
);
},
{
closed = 1;
nodes = (
(372,413,l),
(372,386,l),
(0,386,l),
(0,413,l)
);
},
{
closed = 1;
nodes = (
(372,-401,l),
(372,-428,l),
(0,-428,l),
(0,-401,l)
);
}
);
width = 370;
}
);
note = one;
unicode = 49;
},
{
glyphname = two;
layers = (
{
layerId = m01;
shapes = (
{
closed = 1;
nodes = (
(578,1852,l),
(584,1842,o),
(584,1825,q),
(7,1825,l),
(0,1835,o),
(0,1852,q)
);
},
{
closed = 1;
nodes = (
(419,1230,o),
(463,1038,q),
(584,1038,l),
(584,1011,l),
(463,1011,l),
(429,778,o),
(247,588,q),
(318,578,o),
(372,514,q),
(405,497,l),
(453,501,o),
(530,561,q),
(547,558,l),
(564,548,o),
(578,528,q),
(578,514,o),
(571,497,q),
(419,349,o),
(260,501,q),
(240,511,o),
(209,511,q),
(196,504,o),
(176,501,q),
(166,494,l),
(78,379,o),
(7,447,q),
(10,474,o),
(34,497,qs),
(88,548,l),
(98,555,l),
(135,592,l),
(149,612,o),
(172,632,q),
(186,653,o),
(213,680,q),
(267,754,l),
(277,764,o),
(287,781,q),
(331,869,l),
(345,909,l),
(351,919,l),
(351,933,o),
(358,950,q),
(368,1007,l),
(138,1011,l),
(128,957,o),
(189,933,q),
(199,913,l),
(189,879,o),
(152,865,q),
(78,872,o),
(57,953,qs),
(51,977,o),
(51,1007,q),
(27,1014,o),
(0,1011,q),
(0,1038,l),
(51,1038,l),
(57,1041,l),
(84,1183,o),
(240,1223,q)
);
},
{
closed = 1;
nodes = (
(179,1119,o),
(142,1051,q),
(142,1044,l),
(149,1038,l),
(365,1038,l),
(361,1058,ls),
(348,1149,o),
(240,1142,q)
);
},
{
closed = 1;
nodes = (
(578,413,l),
(584,403,o),
(584,386,q),
(7,386,l),
(0,396,o),
(0,413,q)
);
},
{
closed = 1;
nodes = (
(584,-401,l),
(584,-428,l),
(0,-428,l),
(0,-401,l)
);
}
);
width = 580;
}
);
note = two;
unicode = 50;
},
{
glyphname = three;
layers = (
{
layerId = m01;
shapes = (
{
closed = 1;
nodes = (
(520,1852,l),
(520,1825,l),
(0,1825,l),
(0,1852,l)
);
},
{
closed = 1;
nodes = (
(459,1267,o),
(470,1041,q),
(493,1034,o),
(520,1038,q),
(520,1011,l),
(466,1011,l),
(449,943,o),
(402,882,q),
(510,808,o),
(493,669,q),
(446,423,o),
(213,423,q),
(44,440,o),
(10,622,q),
(30,666,o),
(81,653,q),
(95,642,l),
(179,399,o),
(361,585,q),
(466,744,o),
(321,828,q),
(297,828,o),
(260,821,q),
(236,821,o),
(223,825,q),
(199,838,o),
(189,869,q),
(199,889,o),
(220,906,q),
(348,909,o),
(365,1011,q),
(0,1011,l),
(0,1038,l),
(368,1038,l),
(375,1058,l),
(385,1159,o),
(290,1176,q),
(196,1186,o),
(115,1098,q),
(84,1098,o),
(61,1122,q),
(57,1132,o),
(57,1149,q),
(122,1240,o),
(240,1261,q)
);
},
{
closed = 1;
nodes = (
(520,413,l),
(520,386,l),
(0,386,l),
(0,413,l)
);
},
{
closed = 1;
nodes = (
(520,-401,l),
(520,-428,l),
(0,-428,l),
(0,-401,l)
);
}
);
width = 520;
}
);
note = three;
unicode = 51;
},
{
glyphname = four;
layers = (
{
layerId = m01;
shapes = (
{
closed = 1;
nodes = (
(540,1852,l),
(540,1825,l),
(0,1825,l),
(0,1852,l)
);
},
{
closed = 1;
nodes = (
(490,1207,o),
(375,1038,q),
(540,1038,l),
(540,1011,l),
(365,1011,l),
(355,997,o),
(345,977,qs),
(321,933,l),
(318,930,o),
(314,919,q),
(280,862,l),
(274,848,o),
(257,825,qs),
(247,811,l),
(236,791,l),
(220,761,l),
(182,700,l),
(172,683,l),
(149,646,ls),
(138,629,o),
(135,622,q),
(196,602,o),
(274,612,q),
(338,612,l),
(341,646,o),
(338,696,qs),
(338,720,l),
(341,744,l),
(345,754,l),
(365,771,o),
(395,771,q),
(439,751,o),
(426,619,q),
(517,636,o),
(530,568,q),
(497,534,o),
(429,534,q),
(442,467,o),
(402,420,q),
(368,420,o),
(341,443,q),
(341,524,l),
(338,534,l),
(162,528,l),
(149,531,o),
(128,531,q),
(84,538,l),
(61,541,l),
(24,551,o),
(3,565,q),
(14,612,o),
(51,656,q),
(145,811,l),
(155,835,o),
(176,865,q),
(179,876,o),
(189,892,q),
(193,896,o),
(203,913,qs),
(240,980,l),
(243,990,l),
(257,1011,l),
(0,1011,l),
(0,1038,l),
(267,1038,l),
(280,1051,o),
(290,1075,q),
(314,1119,l),
(331,1156,l),
(345,1186,l),
(358,1203,o),
(365,1213,q),
(392,1223,l)
);
},
{
closed = 1;
nodes = (
(540,413,l),
(540,386,l),
(0,386,l),
(0,413,l)
);
},
{
closed = 1;
nodes = (
(540,-401,l),
(540,-428,l),
(0,-428,l),
(0,-401,l)
);
}
);
width = 540;
}
);
note = four;
unicode = 52;
},
{
glyphname = five;
layers = (
{
layerId = m01;
shapes = (
{
closed = 1;
nodes = (
(578,1852,l),
(578,1825,l),
(0,1825,l),
(0,1852,l)
);
},
{
closed = 1;
nodes = (
(493,1247,l),
(500,1244,ls),
(520,1234,o),
(534,1213,q),
(534,1200,o),
(527,1183,q),
(375,1065,o),
(172,1115,q),
(162,1041,l),
(578,1038,l),
(578,1011,l),
(372,1011,l),
(652,869,o),
(507,578,q),
(399,406,o),
(186,426,q),
(0,467,o),
(17,669,q),
(47,696,o),
(88,683,q),
(98,669,o),
(105,649,q),
(115,470,o),
(297,517,q),
(493,595,o),
(453,815,q),
(331,1044,o),
(108,869,q),
(81,869,o),
(54,882,q),
(47,940,o),
(74,1007,q),
(0,1011,l),
(0,1038,l),
(37,1031,o),
(81,1044,q),
(91,1095,ls),
(95,1115,o),
(95,1129,q),
(98,1132,o),
(98,1142,qs),
(98,1176,l),
(115,1200,l),
(135,1203,o),
(159,1200,q),
(318,1139,o),
(473,1247,q)
);
},
{
closed = 1;
nodes = (
(155,1004,o),
(159,997,q),
(196,1014,o),
(159,1011,q)
);
},
{
closed = 1;
nodes = (
(578,413,l),
(578,386,l),
(0,386,l),
(0,413,l)
);
},
{
closed = 1;
nodes = (
(574,-401,l),
(578,-411,o),
(578,-428,q),
(3,-428,l),
(0,-418,o),
(0,-401,q)
);
}
);
width = 580;
}
);
note = five;
unicode = 53;
},
{
glyphname = six;
layers = (
{
layerId = m01;
shapes = (
{
closed = 1;
nodes = (
(485,1852,l),
(485,1825,l),
(0,1825,l),
(0,1852,l)
);
},
{
closed = 1;
nodes = (
(397,1225,o),
(417,1221,q),
(444,1198,o),
(431,1160,q),
(424,1150,o),
(407,1140,qs),
(397,1133,o),
(380,1116,q),
(373,1113,l),
(349,1089,l),
(339,1082,l),
(326,1069,l),
(316,1062,o),
(299,1045,qs),
(288,1035,l),
(485,1035,l),
(485,1008,l),
(258,1008,l),
(204,943,l),
(136,875,o),
(109,770,q),
(241,872,o),
(397,791,q),
(516,706,o),
(461,553,q),
(353,366,o),
(136,434,q),
(81,478,l),
(58,502,o),
(37,540,qs),
(24,560,l),
(20,567,l),
(-31,801,o),
(139,1008,q),
(0,1008,l),
(0,1035,l),
(163,1035,l),
(254,1126,l),
(275,1140,o),
(319,1184,o),
(353,1208,q),
(363,1218,o),
(383,1225,q)
);
},
{
closed = 1;
nodes = (
(200,743,o),
(163,685,q),
(139,675,l),
(115,679,o),
(98,702,q),
(95,689,l),
(98,451,o),
(305,519,q),
(336,533,o),
(363,563,q),
(444,733,o),
(261,746,q)
);
},
{
closed = 1;
nodes = (
(485,407,l),
(485,380,l),
(0,380,l),
(0,407,l)
);
},
{
closed = 1;
nodes = (
(485,-410,l),
(485,-438,l),
(0,-438,l),
(0,-410,l)
);
}
);
width = 490;
}
);
note = six;
unicode = 54;
},
{
glyphname = seven;
layers = (
{
layerId = m01;
shapes = (
{
closed = 1;
nodes = (
(611,1852,l),
(611,1825,l),
(0,1825,l),
(0,1852,l)
);
},
{
closed = 1;
nodes = (
(187,1225,l),
(299,1065,o),
(485,1171,q),
(499,1184,o),
(509,1204,q),
(529,1225,l),
(536,1228,l),
(563,1228,o),
(590,1211,q),
(597,1194,o),
(600,1171,q),
(587,1140,o),
(560,1106,qs),
(546,1089,o),
(522,1038,q),
(553,1031,o),
(600,1035,qs),
(611,1035,l),
(611,1008,l),
(512,1008,l),
(499,984,o),
(485,947,q),
(465,906,l),
(448,862,ls),
(441,845,o),
(441,838,q),
(431,825,o),
(431,804,q),
(546,838,o),
(560,774,q),
(553,757,o),
(539,743,q),
(499,726,o),
(441,730,q),
(404,726,l),
(394,719,l),
(363,645,l),
(353,621,l),
(332,567,l),
(329,560,l),
(309,502,l),
(305,499,o),
(302,489,qs),
(278,424,l),
(200,394,o),
(190,478,q),
(217,543,l),
(224,553,l),
(234,580,l),
(237,594,o),
(254,628,q),
(258,641,o),
(268,658,q),
(285,706,l),
(292,716,l),
(173,709,o),
(183,774,q),
(224,814,o),
(322,801,q),
(343,855,l),
(373,923,l),
(377,936,l),
(387,960,ls),
(397,984,o),
(407,1001,qs),
(411,1008,l),
(146,1008,l),
(112,950,o),
(47,933,q),
(-20,964,o),
(31,1008,q),
(-3,1001,o),
(0,1035,q),
(58,1035,l),
(126,1103,o),
(115,1204,q),
(132,1225,o),
(156,1235,q)
);
},
{
closed = 1;
nodes = (
(187,1076,o),
(170,1045,qs),
(166,1038,l),
(197,1031,o),
(244,1035,q),
(421,1035,l),
(434,1059,l),
(305,1018,o),
(190,1099,q)
);
},
{
closed = 1;
nodes = (
(611,407,l),
(611,380,l),
(0,380,l),
(0,407,l)
);
},
{
closed = 1;
nodes = (
(611,-410,l),
(611,-438,l),
(0,-438,l),
(0,-410,l)
);
}
);
width = 610;
}
);
note = seven;
unicode = 55;
},
{
glyphname = eight;
layers = (
{
layerId = m01;
shapes = (
{
closed = 1;
nodes = (
(446,1852,l),
(446,1825,l),
(0,1825,l),
(0,1852,l)
);
},
{
closed = 1;
nodes = (
(243,1217,o),
(270,1176,q),
(395,1176,o),
(415,1041,q),
(449,1041,o),
(446,1011,q),
(432,1014,o),
(415,1007,q),
(405,913,o),
(328,842,q),
(459,744,o),
(422,572,q),
(378,420,o),
(206,420,qs),
(41,416,o),
(7,588,q),
(34,734,o),
(176,828,q),
(68,882,o),
(34,1004,q),
(20,1011,o),
(0,1011,q),
(-7,1041,o),
(30,1041,q),
(51,1176,o),
(199,1213,q)
);
},
{
closed = 1;
nodes = (
(122,1119,o),
(108,1041,q),
(138,1034,o),
(186,1038,q),
(334,1038,l),
(331,1082,o),
(287,1102,q),
(260,1105,o),
(226,1095,q),
(216,1098,l),
(199,1112,o),
(196,1136,q)
);
},
{
closed = 1;
nodes = (
(152,930,o),
(240,879,q),
(324,903,o),
(338,1011,q),
(118,1011,l)
);
},
{
closed = 1;
nodes = (
(142,737,o),
(91,605,q),
(105,484,o),
(230,494,q),
(338,497,o),
(348,615,qs),
(361,727,o),
(260,788,q)
);
},
{
closed = 1;
nodes = (
(446,413,l),
(446,386,l),
(0,386,l),
(0,413,l)
);
},
{
closed = 1;
nodes = (
(446,-401,l),
(446,-428,l),
(0,-428,l),
(0,-401,l)
);
}
);
width = 450;
}
);
note = eight;
unicode = 56;
},
{
glyphname = nine;
layers = (
{
layerId = m01;
shapes = (
{
closed = 1;
nodes = (
(461,1852,l),
(461,1825,l),
(0,1825,l),
(0,1852,l)
);
},
{
closed = 1;
nodes = (
(326,1266,o),
(397,1160,q),
(414,1191,o),
(441,1164,q),
(444,1089,l),
(441,1072,o),
(441,1048,qs),
(441,1038,l),
(458,1038,o),
(461,1008,q),
(427,1011,o),
(438,930,qs),
(505,424,o),
(149,414,q),
(136,417,o),
(115,428,q),
(95,455,o),
(115,489,q),
(136,499,l),
(193,489,l),
(278,516,o),
(332,594,q),
(339,614,o),
(343,645,qs),
(346,665,o),
(349,679,qs),
(353,702,l),
(356,713,l),
(356,736,o),
(360,774,q),
(360,804,l),
(356,831,l),
(356,889,l),
(258,801,o),
(126,835,q),
(3,886,o),
(0,1035,q),
(7,1198,o),
(166,1242,q),
(176,1232,l),
(190,1245,o),
(210,1255,q)
);
},
{
closed = 1;
nodes = (
(193,1147,o),
(142,1164,q),
(88,1116,o),
(88,1035,q),
(322,1035,l),
(336,1038,l),
(343,1160,o),
(224,1174,q)
);
},
{
closed = 1;
nodes = (
(149,814,o),
(316,964,q),
(326,984,o),
(326,1008,q),
(92,1008,l),
(88,1004,l)
);
},
{
closed = 1;
nodes = (
(461,407,l),
(461,380,l),
(0,380,l),
(0,407,l)
);
},
{
closed = 1;
nodes = (
(461,-410,l),
(461,-438,l),
(0,-438,l),
(0,-410,l)
);
}
);
width = 460;
}
);
note = nine;
unicode = 57;
},
{
glyphname = colon;
layers = (
{
layerId = m01;
shapes = (
{
closed = 1;
nodes = (
(220,1852,l),
(220,1825,l),
(0,1825,l),
(0,1852,l)
);
},
{
closed = 1;
nodes = (
(220,1038,l),
(220,1011,l),
(0,1011,l),
(0,1038,l)
);
},
{
closed = 1;
nodes = (
(149,930,o),
(172,876,q),
(159,781,o),
(64,805,q),
(-7,879,o),
(91,923,q)
);
},
{
closed = 1;
nodes = (
(149,626,o),
(182,582,q),
(186,504,o),
(105,487,q),
(37,501,o),
(47,572,q),
(57,605,o),
(98,619,q)
);
},
{
closed = 1;
nodes = (
(220,413,l),
(220,386,l),
(0,386,l),
(0,413,l)
);
},
{
closed = 1;
nodes = (
(220,-401,l),
(220,-428,l),
(0,-428,l),
(0,-401,l)
);
}
);
width = 220;
}
);
note = colon;
unicode = 58;
},
{
glyphname = semicolon;
layers = (
{
layerId = m01;
shapes = (
{
closed = 1;
nodes = (
(248,1852,l),
(248,1825,l),
(0,1825,l),
(0,1852,l)
);
},
{
closed = 1;
nodes = (
(248,1035,l),
(248,1008,l),
(0,1008,l),
(0,1035,l)
);
},
{
closed = 1;
nodes = (
(180,804,o),
(183,723,q),
(149,624,o),
(51,685,q),
(41,713,l),
(44,767,o),
(98,801,q)
);
},
{
closed = 1;
nodes = (
(190,512,o),
(207,411,q),
(254,414,o),
(248,380,q),
(207,387,o),
(207,343,q),
(197,200,o),
(47,160,q),
(47,180,o),
(68,200,q),
(122,278,o),
(105,380,q),
(0,380,l),
(0,407,l),
(34,404,o),
(85,411,q),
(-34,475,o),
(98,536,q)
);
},
{
closed = 1;
nodes = (
(248,-410,l),
(248,-438,l),
(0,-438,l),
(0,-410,l)
);
}
);
width = 250;
}
);
note = semicolon;
unicode = 59;
},
{
glyphname = less;
layers = (
{
layerId = m01;
shapes = (
{
closed = 1;
nodes = (
(580,1852,l),
(580,1825,l),
(0,1825,l),
(0,1852,l)
);
},
{
closed = 1;
nodes = (
(580,1035,l),
(580,1008,l),
(0,1008,l),
(0,1035,l)
);
},
{
closed = 1;
nodes = (
(580,977,o),
(556,909,q),
(526,882,o),
(478,865,q),
(438,841,l),
(417,831,l),
(414,828,o),
(404,825,q),
(326,780,l),
(316,777,l),
(261,746,l),
(237,736,o),
(207,716,q),
(197,713,l),
(176,699,l),
(200,692,o),
(227,675,q),
(244,668,ls),
(268,658,o),
(285,648,q),
(309,638,l),
(312,635,o),
(332,624,qs),
(455,563,l),
(465,560,o),
(482,550,qs),
(536,523,l),
(546,519,l),
(550,512,o),
(560,506,q),
(570,478,o),
(553,451,q),
(536,438,o),
(509,434,q),
(441,468,l),
(424,478,l),
(414,482,l),
(204,590,l),
(176,601,l),
(166,607,l),
(149,614,l),
(129,624,l),
(61,651,l),
(41,662,l),
(31,668,ls),
(10,682,o),
(3,709,q),
(17,730,l),
(115,770,l),
(129,774,l),
(149,787,o),
(180,797,q),
(187,801,l),
(204,808,o),
(227,825,q),
(258,838,l),
(288,855,l),
(305,869,o),
(332,879,q),
(346,889,l),
(414,926,l),
(424,930,l),
(427,933,o),
(438,936,q),
(451,947,o),
(472,957,q),
(475,960,o),
(485,964,q),
(509,977,l)
);
},
{
closed = 1;
nodes = (
(580,407,l),
(580,380,l),
(0,380,l),
(0,407,l)
);
},
{
closed = 1;
nodes = (
(577,-410,l),
(580,-421,o),
(580,-438,q),
(3,-438,l),
(0,-427,o),
(0,-410,q)
);
}
);
width = 580;
}
);
note = less;
unicode = 60;
},
{
glyphname = equal;
layers = (
{
layerId = m01;
shapes = (
{
closed = 1;
nodes = (
(567,1852,l),
(564,1825,l),
(0,1825,l),
(0,1852,l)
);
},
{
closed = 1;
nodes = (
(564,1038,l),
(567,1028,o),
(567,1011,q),
(3,1011,l),
(0,1021,o),
(0,1038,q)
);
},
{
closed = 1;
nodes = (
(611,865,o),
(513,767,q),
(331,767,l),
(318,764,l),
(270,764,l),
(233,761,l),
(209,757,l),
(101,754,l),
(81,751,l),
(71,747,l),
(37,747,l),
(7,767,o),
(3,811,q),
(10,825,o),
(24,835,q),
(142,842,l),
(179,845,l),
(196,845,l),
(209,848,l),
(375,852,l),
(395,855,l)
);
},
{
closed = 1;
nodes = (
(547,666,o),
(557,615,q),
(551,599,o),
(537,582,q),
(463,568,l),
(439,568,l),
(415,565,l),
(378,561,l),
(115,561,l),
(95,565,o),
(68,565,qs),
(47,565,o),
(24,578,q),
(10,609,o),
(27,642,q),
(51,653,o),
(81,656,q),
(118,653,o),
(142,653,qs),
(179,653,l),
(189,649,l),
(240,649,l),
(277,646,l),
(324,646,l),
(348,653,o),
(385,649,q),
(409,653,l),
(439,653,o),
(459,659,q),
(486,663,l),
(500,666,l)
);
},
{
closed = 1;
nodes = (
(567,413,l),
(564,386,l),
(0,386,l),
(0,413,l)
);
},
{
closed = 1;
nodes = (
(567,-401,l),
(564,-428,l),
(0,-428,l),
(0,-401,l)
);
}
);
width = 570;
}
);
note = equal;
unicode = 61;
},
{
glyphname = greater;
layers = (
{
layerId = m01;
shapes = (
{
closed = 1;
nodes = (
(580,1852,l),
(580,1825,l),
(0,1825,l),
(0,1852,l)
);
},
{
closed = 1;
nodes = (
(580,1035,l),
(580,1008,l),
(0,1008,l),
(0,1035,l)
);
},
{
closed = 1;
nodes = (
(68,977,o),
(85,970,q),
(122,950,l),
(142,943,o),
(166,926,q),
(176,923,l),
(190,913,o),
(217,899,qs),
(237,889,l),
(434,784,l),
(455,770,o),
(489,760,q),
(495,757,l),
(519,750,l),
(529,743,o),
(546,740,q),
(567,726,l),
(577,709,l),
(573,689,o),
(556,672,q),
(512,648,l),
(489,641,l),
(465,628,o),
(434,618,q),
(424,611,l),
(278,543,l),
(268,540,l),
(81,438,l),
(71,434,l),
(47,434,o),
(27,451,q),
(14,475,o),
(24,506,q),
(58,536,o),
(112,556,q),
(204,604,l),
(214,607,l),
(237,621,l),
(248,624,o),
(265,635,q),
(275,638,o),
(312,655,q),
(339,672,o),
(387,692,q),
(404,702,l),
(373,713,o),
(332,740,qs),
(316,750,l),
(305,753,l),
(282,767,ls),
(278,770,o),
(268,774,q),
(122,852,l),
(105,862,l),
(85,872,ls),
(44,892,o),
(20,916,q),
(10,957,o),
(51,977,q)
);
},
{
closed = 1;
nodes = (
(580,407,l),
(580,380,l),
(0,380,l),
(0,407,l)
);
},
{
closed = 1;
nodes = (
(577,-410,l),
(580,-421,o),
(580,-438,q),
(3,-438,l),
(0,-427,o),
(0,-410,q)
);
}
);
width = 580;
}
);
note = greater;
unicode = 62;
},
{
glyphname = question;
layers = (
{
layerId = m01;
shapes = (
{
closed = 1;
nodes = (
(516,1852,l),
(516,1825,l),
(0,1825,l),
(0,1852,l)
);
},
{
closed = 1;
nodes = (
(441,1757,o),
(499,1571,q),
(550,1347,o),
(319,1126,q),
(285,1052,l),
(282,1048,o),
(278,1038,q),
(302,1031,o),
(329,1035,q),
(516,1035,l),
(516,1008,l),
(316,1008,l),
(295,1011,o),
(271,1004,q),
(265,936,l),
(261,926,l),
(261,875,l),
(258,858,l),
(258,821,l),
(254,818,o),
(254,801,o),
(251,794,q),
(234,774,o),
(207,767,q),
(187,774,o),
(163,791,q),
(156,831,o),
(163,892,qs),
(166,909,l),
(166,947,l),
(170,957,l),
(170,977,o),
(176,1004,q),
(146,1011,o),
(98,1008,q),
(0,1008,l),
(0,1035,l),
(180,1035,l),
(187,1065,o),
(210,1109,q),
(214,1120,o),
(224,1137,q),
(227,1147,l),
(258,1191,ls),
(265,1201,o),
(282,1218,q),
(292,1235,l),
(411,1347,o),
(414,1523,q),
(394,1690,o),
(221,1662,q),
(64,1625,o),
(105,1459,q),
(122,1445,o),
(136,1425,q),
(132,1401,o),
(112,1384,q),
(10,1381,o),
(7,1496,qs),
(0,1720,o),
(251,1751,q)
);
},
{
closed = 1;
nodes = (
(227,546,o),
(248,540,q),
(339,424,o),
(187,414,q),
(156,431,o),
(142,465,q),
(149,526,o),
(210,546,q)
);
},
{
closed = 1;
nodes = (
(516,407,l),
(516,380,l),
(0,380,l),
(0,407,l)
);
},
{
closed = 1;
nodes = (
(516,-410,l),
(516,-438,l),
(0,-438,l),
(0,-410,l)
);
}
);
width = 520;
}
);
note = question;
unicode = 63;
},
{
glyphname = at;
layers = (
{
layerId = m01;
shapes = (
{
closed = 1;
nodes = (
(905,1852,l),
(909,1838,o),
(898,1825,q),
(3,1825,l),
(0,1835,o),
(0,1852,q)
);
},
{
closed = 1;
nodes = (
(486,1413,l),
(530,1409,l),
(871,1362,o),
(888,1041,q),
(909,1034,o),
(905,1011,q),
(888,1007,l),
(885,963,l),
(882,943,l),
(871,903,l),
(828,781,o),
(703,710,q),
(591,656,o),
(510,761,q),
(324,595,o),
(196,808,q),
(166,899,o),
(186,1007,q),
(176,1011,o),
(159,1011,q),
(128,1014,o),
(98,1004,q),
(98,977,o),
(91,936,q),
(91,879,l),
(95,859,l),
(101,595,o),
(351,517,q),
(605,453,o),
(801,680,q),
(814,717,l),
(834,727,l),
(882,730,o),
(898,683,q),
(868,619,l),
(551,278,o),
(162,514,q),
(101,561,o),
(64,639,q),
(51,659,l),
(24,754,l),
(14,798,ls),
(10,818,o),
(10,845,q),
(7,855,l),
(3,950,l),
(7,973,o),
(7,1004,q),
(10,1011,l),
(-3,1017,o),
(0,1038,q),
(17,1041,l),
(91,1355,o),
(426,1413,q)
);
},
{
closed = 1;
nodes = (
(193,1298,o),
(105,1041,q),
(138,1034,o),
(189,1038,q),
(223,1180,o),
(355,1227,q),
(378,1227,o),
(405,1210,q),
(473,1237,o),
(524,1169,q),
(588,1166,o),
(588,1038,q),
(801,1038,l),
(807,1075,o),
(797,1119,q),
(726,1352,o),
(432,1345,q)
);
},
{
closed = 1;
nodes = (
(307,1129,o),
(280,1041,q),
(311,1034,o),
(358,1038,q),
(480,1038,l),
(483,1092,o),
(446,1139,q),
(385,1129,o),
(375,1156,q)
);
},
{
closed = 1;
nodes = (
(230,876,o),
(318,781,q),
(497,727,o),
(483,1007,q),
(277,1011,l)
);
},
{
closed = 1;
nodes = (
(581,987,o),
(584,950,qs),
(584,940,l),
(578,892,o),
(584,821,q),
(591,808,o),
(594,788,q),
(608,774,l),
(622,771,o),
(642,774,q),
(780,838,o),
(804,1007,q),
(588,1011,l)
);
},
{
closed = 1;
nodes = (
(905,413,l),
(909,399,o),
(898,386,q),
(3,386,l),
(0,396,o),
(0,413,q)
);
},
{
closed = 1;
nodes = (
(892,-401,l),
(909,-405,o),
(905,-428,q),
(14,-428,l),
(-3,-425,o),
(0,-401,q)
);
}
);
width = 910;
}
);
note = at;
unicode = 64;
},
{
glyphname = A;
layers = (
{
layerId = m01;
shapes = (
{
closed = 1;
nodes = (
(1404,1850,l),
(1411,1827,o),
(1391,1823,q),
(10,1823,l),
(-3,1830,o),
(0,1850,q)
);
},
{
closed = 1;
nodes = (
(577,1833,o),
(604,1776,q),
(793,1756,o),
(844,1509,q),
(844,1739,l),
(837,1766,o),
(844,1796,q),
(878,1820,o),
(918,1796,q),
(928,1745,o),
(922,1664,q),
(922,1047,l),
(925,1037,l),
(1404,1037,l),
(1404,1010,l),
(925,1010,l),
(918,979,o),
(922,932,q),
(922,699,ls),
(922,686,o),
(925,665,qs),
(928,652,l),
(928,628,l),
(932,605,l),
(932,588,o),
(938,567,q),
(952,534,l),
(992,486,o),
(1060,503,q),
(1215,551,o),
(1313,713,q),
(1350,753,l),
(1381,740,o),
(1404,709,q),
(1310,510,o),
(1084,422,q),
(1016,419,ls),
(911,419,o),
(861,524,q),
(857,547,o),
(847,578,q),
(847,598,l),
(840,628,o),
(840,648,q),
(837,675,l),
(834,854,l),
(830,868,l),
(790,625,o),
(581,470,q),
(557,463,o),
(527,446,q),
(503,436,l),
(479,432,ls),
(462,429,o),
(442,419,q),
(182,426,o),
(41,756,q),
(-68,1135,o),
(122,1519,q),
(199,1617,l),
(213,1634,l),
(361,1766,l),
(375,1776,l),
(425,1796,ls),
(452,1806,o),
(489,1810,q),
(510,1816,ls)
);
},
{
closed = 1;
nodes = (
(398,1708,l),
(128,1492,o),
(81,1121,q),
(81,1043,l),
(88,1037,l),
(776,1037,l),
(786,1111,l),
(786,1229,l),
(813,1445,o),
(682,1654,q),
(604,1718,o),
(513,1648,q),
(479,1648,l),
(435,1691,o),
(496,1742,q),
(476,1742,l)
);
},
{
closed = 1;
nodes = (
(74,736,o),
(300,540,q),
(365,513,l),
(388,507,o),
(419,513,qs),
(695,554,o),
(743,885,q),
(756,922,o),
(763,976,q),
(770,993,o),
(770,1010,q),
(84,1010,l)
);
},
{
closed = 1;
nodes = (
(1404,412,l),
(1411,389,o),
(1391,385,q),
(10,385,l),
(-3,392,o),
(0,412,q)
);
},
{
closed = 1;
nodes = (
(1404,-401,l),
(1411,-425,o),
(1391,-428,q),
(10,-428,l),
(-3,-422,o),
(0,-401,q)
);
}
);
width = 1360;
}
);
note = A;
unicode = 65;
},
{
glyphname = B;
layers = (
{
layerId = m01;
shapes = (
{
closed = 1;
nodes = (
(1316,1852,l),
(1323,1829,o),
(1303,1825,q),
(10,1825,l),
(-3,1832,o),
(0,1852,q)
);
},
{
closed = 1;
nodes = (
(974,1849,o),
(1096,1588,q),
(1170,1350,o),
(936,1204,q),
(1113,1177,o),
(1242,1035,q),
(1316,1035,l),
(1316,1008,l),
(1255,1014,o),
(1262,998,qs),
(1377,760,o),
(1248,519,q),
(1225,492,o),
(1184,472,q),
(1008,367,o),
(811,461,q),
(784,482,o),
(757,523,q),
(750,529,l),
(709,611,o),
(726,713,q),
(733,801,o),
(814,760,q),
(821,723,o),
(801,675,q),
(811,434,o),
(1092,526,q),
(1130,550,l),
(1160,567,l),
(1177,584,l),
(1269,794,o),
(1147,1008,q),
(777,1008,l),
(750,1011,o),
(709,1004,q),
(712,984,l),
(712,811,l),
(706,774,l),
(702,763,l),
(699,465,o),
(431,414,q),
(380,407,o),
(312,428,q),
(302,428,l),
(14,594,o),
(17,987,qs),
(17,1001,o),
(0,1008,q),
(-3,1028,o),
(14,1038,q),
(14,1269,o),
(159,1483,q),
(312,1754,o),
(651,1815,q)
);
},
{
closed = 1;
nodes = (
(407,1683,o),
(251,1462,q),
(105,1282,o),
(105,1035,q),
(550,1035,l),
(580,1031,o),
(624,1038,q),
(607,1693,l),
(624,1707,l),
(651,1713,o),
(679,1700,q),
(682,1598,l),
(685,1578,o),
(685,1551,qs),
(685,1537,o),
(689,1517,q),
(695,1259,l),
(699,1249,l),
(699,1147,l),
(702,1137,l),
(702,1096,l),
(706,1065,l),
(709,1038,l),
(729,1035,o),
(757,1035,qs),
(1058,1035,l),
(1086,1031,o),
(1123,1038,q),
(1103,1048,o),
(1075,1069,q),
(1058,1076,l),
(1038,1086,l),
(1028,1093,l),
(943,1116,l),
(930,1120,l),
(909,1126,l),
(896,1130,l),
(848,1143,l),
(811,1143,o),
(767,1133,q),
(753,1133,l),
(726,1140,l),
(709,1181,o),
(733,1225,q),
(1045,1276,o),
(1018,1534,q),
(947,1761,o),
(641,1734,q)
);
},
{
closed = 1;
nodes = (
(75,702,o),
(316,512,q),
(339,499,o),
(377,495,q),
(387,492,l),
(492,499,o),
(573,587,q),
(651,777,o),
(621,1008,q),
(102,1008,l)
);
},
{
closed = 1;
nodes = (
(1316,407,l),
(1323,383,o),
(1303,380,q),
(10,380,l),
(-3,387,o),
(0,407,q)
);
},
{
closed = 1;
nodes = (
(1316,-410,l),
(1323,-434,o),
(1303,-438,q),
(10,-438,l),
(-3,-431,o),
(0,-410,q)
);
}
);
width = 1320;
}
);
note = B;
unicode = 66;
},
{
glyphname = C;
layers = (
{
layerId = m01;
shapes = (
{
closed = 1;
nodes = (
(868,1852,l),
(885,1848,o),
(882,1825,q),
(14,1825,l),
(-3,1828,o),
(0,1852,q)
);
},
{
closed = 1;
nodes = (
(470,1818,l),
(503,1821,o),
(554,1815,q),
(564,1815,l),
(598,1808,o),
(645,1784,q),
(665,1777,l),
(696,1760,o),
(733,1723,qs),
(834,1622,o),
(753,1507,q),
(723,1504,o),
(696,1521,q),
(689,1551,l),
(719,1693,o),
(534,1727,q),
(358,1771,o),
(247,1480,qs),
(199,1352,l),
(196,1348,o),
(196,1338,q),
(186,1301,ls),
(176,1271,o),
(172,1250,qs),
(169,1237,l),
(166,1234,o),
(166,1223,q),
(162,1220,o),
(162,1210,q),
(155,1193,l),
(149,1139,l),
(145,1129,l),
(145,1098,o),
(135,1061,q),
(135,1041,l),
(882,1038,l),
(888,1017,o),
(871,1011,q),
(132,1011,l),
(125,987,o),
(128,960,q),
(128,845,l),
(142,555,o),
(378,514,q),
(419,504,o),
(480,507,q),
(503,511,l),
(513,514,o),
(530,524,q),
(544,528,o),
(561,538,q),
(571,541,o),
(588,551,q),
(598,555,l),
(618,568,l),
(767,717,l),
(804,767,l),
(814,774,l),
(858,761,o),
(882,710,q),
(787,612,l),
(645,399,o),
(378,423,q),
(196,426,o),
(95,605,qs),
(-3,778,o),
(20,1004,q),
(-3,1011,o),
(0,1038,q),
(24,1041,l),
(27,1092,l),
(34,1115,l),
(34,1129,l),
(51,1230,l),
(57,1250,o),
(64,1288,q),
(68,1301,l),
(71,1315,l),
(138,1500,l),
(155,1534,l),
(166,1558,l),
(182,1585,l),
(186,1595,l),
(220,1649,l),
(230,1669,l),
(247,1693,l),
(257,1703,o),
(267,1720,q),
(331,1784,l),
(361,1804,o),
(412,1815,qs),
(422,1818,l)
);
},
{
closed = 1;
nodes = (
(882,413,l),
(888,392,o),
(871,386,q),
(3,386,l),
(0,396,o),
(0,413,q)
);
},
{
closed = 1;
nodes = (
(882,-401,l),
(888,-422,o),
(871,-428,q),
(3,-428,l),
(0,-418,o),
(0,-401,q)
);
}
);
width = 820;
}
);
note = C;
unicode = 67;
},
{
glyphname = D;
layers = (
{
layerId = m01;
shapes = (
{
closed = 1;
nodes = (
(1159,1852,l),
(1165,1831,o),
(1148,1825,q),
(7,1825,l),
(0,1835,o),
(0,1852,q)
);
},
{
closed = 1;
nodes = (
(611,1821,o),
(652,1815,qs),
(679,1811,l),
(699,1808,l),
(709,1808,l),
(750,1798,l),
(770,1784,o),
(804,1771,q),
(811,1764,l),
(834,1750,l),
(902,1686,l),
(919,1666,l),
(926,1659,l),
(980,1568,l),
(990,1548,l),
(993,1538,l),
(1003,1521,o),
(1013,1494,qs),
(1020,1473,ls),
(1023,1460,o),
(1034,1443,q),
(1067,1338,l),
(1067,1328,l),
(1074,1311,l),
(1078,1298,l),
(1081,1284,l),
(1091,1264,o),
(1091,1237,q),
(1094,1220,o),
(1105,1190,o),
(1105,1169,q),
(1108,1166,o),
(1108,1156,q),
(1118,1122,o),
(1125,1068,qs),
(1128,1041,l),
(1155,1044,o),
(1159,1024,q),
(1159,1011,l),
(1138,1014,o),
(1135,994,q),
(1233,558,o),
(926,440,qs),
(777,379,o),
(659,504,q),
(574,609,o),
(649,727,q),
(692,747,o),
(719,703,q),
(719,680,l),
(665,609,o),
(821,474,o),
(915,528,q),
(1023,578,o),
(1061,707,q),
(1061,821,l),
(1057,842,l),
(1057,892,l),
(1054,903,l),
(1054,919,l),
(1050,946,l),
(1050,963,o),
(1044,984,q),
(1044,997,l),
(1040,1011,l),
(601,1011,l),
(598,977,o),
(601,926,q),
(601,710,l),
(598,693,o),
(598,649,q),
(571,555,l),
(483,392,o),
(290,426,q),
(240,440,o),
(182,480,qs),
(176,484,ls),
(159,497,o),
(142,521,q),
(135,528,l),
(125,548,o),
(108,572,q),
(91,612,l),
(84,622,l),
(71,659,l),
(61,673,o),
(57,693,q),
(47,717,l),
(47,727,l),
(27,788,l),
(27,798,l),
(14,852,l),
(14,865,o),
(7,892,q),
(3,967,l),
(0,990,l),
(0,1082,l),
(3,1105,o),
(3,1136,q),
(7,1142,l),
(3,1568,o),
(409,1774,q),
(426,1777,o),
(446,1788,q),
(473,1794,l),
(493,1798,l),
(517,1804,l),
(527,1804,l),
(547,1811,l),
(564,1811,o),
(584,1818,q)
);
},
{
closed = 1;
nodes = (
(74,1608,o),
(95,1038,q),
(510,1038,l),
(517,1041,l),
(513,1105,l),
(510,1129,l),
(507,1139,l),
(500,1304,l),
(497,1315,l),
(497,1429,l),
(493,1450,l),
(493,1517,l),
(490,1527,o),
(490,1544,qs),
(490,1652,l),
(500,1666,o),
(524,1676,q),
(547,1676,o),
(571,1656,q),
(571,1554,l),
(574,1534,o),
(574,1507,qs),
(584,1213,l),
(588,1203,l),
(588,1156,l),
(591,1132,l),
(594,1112,l),
(594,1071,l),
(598,1065,l),
(598,1041,l),
(1034,1038,l),
(1030,1088,o),
(1010,1169,q),
(1010,1183,o),
(1003,1203,q),
(1000,1217,ls),
(996,1247,o),
(980,1294,qs),
(966,1335,l),
(963,1348,l),
(959,1362,l),
(939,1416,l),
(936,1433,o),
(915,1470,o),
(909,1497,q),
(888,1538,l),
(878,1551,o),
(871,1571,q),
(858,1592,l),
(844,1605,o),
(828,1629,qs),
(821,1639,l),
(784,1676,l),
(746,1700,l),
(736,1703,o),
(719,1713,q),
(682,1723,l),
(581,1727,l)
);
},
{
closed = 1;
nodes = (
(88,811,o),
(189,615,q),
(203,602,o),
(216,575,q),
(253,538,l),
(314,514,l),
(436,490,o),
(497,619,q),
(507,669,ls),
(510,690,o),
(510,717,q),
(513,727,l),
(513,767,ls),
(513,781,o),
(517,801,q),
(517,977,l),
(520,990,o),
(513,1011,q),
(95,1011,l)
);
},
{
closed = 1;
nodes = (
(1159,413,l),
(1165,392,o),
(1148,386,q),
(7,386,l),
(0,396,o),
(0,413,q)
);
},
{
closed = 1;
nodes = (
(1159,-401,l),
(1165,-422,o),
(1148,-428,q),
(7,-428,l),
(0,-418,o),
(0,-401,q)
);
}
);
width = 1140;
}
);
note = D;
unicode = 68;
},
{
glyphname = E;
layers = (
{
layerId = m01;
shapes = (
{
closed = 1;
nodes = (
(777,1852,l),
(790,1846,o),
(787,1825,q),
(10,1825,l),
(-3,1832,o),
(0,1852,q)
);
},
{
closed = 1;
nodes = (
(85,1812,o),
(109,1802,q),
(126,1788,o),
(142,1761,qs),
(156,1740,o),
(183,1717,q),
(237,1662,ls),
(251,1649,o),
(278,1632,q),
(285,1625,l),
(465,1839,o),
(692,1656,q),
(709,1622,l),
(716,1523,o),
(621,1472,qs),
(478,1401,o),
(322,1506,q),
(261,1272,o),
(536,1266,q),
(567,1252,l),
(584,1228,o),
(573,1194,q),
(563,1184,o),
(543,1174,q),
(305,1194,o),
(180,1038,q),
(780,1035,l),
(787,1025,o),
(787,1008,q),
(159,1008,l),
(115,936,o),
(112,841,q),
(78,672,o),
(221,540,q),
(244,529,l),
(254,526,o),
(271,516,qs),
(278,512,l),
(509,478,o),
(662,675,q),
(746,831,o),
(604,913,q),
(539,882,o),
(495,906,q),
(472,953,o),
(516,987,q),
(821,1035,o),
(777,716,q),
(706,472,o),
(427,424,q),
(214,370,o),
(71,563,q),
(-44,763,o),
(51,1004,q),
(27,1011,o),
(0,1008,q),
(0,1035,l),
(58,1035,l),
(146,1167,o),
(309,1242,q),
(173,1367,o),
(244,1554,q),
(200,1588,l),
(187,1598,l),
(68,1717,l),
(41,1754,l),
(34,1768,o),
(34,1788,q),
(44,1802,o),
(61,1812,q)
);
},
{
closed = 1;
nodes = (
(417,1646,o),
(370,1581,q),
(553,1452,o),
(624,1601,q),
(604,1625,l),
(553,1652,o),
(489,1656,q)
);
},
{
closed = 1;
nodes = (
(777,407,l),
(790,400,o),
(787,380,q),
(10,380,l),
(-3,387,o),
(0,407,q)
);
},
{
closed = 1;
nodes = (
(787,-410,l),
(784,-438,l),
(3,-438,l),
(0,-427,o),
(0,-410,q)
);
}
);
width = 790;
}
);
note = E;
unicode = 69;
},
{
glyphname = F;
layers = (
{
layerId = m01;
shapes = (
{
closed = 1;
nodes = (
(725,1852,l),
(728,1838,o),
(718,1825,q),
(0,1825,l),
(0,1852,l)
);
},
{
closed = 1;
nodes = (
(220,1821,o),
(247,1808,q),
(305,1743,o),
(396,1726,q),
(542,1679,o),
(661,1818,q),
(691,1818,o),
(715,1794,q),
(725,1777,o),
(725,1753,q),
(718,1737,o),
(701,1713,qs),
(691,1696,l),
(674,1655,l),
(674,1642,o),
(667,1621,q),
(667,1604,o),
(661,1584,q),
(654,1537,l),
(650,1499,l),
(647,1496,o),
(647,1486,qs),
(647,1462,l),
(644,1452,l),
(644,1401,l),
(640,1381,l),
(640,1330,l),
(694,1364,o),
(725,1303,q),
(715,1262,o),
(644,1239,q),
(644,1211,o),
(650,1171,qs),
(654,1140,l),
(657,1117,l),
(664,1079,l),
(667,1042,l),
(694,1032,o),
(725,1035,q),
(725,1012,l),
(701,1008,l),
(674,1005,l),
(684,974,o),
(691,930,q),
(694,927,o),
(694,917,q),
(701,900,o),
(705,876,qs),
(708,862,o),
(708,842,q),
(776,598,o),
(556,446,q),
(491,429,ls),
(471,425,o),
(447,422,qs),
(417,419,o),
(393,415,qs),
(210,395,o),
(78,544,q),
(-37,693,o),
(37,890,q),
(122,1012,o),
(230,947,q),
(241,917,o),
(230,883,q),
(196,862,o),
(152,873,q),
(136,866,l),
(17,642,o),
(264,514,q),
(589,442,o),
(623,737,q),
(610,869,l),
(606,893,o),
(600,917,q),
(600,940,o),
(589,971,q),
(586,988,o),
(586,1001,o),
(583,1008,q),
(7,1008,l),
(0,1018,o),
(0,1035,q),
(579,1035,l),
(583,1066,o),
(569,1103,q),
(569,1127,l),
(566,1144,l),
(562,1154,l),
(562,1188,l),
(559,1198,l),
(522,1178,ls),
(484,1161,o),
(464,1147,q),
(444,1150,o),
(420,1161,q),
(403,1184,o),
(417,1218,q),
(434,1225,o),
(457,1242,q),
(478,1249,l),
(501,1259,l),
(549,1289,l),
(549,1384,l),
(552,1391,l),
(552,1462,l),
(556,1486,o),
(559,1513,o),
(562,1526,q),
(562,1547,l),
(566,1554,l),
(569,1591,l),
(573,1628,l),
(576,1642,l),
(562,1642,o),
(545,1635,q),
(396,1601,o),
(251,1696,q),
(210,1557,o),
(61,1523,q),
(41,1533,o),
(24,1550,q),
(20,1571,o),
(24,1594,q),
(190,1638,o),
(169,1791,q),
(176,1808,o),
(193,1818,q)
);
},
{
closed = 1;
nodes = (
(725,409,l),
(728,395,o),
(718,381,q),
(0,381,l),
(0,409,l)
);
},
{
closed = 1;
nodes = (
(715,-408,l),
(728,-415,o),
(725,-435,q),
(10,-435,l),
(-3,-428,o),
(0,-408,q)
);
}
);
width = 720;
}
);
note = F;
unicode = 70;
},
{
glyphname = G;
layers = (
{
layerId = m01;
shapes = (
{
closed = 1;
nodes = (
(1094,1852,l),
(1101,1831,o),
(1084,1825,q),
(7,1825,l),
(0,1835,o),
(0,1852,q)
);
},
{
closed = 1;
nodes = (
(642,1818,ls),
(655,1818,o),
(676,1815,qs),
(719,1811,l),
(736,1808,l),
(777,1794,l),
(949,1686,o),
(801,1517,q),
(605,1332,o),
(307,1456,q),
(294,1426,o),
(267,1389,q),
(257,1372,l),
(247,1355,l),
(196,1250,l),
(193,1237,l),
(155,1139,l),
(155,1129,l),
(142,1078,l),
(135,1061,o),
(135,1038,q),
(1094,1038,l),
(1098,1000,o),
(1057,1011,q),
(132,1011,l),
(122,977,o),
(118,926,q),
(118,899,l),
(115,889,l),
(115,845,l),
(111,808,l),
(118,707,l),
(122,683,l),
(132,646,l),
(142,602,l),
(162,555,o),
(203,514,q),
(267,497,o),
(341,524,q),
(351,534,o),
(372,544,q),
(392,561,l),
(439,609,l),
(449,629,o),
(470,656,q),
(493,696,l),
(500,703,l),
(507,720,l),
(513,730,l),
(520,747,o),
(534,767,q),
(557,808,o),
(571,842,qs),
(578,859,o),
(594,882,q),
(598,892,l),
(645,990,l),
(665,1004,l),
(703,1007,o),
(743,994,q),
(746,946,o),
(730,886,qs),
(726,865,l),
(726,764,l),
(730,754,l),
(730,707,l),
(733,669,l),
(733,626,l),
(736,588,l),
(740,568,l),
(740,521,l),
(743,504,l),
(763,517,o),
(807,565,q),
(831,582,o),
(861,612,qs),
(882,632,l),
(898,653,l),
(966,720,l),
(980,740,o),
(1007,764,qs),
(1027,784,l),
(1067,761,o),
(1094,710,q),
(1000,609,l),
(983,585,o),
(949,555,qs),
(929,538,l),
(804,423,l),
(790,413,l),
(1094,413,l),
(1094,386,l),
(784,386,ls),
(763,386,o),
(746,372,q),
(753,281,l),
(757,268,o),
(757,224,o),
(763,190,q),
(763,153,l),
(767,132,l),
(770,68,l),
(774,55,l),
(770,-67,l),
(767,-77,l),
(760,-168,l),
(757,-188,o),
(746,-216,q),
(746,-229,o),
(736,-246,q),
(719,-286,l),
(594,-435,o),
(388,-381,q),
(331,-354,o),
(284,-300,q),
(243,-229,o),
(243,-138,q),
(304,95,o),
(510,278,q),
(618,386,l),
(7,386,l),
(0,396,o),
(0,413,q),
(645,413,l),
(652,420,l),
(652,561,l),
(649,599,l),
(649,680,l),
(645,703,l),
(642,740,l),
(642,767,l),
(466,338,o),
(142,440,q),
(111,463,o),
(81,501,qs),
(61,528,o),
(51,565,q),
(41,588,l),
(34,599,l),
(27,636,l),
(17,673,l),
(14,710,ls),
(14,724,o),
(10,744,q),
(7,835,ls),
(7,855,o),
(17,967,q),
(17,977,l),
(24,1004,o),
(0,1011,q),
(0,1038,l),
(24,1041,l),
(27,1078,l),
(34,1095,o),
(37,1119,q),
(41,1129,l),
(44,1156,o),
(57,1190,qs),
(74,1237,l),
(78,1244,l),
(84,1267,o),
(101,1301,qs),
(105,1311,o),
(115,1328,q),
(118,1338,l),
(142,1379,l),
(152,1396,l),
(155,1406,o),
(166,1423,q),
(169,1433,l),
(186,1456,l),
(193,1463,l),
(216,1500,l),
(122,1565,o),
(61,1683,q),
(-24,1831,o),
(111,1808,q),
(125,1784,l),
(128,1774,o),
(138,1757,q),
(142,1747,l),
(206,1636,l),
(230,1612,l),
(274,1585,l),
(297,1615,l),
(392,1760,o),
(574,1818,q)
);
},
{
closed = 1;
nodes = (
(456,1686,o),
(365,1538,q),
(520,1473,o),
(682,1544,q),
(888,1730,o),
(601,1727,q)
);
},
{
closed = 1;
nodes = (
(649,278,o),
(625,257,q),
(571,203,l),
(419,72,o),
(348,-141,q),
(345,-195,o),
(368,-253,q),
(382,-270,o),
(409,-286,q),
(537,-334,o),
(635,-243,q),
(665,-178,l),
(669,-158,l),
(672,-128,l),
(679,-107,o),
(679,-94,q),
(682,-80,l),
(682,-57,o),
(686,-20,q),
(682,48,l),
(679,75,l),
(676,149,l),
(672,173,l),
(672,207,l),
(669,227,l),
(672,257,o),
(662,298,q)
);
},
{
closed = 1;
nodes = (
(1094,-401,l),
(1101,-422,o),
(1084,-428,q),
(7,-428,l),
(0,-418,o),
(0,-401,q)
);
}
);
width = 1093;
}
);
note = G;
unicode = 71;
},
{
glyphname = H;
layers = (
{
layerId = m01;
shapes = (
{
closed = 1;
nodes = (
(1270,1852,l),
(1277,1831,o),
(1260,1825,q),
(10,1825,l),
(-3,1831,o),
(0,1852,q)
);
},
{
closed = 1;
nodes = (
(220,1821,o),
(243,1815,q),
(338,1693,o),
(503,1767,q),
(551,1815,l),
(557,1818,l),
(594,1808,o),
(622,1771,q),
(608,1727,o),
(571,1666,q),
(567,1656,l),
(561,1615,l),
(561,1605,l),
(554,1581,o),
(554,1548,q),
(551,1527,l),
(547,1514,l),
(547,1490,l),
(544,1473,l),
(540,1362,l),
(544,1325,l),
(547,1217,l),
(551,1213,o),
(551,1193,q),
(554,1163,o),
(557,1142,qs),
(561,1115,l),
(564,1112,o),
(564,1102,q),
(571,1082,l),
(594,1102,l),
(594,1146,o),
(571,1196,q),
(588,1277,o),
(649,1210,q),
(672,1156,l),
(730,1210,l),
(733,1247,l),
(736,1271,l),
(740,1277,l),
(743,1304,l),
(743,1342,o),
(757,1389,q),
(757,1399,l),
(770,1443,l),
(770,1456,o),
(777,1473,q),
(797,1551,l),
(801,1565,l),
(807,1585,ls),
(811,1595,o),
(821,1612,q),
(824,1632,o),
(838,1652,q),
(861,1706,l),
(875,1723,l),
(878,1733,l),
(895,1757,o),
(929,1784,q),
(936,1791,l),
(1003,1825,o),
(1088,1811,q),
(1125,1794,o),
(1162,1757,q),
(1186,1696,l),
(1152,1416,o),
(892,1223,qs),
(871,1207,l),
(858,1193,l),
(851,1190,l),
(834,1173,l),
(828,1169,l),
(817,1159,l),
(814,1095,l),
(811,1088,l),
(807,1061,l),
(807,1041,l),
(1270,1038,l),
(1270,1011,l),
(807,1011,l),
(794,960,o),
(794,879,qs),
(794,859,l),
(790,835,l),
(763,453,o),
(976,507,q),
(1175,578,o),
(1172,808,q),
(1118,980,o),
(1017,845,q),
(996,835,l),
(980,835,o),
(959,842,q),
(929,882,o),
(956,933,q),
(1034,1024,o),
(1152,977,qs),
(1246,936,o),
(1263,821,qs),
(1287,659,o),
(1165,524,qs),
(1050,399,o),
(865,423,q),
(804,440,o),
(750,494,q),
(665,680,o),
(703,930,q),
(699,957,o),
(706,1000,q),
(703,1011,l),
(682,1007,l),
(696,946,o),
(649,909,q),
(598,913,o),
(601,1000,q),
(588,984,l),
(733,389,o),
(243,423,q),
(220,433,o),
(186,457,qs),
(172,467,l),
(-47,703,o),
(382,967,qs),
(453,1011,l),
(0,1011,l),
(0,1038,l),
(453,1038,l),
(476,1041,l),
(466,1082,l),
(466,1102,l),
(463,1125,l),
(459,1139,l),
(459,1163,l),
(456,1200,l),
(446,1419,l),
(449,1446,o),
(449,1487,q),
(453,1504,o),
(453,1521,q),
(459,1558,l),
(459,1575,l),
(476,1652,l),
(480,1663,l),
(368,1629,o),
(260,1686,q),
(233,1605,o),
(159,1548,q),
(98,1480,o),
(61,1571,q),
(176,1659,o),
(169,1784,q),
(179,1801,o),
(199,1818,q)
);
},
{
closed = 1;
nodes = (
(996,1727,o),
(973,1703,q),
(919,1612,l),
(915,1592,o),
(902,1561,q),
(885,1504,l),
(882,1490,l),
(875,1467,ls),
(858,1423,o),
(848,1355,q),
(844,1345,l),
(841,1308,l),
(838,1301,l),
(1074,1453,o),
(1091,1706,q),
(1067,1733,o),
(1023,1737,q)
);
},
{
closed = 1;
nodes = (
(682,1048,l),
(723,1017,o),
(709,1078,q)
);
},
{
closed = 1;
nodes = (
(328,815,l),
(311,798,o),
(297,791,q),
(213,703,l),
(142,538,o),
(301,507,q),
(601,531,o),
(493,923,q)
);
},
{
closed = 1;
nodes = (
(1270,413,l),
(1277,392,o),
(1260,386,q),
(10,386,l),
(-3,392,o),
(0,413,q)
);
},
{
closed = 1;
nodes = (
(1270,-401,l),
(1277,-422,o),
(1260,-428,q),
(10,-428,l),
(-3,-422,o),
(0,-401,q)
);
}
);
width = 1250;
}
);
note = H;
unicode = 72;
},
{
glyphname = I;
layers = (
{
layerId = m01;
shapes = (
{
closed = 1;
nodes = (
(628,1852,l),
(628,1825,l),
(0,1825,l),
(0,1852,l)
);
},
{
closed = 1;
nodes = (
(222,1822,o),
(246,1815,q),
(342,1693,o),
(509,1768,q),
(557,1815,l),
(587,1815,l),
(611,1795,o),
(628,1758,q),
(601,1710,l),
(591,1697,o),
(584,1676,q),
(574,1656,l),
(567,1615,l),
(567,1605,l),
(560,1582,o),
(560,1548,q),
(557,1527,l),
(553,1514,l),
(553,1490,l),
(550,1473,l),
(550,1297,l),
(546,1284,o),
(553,1263,q),
(553,1226,l),
(557,1213,o),
(557,1192,q),
(567,1125,l),
(567,1114,l),
(574,1098,o),
(577,1070,qs),
(581,1050,l),
(584,1040,l),
(608,1040,o),
(628,1030,q),
(628,1010,l),
(608,1013,o),
(587,1003,q),
(598,979,o),
(601,942,q),
(604,925,l),
(611,881,l),
(615,844,l),
(618,833,l),
(622,796,l),
(625,769,l),
(628,756,l),
(628,715,l),
(608,617,l),
(604,597,l),
(598,573,l),
(478,363,o),
(171,431,q),
(-150,641,o),
(143,905,q),
(184,922,o),
(236,925,q),
(297,908,o),
(297,844,q),
(287,827,o),
(263,810,q),
(239,810,o),
(212,823,q),
(75,745,o),
(123,597,q),
(232,458,o),
(410,529,qs),
(458,546,o),
(495,593,q),
(550,786,o),
(485,1010,q),
(0,1010,l),
(0,1037,l),
(478,1037,l),
(478,1070,o),
(468,1121,q),
(464,1172,l),
(461,1186,l),
(461,1209,l),
(458,1223,l),
(454,1260,o),
(454,1284,q),
(451,1301,l),
(451,1429,l),
(454,1453,l),
(454,1487,o),
(461,1538,q),
(461,1551,l),
(468,1588,l),
(478,1629,l),
(478,1643,l),
(485,1663,l),
(372,1629,o),
(263,1687,q),
(229,1592,o),
(133,1521,q),
(96,1511,o),
(68,1551,qs),
(61,1561,o),
(65,1578,q),
(174,1649,o),
(171,1785,q),
(181,1802,o),
(201,1819,q)
);
},
{
closed = 1;
nodes = (
(628,410,l),
(628,383,l),
(0,383,l),
(0,410,l)
);
},
{
closed = 1;
nodes = (
(622,-406,l),
(628,-416,o),
(628,-433,q),
(7,-433,l),
(0,-422,o),
(0,-406,q)
);
}
);
width = 620;
}
);
note = I;
unicode = 73;
},
{
glyphname = J;
layers = (
{
layerId = m01;
shapes = (
{
closed = 1;
nodes = (
(951,1852,l),
(957,1832,o),
(941,1825,q),
(3,1825,l),
(0,1835,o),
(0,1852,q)
);
},
{
closed = 1;
nodes = (
(225,1821,o),
(249,1815,q),
(343,1694,o),
(507,1768,q),
(554,1815,l),
(561,1818,l),
(598,1808,o),
(625,1771,q),
(611,1727,o),
(574,1667,q),
(571,1657,l),
(564,1617,l),
(564,1606,l),
(558,1583,o),
(558,1549,q),
(554,1529,l),
(551,1516,l),
(551,1492,l),
(548,1475,l),
(548,1301,l),
(544,1287,o),
(551,1267,q),
(551,1193,l),
(554,1170,l),
(554,1136,l),
(558,1126,l),
(558,1086,l),
(561,1056,l),
(564,1042,l),
(951,1042,l),
(951,1015,l),
(568,1015,l),
(564,982,o),
(571,931,q),
(574,884,l),
(578,874,l),
(578,831,l),
(581,827,o),
(581,817,qs),
(584,743,l),
(588,723,l),
(588,679,l),
(591,659,l),
(595,575,l),
(601,552,o),
(601,522,q),
(605,501,l),
(689,585,l),
(709,602,l),
(739,632,l),
(756,653,l),
(826,723,l),
(833,726,o),
(840,736,qs),
(853,757,o),
(877,777,q),
(897,787,l),
(930,763,o),
(951,720,q),
(930,689,o),
(893,653,qs),
(823,579,l),
(816,569,l),
(769,522,l),
(762,518,l),
(655,421,l),
(951,421,l),
(951,394,l),
(628,394,l),
(605,370,o),
(615,327,qs),
(621,300,o),
(621,260,q),
(625,243,l),
(625,209,l),
(628,199,l),
(628,152,l),
(635,125,o),
(635,85,q),
(638,68,l),
(635,-86,l),
(631,-107,l),
(628,-117,l),
(628,-137,l),
(621,-164,l),
(621,-174,l),
(615,-191,o),
(611,-214,q),
(584,-275,l),
(537,-342,o),
(450,-369,qs),
(198,-446,o),
(114,-194,q),
(107,-150,o),
(118,-93,q),
(191,122,o),
(380,290,q),
(484,394,l),
(0,394,l),
(0,421,l),
(507,421,l),
(511,451,o),
(504,491,qs),
(500,518,l),
(494,669,l),
(490,686,l),
(484,824,l),
(480,834,l),
(470,992,l),
(467,1015,l),
(0,1015,l),
(0,1042,l),
(464,1042,l),
(467,1066,o),
(464,1103,q),
(457,1129,o),
(457,1170,q),
(453,1187,l),
(453,1287,l),
(450,1311,l),
(450,1432,l),
(453,1455,o),
(453,1486,q),
(457,1522,o),
(460,1546,qs),
(464,1573,o),
(467,1593,q),
(474,1617,l),
(484,1664,l),
(373,1630,o),
(265,1687,q),
(238,1606,o),
(165,1549,q),
(114,1486,o),
(71,1559,q),
(67,1570,o),
(71,1580,q),
(178,1653,o),
(178,1791,q),
(188,1805,o),
(205,1818,q)
);
},
{
closed = 1;
nodes = (
(504,276,o),
(470,246,q),
(359,135,l),
(326,92,l),
(322,85,l),
(312,75,l),
(269,4,l),
(259,-19,l),
(249,-33,o),
(242,-53,q),
(225,-90,l),
(175,-301,o),
(393,-285,q),
(420,-281,o),
(457,-268,qs),
(467,-264,l),
(494,-241,o),
(517,-204,q),
(534,-154,l),
(534,-144,l),
(541,-103,l),
(544,-93,o),
(544,-76,q),
(548,-66,l),
(544,34,l),
(541,55,o),
(541,81,qs),
(537,162,ls),
(537,186,o),
(531,219,q),
(527,273,l),
(521,300,l)
);
},
{
closed = 1;
nodes = (
(951,-389,l),
(957,-409,o),
(941,-416,q),
(3,-416,l),
(0,-406,o),
(0,-389,q)
);
}
);
width = 910;
}
);
note = J;
unicode = 74;
},
{
glyphname = K;
layers = (
{
layerId = m01;
shapes = (
{
closed = 1;
nodes = (
(1290,1852,l),
(1297,1828,o),
(1277,1825,q),
(10,1825,l),
(-3,1831,o),
(0,1852,q)
);
},
{
closed = 1;
nodes = (
(220,1821,o),
(243,1815,q),
(338,1693,o),
(503,1767,q),
(551,1815,l),
(557,1818,l),
(594,1808,o),
(622,1771,q),
(608,1727,o),
(571,1666,q),
(567,1649,o),
(561,1619,qs),
(557,1592,ls),
(554,1571,o),
(554,1544,q),
(551,1531,l),
(547,1517,l),
(547,1477,l),
(544,1460,l),
(544,1419,l),
(540,1402,l),
(544,1267,l),
(547,1250,l),
(551,1193,l),
(557,1163,o),
(557,1142,q),
(561,1132,l),
(628,1156,o),
(679,1223,q),
(713,1284,l),
(719,1311,o),
(740,1359,qs),
(750,1382,l),
(753,1396,l),
(767,1416,o),
(780,1450,q),
(841,1554,l),
(855,1571,o),
(878,1588,q),
(885,1595,ls),
(898,1608,o),
(922,1622,qs),
(936,1632,l),
(990,1652,l),
(1034,1656,o),
(1061,1646,q),
(1067,1632,o),
(1071,1608,q),
(1067,1592,o),
(1054,1571,q),
(1037,1558,l),
(973,1538,o),
(919,1477,q),
(902,1453,o),
(865,1379,qs),
(855,1359,l),
(844,1338,l),
(817,1261,l),
(797,1223,ls),
(787,1207,o),
(777,1180,q),
(770,1166,l),
(696,1095,l),
(733,1075,o),
(763,1038,q),
(1290,1038,l),
(1290,1011,l),
(797,1011,l),
(780,1007,l),
(804,973,o),
(817,923,q),
(821,916,l),
(834,876,l),
(841,821,l),
(844,815,l),
(844,791,l),
(848,778,l),
(848,740,l),
(851,727,l),
(858,622,l),
(858,592,o),
(871,551,q),
(871,541,l),
(892,517,o),
(926,504,q),
(949,507,o),
(980,517,q),
(996,531,o),
(1027,548,q),
(1071,592,l),
(1074,599,l),
(1091,612,o),
(1111,639,qs),
(1128,659,l),
(1182,724,ls),
(1202,751,o),
(1223,771,q),
(1311,730,o),
(1273,683,qs),
(1243,649,l),
(1240,642,l),
(1223,626,l),
(1216,615,l),
(1199,599,l),
(1196,592,o),
(1186,585,q),
(980,311,o),
(797,484,q),
(770,538,l),
(767,558,o),
(763,585,o),
(760,599,q),
(760,619,l),
(757,636,l),
(750,676,l),
(750,744,l),
(746,761,o),
(746,784,qs),
(746,798,l),
(736,821,o),
(733,859,q),
(726,876,o),
(723,899,q),
(706,953,l),
(676,1028,o),
(584,1011,q),
(594,943,l),
(598,936,l),
(598,923,l),
(601,896,l),
(659,696,o),
(554,511,q),
(500,457,o),
(415,433,qs),
(101,349,o),
(7,639,q),
(0,734,o),
(61,821,q),
(115,916,o),
(233,926,q),
(253,919,o),
(277,906,q),
(297,872,o),
(287,832,q),
(253,801,o),
(209,825,q),
(74,747,o),
(122,599,q),
(230,460,o),
(405,531,q),
(453,548,o),
(490,595,q),
(544,788,o),
(480,1011,q),
(0,1011,l),
(0,1038,l),
(473,1038,l),
(473,1071,o),
(463,1122,q),
(459,1173,l),
(456,1186,l),
(456,1210,l),
(453,1223,l),
(449,1261,o),
(449,1284,q),
(446,1301,l),
(446,1429,l),
(449,1453,l),
(449,1487,o),
(456,1538,q),
(456,1551,l),
(463,1588,l),
(473,1629,l),
(473,1642,l),
(480,1663,l),
(368,1629,o),
(260,1686,q),
(226,1592,o),
(132,1521,q),
(95,1511,o),
(68,1551,qs),
(61,1561,o),
(64,1578,q),
(172,1649,o),
(169,1784,q),
(179,1801,o),
(199,1818,q)
);
},
{
closed = 1;
nodes = (
(1290,413,l),
(1297,389,o),
(1277,386,q),
(10,386,l),
(-3,392,o),
(0,413,q)
);
},
{
closed = 1;
nodes = (
(1290,-401,l),
(1297,-425,o),
(1277,-428,q),
(10,-428,l),
(-3,-422,o),
(0,-401,q)
);
}
);
width = 1240;
}
);
note = K;
unicode = 75;
},
{
glyphname = L;
layers = (
{
layerId = m01;
shapes = (
{
closed = 1;
nodes = (
(963,1852,l),
(967,1839,o),
(957,1825,q),
(3,1825,l),
(0,1835,o),
(0,1852,q)
);
},
{
closed = 1;
nodes = (
(611,1835,o),
(658,1662,q),
(662,1530,o),
(539,1445,q),
(522,1442,o),
(499,1445,q),
(478,1462,o),
(475,1493,q),
(489,1523,l),
(662,1703,o),
(427,1734,q),
(305,1707,o),
(295,1571,q),
(258,1405,o),
(319,1225,q),
(329,1184,l),
(329,1174,l),
(336,1154,o),
(343,1116,q),
(349,1099,o),
(349,1093,q),
(356,1072,l),
(360,1059,l),
(370,1035,l),
(963,1035,l),
(963,1008,l),
(373,1008,l),
(377,977,l),
(377,953,o),
(383,919,q),
(383,899,o),
(390,875,q),
(390,855,l),
(394,831,l),
(397,818,l),
(397,791,l),
(400,777,ls),
(404,757,o),
(397,730,q),
(390,614,l),
(380,573,l),
(421,533,l),
(665,441,o),
(872,763,qs),
(882,777,o),
(899,780,q),
(936,757,o),
(963,706,q),
(940,675,l),
(930,665,o),
(913,641,qs),
(896,621,l),
(875,597,l),
(858,577,l),
(848,570,l),
(685,363,o),
(411,431,q),
(383,445,o),
(346,475,q),
(292,407,o),
(193,414,q),
(95,407,o),
(24,499,q),
(-24,604,o),
(81,668,q),
(187,726,o),
(295,658,q),
(299,692,o),
(299,743,qs),
(299,770,l),
(295,777,l),
(295,821,l),
(292,838,o),
(292,865,q),
(288,889,o),
(285,919,o),
(282,940,q),
(278,950,l),
(275,987,l),
(268,1008,l),
(0,1008,l),
(0,1035,l),
(217,1035,l),
(237,1031,o),
(265,1038,q),
(234,1147,l),
(234,1157,l),
(227,1171,o),
(224,1194,q),
(142,1425,o),
(224,1690,q),
(241,1727,o),
(278,1768,q),
(339,1808,o),
(424,1819,q)
);
},
{
closed = 1;
nodes = (
(102,611,o),
(98,553,q),
(190,421,o),
(282,550,q),
(241,607,o),
(166,618,q)
);
},
{
closed = 1;
nodes = (
(963,407,l),
(967,394,o),
(957,380,q),
(3,380,l),
(0,390,o),
(0,407,q)
);
},
{
closed = 1;
nodes = (
(963,-410,l),
(967,-424,o),
(957,-438,q),
(3,-438,l),
(0,-427,o),
(0,-410,q)
);
}
);
width = 900;
}
);
note = L;
unicode = 76;
},
{
glyphname = M;
layers = (
{
layerId = m01;
shapes = (
{
closed = 1;
nodes = (
(1815,1852,l),
(1822,1825,o),
(1795,1825,qs),
(14,1825,l),
(-3,1829,o),
(0,1852,q)
);
},
{
closed = 1;
nodes = (
(390,1835,o),
(465,1686,q),
(522,1795,o),
(655,1815,qs),
(811,1839,o),
(899,1686,q),
(950,1747,ls),
(963,1764,o),
(980,1774,q),
(987,1781,l),
(1255,1910,o),
(1350,1642,q),
(1357,1564,l),
(1360,1554,l),
(1360,1513,l),
(1364,1500,o),
(1364,1479,qs),
(1364,1286,l),
(1360,1272,l),
(1360,1116,l),
(1357,1103,o),
(1357,1065,o),
(1354,1045,q),
(1357,1035,l),
(1815,1035,l),
(1815,1008,l),
(1357,1008,l),
(1350,967,o),
(1357,906,q),
(1357,763,l),
(1364,716,l),
(1367,702,l),
(1371,665,o),
(1371,641,q),
(1374,621,ls),
(1384,570,o),
(1405,540,q),
(1408,529,l),
(1442,499,o),
(1493,499,q),
(1557,523,l),
(1595,550,o),
(1622,590,qs),
(1632,604,l),
(1642,618,l),
(1652,631,ls),
(1676,658,o),
(1706,706,q),
(1751,763,l),
(1785,746,o),
(1815,709,q),
(1801,675,o),
(1768,628,qs),
(1751,604,l),
(1740,587,l),
(1713,553,l),
(1703,540,l),
(1683,509,l),
(1676,502,ls),
(1652,478,o),
(1608,451,q),
(1601,448,l),
(1455,367,o),
(1323,475,q),
(1310,509,l),
(1296,533,o),
(1289,570,q),
(1282,590,l),
(1272,641,o),
(1272,672,q),
(1269,682,l),
(1269,706,l),
(1265,730,l),
(1259,1004,l),
(916,1008,l),
(902,1004,l),
(902,943,l),
(906,919,l),
(909,475,l),
(906,451,o),
(896,424,q),
(865,407,o),
(831,417,q),
(818,438,o),
(811,468,q),
(807,1004,l),
(495,1008,l),
(492,631,l),
(489,607,l),
(489,482,ls),
(489,455,o),
(475,421,q),
(438,404,o),
(397,428,q),
(383,475,o),
(394,533,q),
(394,618,ls),
(394,631,o),
(397,651,q),
(397,1004,l),
(0,1008,l),
(0,1035,l),
(394,1035,l),
(397,1059,o),
(397,1089,qs),
(394,1435,l),
(397,1462,o),
(390,1500,q),
(387,1557,l),
(383,1598,l),
(353,1690,l),
(244,1771,o),
(139,1666,q),
(105,1598,l),
(95,1578,l),
(85,1557,l),
(78,1551,l),
(31,1534,o),
(0,1581,q),
(27,1781,o),
(234,1819,q)
);
},
{
closed = 1;
nodes = (
(994,1693,o),
(926,1571,q),
(919,1544,o),
(916,1503,qs),
(913,1384,l),
(916,1364,o),
(909,1337,q),
(902,1038,l),
(926,1031,o),
(953,1035,q),
(1211,1035,l),
(1232,1031,o),
(1259,1038,q),
(1259,1099,l),
(1262,1123,l),
(1262,1211,l),
(1265,1225,l),
(1259,1595,l),
(1255,1612,ls),
(1245,1649,o),
(1218,1700,qs),
(1215,1707,l),
(1170,1747,o),
(1103,1740,q)
);
},
{
closed = 1;
nodes = (
(509,1696,o),
(492,1486,q),
(492,1038,l),
(522,1031,o),
(570,1035,q),
(790,1035,l),
(807,1038,l),
(807,1133,l),
(811,1140,l),
(811,1350,l),
(814,1371,l),
(814,1605,ls),
(814,1625,o),
(804,1646,q),
(797,1673,l),
(794,1679,l),
(753,1730,o),
(682,1737,q)
);
},
{
closed = 1;
nodes = (
(1815,407,l),
(1822,380,o),
(1795,380,qs),
(14,380,l),
(-3,383,o),
(0,407,q)
);
},
{
closed = 1;
nodes = (
(1815,-410,l),
(1822,-438,o),
(1795,-438,qs),
(14,-438,l),
(-3,-434,o),
(0,-410,q)
);
}
);
width = 1763;
}
);
note = M;
unicode = 77;
},
{
glyphname = N;
layers = (
{
layerId = m01;
shapes = (
{
closed = 1;
nodes = (
(1371,1852,l),
(1378,1828,o),
(1354,1825,q),
(10,1825,l),
(-3,1831,o),
(0,1852,q)
);
},
{
closed = 1;
nodes = (
(388,1835,o),
(463,1686,q),
(557,1845,o),
(757,1811,qs),
(811,1801,o),
(858,1757,q),
(868,1737,l),
(892,1703,o),
(905,1652,q),
(912,1642,l),
(912,1612,o),
(922,1558,q),
(922,1524,l),
(926,1487,l),
(926,1277,l),
(922,1274,o),
(922,1264,qs),
(922,1115,l),
(919,1102,o),
(919,1082,qs),
(919,1051,l),
(915,1044,o),
(919,1038,q),
(1371,1038,l),
(1371,1011,l),
(929,1011,ls),
(919,1011,o),
(915,997,q),
(929,619,l),
(932,592,o),
(949,561,q),
(953,551,l),
(976,524,o),
(1013,511,qs),
(1030,504,o),
(1054,504,q),
(1159,544,o),
(1219,653,q),
(1253,696,l),
(1267,720,l),
(1273,727,l),
(1300,788,o),
(1338,744,q),
(1358,730,o),
(1368,703,q),
(1354,690,o),
(1341,663,q),
(1317,626,l),
(1304,612,o),
(1287,582,o),
(1270,561,qs),
(1263,551,ls),
(1138,372,o),
(926,443,q),
(905,457,o),
(882,480,qs),
(875,487,l),
(858,517,o),
(848,565,q),
(838,588,o),
(834,622,qs),
(831,646,o),
(828,673,o),
(824,686,q),
(824,710,l),
(821,727,o),
(821,751,qs),
(821,788,l),
(817,808,l),
(817,916,l),
(821,923,l),
(821,1007,l),
(507,1011,l),
(490,1007,l),
(486,501,ls),
(486,474,o),
(480,436,q),
(456,413,o),
(412,420,q),
(399,430,o),
(388,450,q),
(388,511,l),
(392,534,l),
(392,632,l),
(395,646,l),
(395,1007,l),
(0,1011,l),
(0,1038,l),
(392,1038,l),
(399,1068,o),
(395,1115,q),
(395,1318,l),
(399,1338,o),
(392,1362,q),
(392,1490,l),
(388,1511,o),
(388,1538,q),
(385,1548,l),
(382,1568,o),
(382,1595,q),
(375,1615,o),
(368,1652,q),
(351,1690,l),
(328,1713,o),
(290,1720,qs),
(159,1747,o),
(78,1551,q),
(30,1534,o),
(0,1581,q),
(27,1781,o),
(233,1818,q)
);
},
{
closed = 1;
nodes = (
(642,1733,o),
(598,1710,qs),
(591,1706,l),
(547,1666,o),
(513,1595,qs),
(510,1588,l),
(503,1568,l),
(500,1544,ls),
(497,1521,o),
(493,1497,o),
(490,1487,q),
(490,1051,l),
(493,1038,l),
(804,1038,l),
(821,1041,l),
(821,1102,l),
(824,1125,l),
(824,1190,l),
(821,1203,o),
(828,1223,q),
(828,1467,l),
(831,1490,o),
(824,1521,q),
(821,1588,l),
(817,1619,o),
(801,1659,q),
(790,1676,o),
(787,1690,q),
(784,1696,l),
(743,1740,o),
(679,1737,qs)
);
},
{
closed = 1;
nodes = (
(1371,413,l),
(1378,389,o),
(1354,386,q),
(10,386,l),
(-3,392,o),
(0,413,q)
);
},
{
closed = 1;
nodes = (
(1371,-401,l),
(1378,-425,o),
(1354,-428,q),
(10,-428,l),
(-3,-422,o),
(0,-401,q)
);
}
);
width = 1320;
}
);
note = N;
unicode = 78;
},
{
glyphname = O;
layers = (
{
layerId = m01;
shapes = (
{
closed = 1;
nodes = (
(913,1852,l),
(919,1832,o),
(902,1825,q),
(3,1825,l),
(0,1835,o),
(0,1852,q)
);
},
{
closed = 1;
nodes = (
(641,1798,o),
(760,1605,q),
(804,1642,o),
(848,1710,q),
(875,1713,o),
(902,1693,q),
(913,1676,o),
(913,1656,q),
(896,1625,o),
(862,1581,qs),
(848,1564,l),
(831,1544,l),
(811,1527,l),
(804,1520,l),
(869,1269,ls),
(875,1245,o),
(879,1221,q),
(879,1208,l),
(882,1194,l),
(889,1038,l),
(906,1038,o),
(913,1025,q),
(913,1004,o),
(889,1004,q),
(889,933,l),
(885,906,l),
(885,872,l),
(882,858,l),
(875,455,o),
(451,414,q),
(397,414,l),
(24,543,o),
(10,967,qs),
(10,987,o),
(0,1008,q),
(10,1106,l),
(7,1405,o),
(193,1683,q),
(288,1774,l),
(349,1819,o),
(397,1785,q),
(417,1805,o),
(451,1819,q)
);
},
{
closed = 1;
nodes = (
(417,1669,o),
(458,1584,q),
(485,1557,o),
(529,1540,q),
(824,1496,o),
(526,1720,q),
(505,1730,o),
(478,1730,q)
);
},
{
closed = 1;
nodes = (
(316,1686,l),
(85,1428,o),
(102,1038,q),
(787,1035,l),
(790,1086,o),
(780,1167,q),
(780,1191,o),
(777,1201,q),
(777,1225,l),
(770,1249,o),
(770,1276,q),
(763,1296,l),
(757,1344,l),
(753,1354,ls),
(746,1371,o),
(743,1398,q),
(723,1469,l),
(716,1476,l),
(550,1394,o),
(394,1527,q),
(336,1612,o),
(370,1717,q)
);
},
{
closed = 1;
nodes = (
(92,811,o),
(227,641,q),
(312,502,o),
(485,512,q),
(835,560,o),
(787,1008,q),
(105,1008,l)
);
},
{
closed = 1;
nodes = (
(913,407,l),
(919,387,o),
(902,380,q),
(3,380,l),
(0,390,o),
(0,407,q)
);
},
{
closed = 1;
nodes = (
(913,-410,l),
(919,-431,o),
(902,-438,q),
(3,-438,l),
(0,-427,o),
(0,-410,q)
);
}
);
width = 895;
}
);
note = O;
unicode = 79;
},
{
glyphname = P;
layers = (
{
layerId = m01;
shapes = (
{
closed = 1;
nodes = (
(956,1852,l),
(963,1831,o),
(946,1825,q),
(3,1825,l),
(0,1835,o),
(0,1852,q)
);
},
{
closed = 1;
nodes = (
(605,1818,l),
(615,1815,l),
(655,1811,o),
(682,1811,q),
(713,1804,l),
(1003,1693,o),
(939,1386,q),
(885,1217,o),
(719,1217,q),
(588,1244,o),
(588,1389,q),
(601,1429,o),
(645,1429,q),
(665,1416,o),
(679,1392,q),
(662,1332,o),
(723,1304,q),
(811,1301,o),
(848,1396,q),
(926,1757,o),
(493,1737,q),
(436,1720,l),
(422,1717,l),
(395,1706,l),
(372,1696,l),
(331,1673,l),
(314,1663,l),
(274,1622,l),
(257,1608,o),
(243,1588,q),
(223,1565,l),
(98,1338,o),
(101,1041,q),
(551,1038,l),
(578,1034,o),
(618,1041,q),
(557,1139,l),
(547,1159,ls),
(530,1200,o),
(517,1223,q),
(490,1304,l),
(490,1315,l),
(476,1342,o),
(470,1382,q),
(463,1399,l),
(459,1423,l),
(453,1436,l),
(446,1473,l),
(442,1490,l),
(432,1517,o),
(429,1558,q),
(439,1581,o),
(466,1598,q),
(490,1595,o),
(510,1571,q),
(524,1504,l),
(524,1494,l),
(540,1443,l),
(544,1423,o),
(554,1399,q),
(557,1379,l),
(574,1328,l),
(584,1301,ls),
(588,1288,o),
(598,1267,qs),
(608,1244,l),
(611,1230,l),
(632,1193,l),
(635,1183,o),
(645,1166,qs),
(692,1095,l),
(726,1044,l),
(733,1038,l),
(956,1038,l),
(956,1011,l),
(770,1011,l),
(753,1007,l),
(922,730,o),
(723,514,q),
(713,511,o),
(696,497,q),
(659,477,l),
(649,474,l),
(490,396,o),
(301,433,q),
(172,504,o),
(88,646,q),
(14,784,o),
(17,963,q),
(14,977,o),
(14,997,q),
(0,1014,o),
(0,1038,q),
(7,1038,o),
(14,1044,q),
(-14,1362,o),
(179,1656,q),
(230,1706,l),
(250,1723,l),
(257,1730,l),
(280,1744,l),
(287,1750,l),
(426,1801,l),
(436,1801,l),
(470,1811,l),
(497,1811,l),
(520,1815,o),
(534,1818,q)
);
},
{
closed = 1;
nodes = (
(84,703,o),
(301,528,q),
(324,514,o),
(355,507,q),
(828,490,o),
(703,923,q),
(686,967,o),
(645,1011,q),
(101,1011,l),
(98,1007,l)
);
},
{
closed = 1;
nodes = (
(956,413,l),
(963,392,o),
(946,386,q),
(3,386,l),
(0,396,o),
(0,413,q)
);
},
{
closed = 1;
nodes = (
(956,-401,l),
(963,-422,o),
(946,-428,q),
(3,-428,l),
(0,-418,o),
(0,-401,q)
);
}
);
width = 820;
}
);
note = P;
unicode = 80;
},
{
glyphname = Q;
layers = (
{
layerId = m01;
shapes = (
{
closed = 1;
nodes = (
(885,1852,l),
(892,1831,o),
(875,1825,q),
(3,1825,l),
(0,1835,o),
(0,1852,q)
);
},
{
closed = 1;
nodes = (
(513,1818,o),
(578,1784,q),
(625,1750,ls),
(642,1737,o),
(652,1727,q),
(659,1723,l),
(689,1693,ls),
(703,1679,o),
(723,1652,qs),
(736,1636,l),
(753,1608,l),
(777,1578,l),
(939,1180,o),
(858,703,q),
(851,680,o),
(834,646,q),
(831,636,o),
(821,619,qs),
(811,605,l),
(797,585,l),
(794,578,l),
(713,487,o),
(584,440,q),
(591,426,o),
(605,413,q),
(885,413,l),
(885,386,l),
(638,386,l),
(632,382,l),
(784,298,o),
(689,254,q),
(588,274,o),
(513,386,q),
(0,386,l),
(0,413,l),
(476,413,l),
(500,416,l),
(290,409,o),
(145,588,q),
(10,740,o),
(10,970,q),
(-3,1028,o),
(10,1105,q),
(0,1463,o),
(253,1747,q),
(341,1828,o),
(395,1784,q),
(415,1804,o),
(449,1818,q)
);
},
{
closed = 1;
nodes = (
(463,1720,o),
(449,1703,q),
(439,1676,o),
(432,1636,q),
(426,1619,o),
(422,1602,q),
(412,1581,l),
(405,1571,l),
(388,1561,o),
(365,1561,q),
(345,1578,o),
(338,1612,q),
(341,1642,o),
(355,1683,qs),
(365,1710,l),
(324,1700,o),
(290,1663,q),
(81,1406,o),
(105,1038,q),
(757,1038,l),
(770,1034,o),
(787,1041,q),
(787,1071,o),
(780,1115,q),
(780,1152,l),
(777,1166,l),
(777,1196,o),
(770,1240,qs),
(767,1264,l),
(767,1274,l),
(760,1301,l),
(757,1321,l),
(753,1345,l),
(740,1379,o),
(733,1429,q),
(723,1453,l),
(719,1473,l),
(713,1487,o),
(709,1507,q),
(672,1581,l),
(669,1585,o),
(665,1595,q),
(598,1663,l),
(578,1679,l),
(530,1713,l),
(524,1720,l),
(500,1730,l),
(476,1730,l)
);
},
{
closed = 1;
nodes = (
(91,815,o),
(226,646,q),
(307,511,o),
(466,521,q),
(446,605,l),
(439,629,l),
(436,642,l),
(405,666,o),
(385,703,q),
(388,724,o),
(402,740,q),
(510,774,o),
(551,528,q),
(828,619,o),
(784,1011,q),
(105,1011,l)
);
},
{
closed = 1;
nodes = (
(885,-401,l),
(892,-422,o),
(875,-428,q),
(3,-428,l),
(0,-418,o),
(0,-401,q)
);
}
);
width = 870;
}
);
note = Q;
unicode = 81;
},
{
glyphname = R;
layers = (
{
layerId = m01;
shapes = (
{
closed = 1;
nodes = (
(1015,1836,o),
(1062,1839,q),
(1460,1839,l),
(1460,1812,l),
(13,1812,l),
(-3,1815,o),
(0,1839,q),
(975,1839,l),
(985,1842,l)
);
},
{
closed = 1;
nodes = (
(981,1836,o),
(1093,1563,q),
(1177,1276,o),
(850,1090,q),
(897,1073,o),
(934,1026,q),
(1457,1026,l),
(1460,1016,o),
(1460,999,q),
(954,999,l),
(958,986,o),
(968,966,qs),
(978,942,l),
(988,908,o),
(998,888,q),
(1005,864,l),
(1008,844,l),
(1012,824,l),
(1015,804,l),
(1019,726,l),
(1025,702,o),
(1022,665,q),
(1025,642,l),
(1029,598,l),
(1042,530,l),
(1076,490,o),
(1133,500,q),
(1197,537,l),
(1245,584,l),
(1251,595,l),
(1305,655,l),
(1312,665,o),
(1329,682,q),
(1339,696,o),
(1342,702,q),
(1363,726,l),
(1366,733,l),
(1379,750,o),
(1403,760,q),
(1437,736,o),
(1460,692,q),
(1396,618,l),
(1390,615,o),
(1386,605,q),
(1356,574,l),
(1150,301,o),
(968,473,q),
(941,527,l),
(938,547,o),
(934,574,o),
(931,588,q),
(931,608,l),
(928,625,l),
(921,665,l),
(921,733,l),
(917,750,o),
(917,773,qs),
(917,787,l),
(911,807,o),
(907,834,q),
(901,851,o),
(897,874,q),
(887,901,l),
(884,918,o),
(884,925,q),
(867,962,o),
(833,999,q),
(718,999,l),
(705,996,l),
(708,976,l),
(708,804,l),
(702,767,l),
(698,756,l),
(702,500,o),
(476,419,q),
(159,362,o),
(40,767,q),
(20,925,l),
(20,939,l),
(17,952,l),
(17,976,l),
(13,996,l),
(0,1006,l),
(-3,1023,o),
(13,1030,q),
(13,1259,o),
(159,1471,q),
(310,1741,o),
(648,1802,q)
);
},
{
closed = 1;
nodes = (
(250,1616,o),
(121,1188,q),
(101,1138,o),
(101,1057,qs),
(101,1033,l),
(105,1026,l),
(546,1026,l),
(577,1023,o),
(621,1030,q),
(607,1579,l),
(604,1600,l),
(604,1684,l),
(637,1704,o),
(675,1687,q),
(678,1586,l),
(681,1566,o),
(681,1539,q),
(685,1509,o),
(685,1488,q),
(681,1458,o),
(688,1414,q),
(688,1299,l),
(691,1256,l),
(695,1235,l),
(695,1144,l),
(702,1121,l),
(796,1161,l),
(867,1208,l),
(874,1212,l),
(901,1239,l),
(1039,1333,o),
(1015,1509,q),
(951,1748,o),
(637,1721,q)
);
},
{
closed = 1;
nodes = (
(74,696,o),
(314,507,q),
(337,493,o),
(374,490,q),
(384,487,l),
(489,493,o),
(570,581,q),
(648,770,o),
(617,999,q),
(101,999,l)
);
},
{
closed = 1;
nodes = (
(1460,402,l),
(1467,379,o),
(1447,375,q),
(10,375,l),
(-3,382,o),
(0,402,q)
);
},
{
closed = 1;
nodes = (
(1460,-411,l),
(1467,-434,o),
(1447,-438,q),
(10,-438,l),
(-3,-431,o),
(0,-411,q)
);
}
);
width = 1410;
}
);
note = R;
unicode = 82;
},
{
glyphname = S;
layers = (
{
layerId = m01;
shapes = (
{
closed = 1;
nodes = (
(750,1852,l),
(763,1845,o),
(760,1825,q),
(10,1825,l),
(-3,1831,o),
(0,1852,q)
);
},
{
closed = 1;
nodes = (
(632,1818,l),
(682,1804,l),
(689,1801,l),
(865,1642,o),
(544,1504,q),
(551,1480,o),
(554,1443,q),
(557,1426,l),
(561,1413,l),
(574,1369,l),
(578,1355,l),
(581,1342,l),
(584,1328,l),
(594,1298,o),
(618,1254,q),
(628,1230,l),
(632,1220,l),
(642,1207,o),
(665,1159,q),
(672,1136,o),
(689,1098,q),
(696,1075,ls),
(703,1058,o),
(716,1038,q),
(760,1038,l),
(767,1004,o),
(719,1007,q),
(898,338,o),
(307,430,q),
(260,453,o),
(213,501,q),
(81,656,o),
(209,835,qs),
(294,960,o),
(419,899,q),
(432,869,l),
(436,835,o),
(405,811,q),
(378,805,o),
(348,821,q),
(169,700,o),
(297,555,q),
(372,487,o),
(480,511,q),
(588,517,o),
(638,622,q),
(679,808,o),
(615,1011,q),
(7,1011,l),
(0,1021,o),
(0,1038,q),
(601,1038,l),
(611,1041,l),
(594,1065,o),
(584,1102,q),
(578,1112,l),
(567,1142,l),
(540,1193,l),
(530,1217,l),
(517,1247,l),
(510,1257,l),
(493,1308,l),
(490,1325,l),
(483,1352,l),
(480,1365,l),
(476,1379,l),
(470,1416,l),
(466,1429,l),
(463,1443,l),
(456,1480,l),
(453,1484,o),
(442,1487,q),
(172,1467,o),
(20,1740,q),
(14,1774,l),
(34,1811,o),
(78,1801,q),
(193,1571,o),
(432,1578,q),
(436,1781,o),
(608,1818,q)
);
},
{
closed = 1;
nodes = (
(578,1727,o),
(547,1696,q),
(510,1588,o),
(557,1605,qs),
(625,1629,o),
(665,1700,q),
(652,1733,o),
(611,1740,q)
);
},
{
closed = 1;
nodes = (
(760,413,l),
(763,399,o),
(753,386,q),
(0,386,l),
(0,413,l)
);
},
{
closed = 1;
nodes = (
(760,-401,l),
(763,-415,o),
(753,-428,q),
(0,-428,l),
(0,-401,l)
);
}
);
width = 740;
}
);
note = S;
unicode = 83;
},
{
glyphname = T;
layers = (
{
layerId = m01;
shapes = (
{
closed = 1;
nodes = (
(729,1852,l),
(726,1825,l),
(0,1825,l),
(0,1852,l)
);
},
{
closed = 1;
nodes = (
(207,1815,o),
(231,1802,q),
(343,1540,o),
(597,1815,q),
(634,1822,o),
(668,1798,q),
(679,1774,o),
(665,1747,q),
(648,1734,o),
(628,1707,q),
(600,1679,ls),
(590,1669,o),
(580,1652,q),
(567,1639,o),
(563,1632,qs),
(550,1612,l),
(533,1591,ls),
(509,1564,o),
(499,1547,q),
(492,1540,l),
(472,1510,l),
(465,1503,l),
(407,1418,l),
(400,1411,l),
(356,1333,l),
(346,1313,l),
(343,1303,l),
(326,1279,o),
(309,1242,q),
(275,1181,l),
(271,1171,l),
(258,1147,o),
(248,1116,q),
(217,1038,l),
(702,1035,l),
(716,1038,o),
(729,1028,q),
(733,1008,o),
(712,1008,qs),
(210,1008,l),
(68,658,o),
(282,512,q),
(377,472,o),
(478,526,qs),
(604,590,o),
(634,740,q),
(655,919,o),
(489,916,q),
(458,906,l),
(434,886,o),
(404,845,q),
(377,818,l),
(353,808,l),
(332,808,l),
(312,821,o),
(309,852,q),
(366,1001,o),
(529,998,qs),
(645,998,o),
(709,889,q),
(770,716,o),
(655,556,qs),
(546,414,o),
(349,414,qs),
(299,414,l),
(282,421,o),
(258,424,q),
(-44,597,o),
(102,1004,q),
(0,1008,l),
(0,1035,l),
(109,1035,l),
(122,1062,o),
(132,1099,q),
(146,1123,o),
(156,1157,q),
(166,1174,o),
(176,1201,q),
(183,1211,o),
(190,1228,q),
(377,1540,l),
(397,1557,o),
(411,1588,q),
(288,1571,o),
(204,1673,q),
(17,1401,o),
(10,1578,q),
(126,1652,o),
(146,1795,q),
(159,1808,o),
(183,1819,q)
);
},
{
closed = 1;
nodes = (
(729,407,l),
(726,380,l),
(0,380,l),
(0,407,l)
);
},
{
closed = 1;
nodes = (
(729,-410,l),
(726,-438,l),
(0,-438,l),
(0,-410,l)
);
}
);
width = 710;
}
);
note = T;
unicode = 84;
},
{
glyphname = U;
layers = (
{
layerId = m01;
shapes = (
{
closed = 1;
nodes = (
(1263,1852,l),
(1270,1831,o),
(1253,1825,q),
(10,1825,l),
(-3,1831,o),
(0,1852,q)
);
},
{
closed = 1;
nodes = (
(355,1818,o),
(409,1747,q),
(432,1693,l),
(436,1656,o),
(436,1632,q),
(439,1625,l),
(439,1592,l),
(442,1578,l),
(442,1490,l),
(439,1470,l),
(439,1433,l),
(436,1419,l),
(432,1308,l),
(429,1294,l),
(426,1257,o),
(426,1234,q),
(422,1227,l),
(422,1203,l),
(419,1196,l),
(419,1183,ls),
(419,1159,o),
(412,1125,q),
(412,1082,o),
(405,1044,q),
(409,1038,l),
(746,1038,l),
(753,1068,o),
(750,1115,q),
(753,1119,o),
(753,1129,qs),
(753,1220,l),
(757,1257,l),
(753,1284,o),
(760,1325,q),
(760,1399,l),
(763,1409,l),
(763,1484,l),
(767,1531,l),
(767,1554,o),
(770,1592,q),
(770,1659,l),
(774,1679,o),
(774,1706,qs),
(777,1757,l),
(774,1788,o),
(794,1815,q),
(841,1828,o),
(871,1781,q),
(871,1720,l),
(868,1696,l),
(868,1622,l),
(865,1602,l),
(865,1521,l),
(868,1500,o),
(861,1473,q),
(858,1291,l),
(855,1267,l),
(855,1166,l),
(851,1146,o),
(851,1119,qs),
(851,1075,ls),
(851,1061,o),
(848,1041,q),
(1263,1038,l),
(1263,1011,l),
(851,1011,l),
(848,909,l),
(844,889,o),
(844,862,qs),
(844,636,l),
(848,619,o),
(848,595,q),
(851,588,l),
(851,572,l),
(858,548,o),
(878,521,q),
(905,514,o),
(946,514,q),
(1091,599,o),
(1196,771,q),
(1230,754,o),
(1263,713,q),
(1179,538,o),
(990,430,q),
(966,430,o),
(939,420,q),
(919,420,ls),
(774,420,o),
(750,585,q),
(645,426,o),
(476,420,q),
(334,423,o),
(290,575,q),
(260,700,o),
(294,845,q),
(294,862,o),
(297,886,q),
(301,892,l),
(307,960,l),
(307,970,ls),
(307,987,o),
(314,1007,q),
(0,1011,l),
(0,1038,l),
(314,1038,l),
(324,1078,o),
(324,1139,q),
(328,1149,o),
(331,1186,o),
(331,1213,qs),
(331,1223,l),
(334,1247,o),
(334,1277,q),
(338,1284,l),
(338,1308,l),
(341,1321,l),
(345,1359,o),
(345,1399,o),
(348,1426,qs),
(351,1446,l),
(351,1575,l),
(348,1588,l),
(348,1622,l),
(345,1636,l),
(345,1663,l),
(328,1706,l),
(240,1767,o),
(132,1652,q),
(111,1625,o),
(95,1578,q),
(84,1554,l),
(74,1541,l),
(68,1534,l),
(20,1534,o),
(7,1585,q),
(54,1781,o),
(270,1818,q)
);
},
{
closed = 1;
nodes = (
(399,987,o),
(399,950,q),
(395,926,ls),
(392,896,o),
(388,876,q),
(388,845,o),
(382,818,q),
(382,798,l),
(378,788,l),
(378,761,l),
(375,747,l),
(372,690,l),
(375,653,l),
(378,646,l),
(378,626,l),
(402,555,l),
(422,524,o),
(453,507,q),
(625,494,o),
(740,730,q),
(743,751,l),
(743,801,l),
(746,808,l),
(746,953,l),
(750,970,l),
(750,1007,l),
(719,1014,o),
(672,1011,q),
(405,1011,l)
);
},
{
closed = 1;
nodes = (
(1263,413,l),
(1270,392,o),
(1253,386,q),
(10,386,l),
(-3,392,o),
(0,413,q)
);
},
{
closed = 1;
nodes = (
(1263,-401,l),
(1270,-422,o),
(1253,-428,q),
(10,-428,l),
(-3,-422,o),
(0,-401,q)
);
}
);
width = 1210;
}
);
note = U;
unicode = 85;
},
{
glyphname = V;
layers = (
{
layerId = m01;
shapes = (
{
closed = 1;
nodes = (
(1002,1849,l),
(1009,1826,o),
(989,1822,q),
(7,1822,l),
(0,1832,o),
(0,1849,q)
);
},
{
closed = 1;
nodes = (
(223,1819,o),
(300,1785,q),
(334,1758,o),
(361,1708,q),
(385,1637,l),
(395,1562,l),
(395,1549,l),
(398,1535,l),
(398,1508,l),
(402,1488,o),
(402,1461,qs),
(402,1367,l),
(398,1330,l),
(395,1306,l),
(395,1276,l),
(391,1262,o),
(391,1242,qs),
(391,1215,o),
(385,1174,q),
(385,1141,ls),
(385,1124,o),
(378,1104,q),
(378,1073,l),
(375,1053,l),
(378,1036,l),
(837,1036,l),
(860,1039,l),
(854,1080,l),
(854,1100,l),
(850,1124,l),
(847,1147,l),
(844,1168,l),
(837,1201,ls),
(833,1218,o),
(833,1225,q),
(827,1245,o),
(823,1272,q),
(817,1296,o),
(813,1313,o),
(813,1319,q),
(806,1336,o),
(800,1387,o),
(790,1421,qs),
(786,1434,l),
(763,1508,l),
(759,1522,l),
(756,1535,l),
(742,1559,o),
(736,1586,q),
(729,1596,l),
(722,1620,l),
(719,1623,o),
(715,1633,q),
(712,1637,o),
(705,1657,q),
(685,1694,l),
(682,1704,o),
(671,1721,qs),
(661,1738,l),
(648,1762,l),
(644,1788,l),
(668,1815,o),
(709,1815,q),
(719,1812,o),
(732,1799,q),
(766,1741,o),
(830,1701,q),
(887,1694,o),
(952,1714,q),
(965,1714,o),
(982,1708,q),
(1043,1596,o),
(823,1606,q),
(840,1552,l),
(844,1546,l),
(881,1431,ls),
(891,1404,o),
(898,1367,q),
(901,1357,ls),
(908,1340,o),
(911,1313,qs),
(914,1299,l),
(921,1279,o),
(925,1252,qs),
(931,1212,l),
(935,1198,l),
(938,1185,l),
(938,1158,o),
(945,1117,q),
(948,1073,o),
(955,1039,q),
(975,1036,o),
(1002,1036,q),
(1012,1006,o),
(958,1006,q),
(1022,648,o),
(779,466,q),
(665,405,o),
(523,419,q),
(283,425,o),
(267,692,q),
(256,763,o),
(263,803,q),
(263,820,o),
(267,844,q),
(267,874,l),
(270,891,o),
(270,915,q),
(273,938,ls),
(277,962,o),
(277,992,o),
(280,1006,q),
(250,1012,o),
(202,1009,q),
(0,1009,l),
(0,1036,l),
(280,1036,l),
(287,1066,o),
(287,1110,q),
(290,1120,l),
(290,1144,l),
(297,1185,o),
(297,1212,q),
(307,1316,l),
(307,1340,o),
(310,1370,q),
(331,1866,o),
(98,1684,q),
(88,1660,o),
(88,1627,q),
(74,1610,l),
(40,1593,o),
(10,1620,q),
(-7,1768,o),
(152,1815,q)
);
},
{
closed = 1;
nodes = (
(368,1002,l),
(364,965,o),
(364,942,q),
(361,935,l),
(361,874,l),
(358,854,o),
(358,827,qs),
(361,678,l),
(364,641,l),
(378,591,l),
(395,554,o),
(425,520,q),
(452,506,o),
(493,503,qs),
(941,459,o),
(860,1009,q),
(375,1009,l)
);
},
{
closed = 1;
nodes = (
(989,412,l),
(1005,408,o),
(1002,385,q),
(13,385,l),
(-3,388,o),
(0,412,q)
);
},
{
closed = 1;
nodes = (
(1002,-401,l),
(1009,-425,o),
(989,-428,q),
(7,-428,l),
(0,-418,o),
(0,-401,q)
);
}
);
width = 950;
}
);
note = V;
unicode = 86;
},
{
glyphname = W;
layers = (
{
layerId = m01;
shapes = (
{
closed = 1;
nodes = (
(1270,1852,l),
(1277,1831,o),
(1260,1825,q),
(10,1825,l),
(-3,1831,o),
(0,1852,q)
);
},
{
closed = 1;
nodes = (
(223,1821,o),
(301,1788,q),
(334,1760,o),
(361,1710,q),
(378,1659,l),
(382,1642,l),
(392,1605,l),
(392,1578,o),
(399,1538,q),
(399,1504,l),
(402,1484,o),
(402,1456,qs),
(402,1369,l),
(399,1355,l),
(395,1264,l),
(392,1257,l),
(385,1136,l),
(382,1132,o),
(382,1109,q),
(378,1105,o),
(378,1082,q),
(375,1068,l),
(375,1041,l),
(625,1038,l),
(645,1034,o),
(672,1041,q),
(672,1102,l),
(676,1125,l),
(676,1223,l),
(679,1237,l),
(679,1332,l),
(692,1345,ls),
(726,1379,o),
(767,1338,q),
(777,1304,o),
(774,1254,qs),
(774,1244,l),
(770,1207,l),
(770,1149,l),
(767,1136,o),
(767,1115,qs),
(767,1041,l),
(1115,1038,ls),
(1128,1038,o),
(1125,1051,q),
(1125,1078,o),
(1118,1119,q),
(1115,1129,l),
(1115,1152,l),
(1111,1163,o),
(1111,1180,q),
(1108,1193,l),
(1105,1210,l),
(1101,1227,l),
(1098,1240,l),
(1094,1254,l),
(1091,1267,l),
(1088,1281,ls),
(1084,1311,o),
(1078,1332,qs),
(1074,1345,l),
(1054,1440,l),
(1050,1453,o),
(1047,1460,qs),
(1040,1480,l),
(1037,1494,l),
(1034,1507,l),
(1030,1514,l),
(1027,1527,o),
(1017,1548,q),
(1013,1554,l),
(1007,1568,o),
(1003,1588,q),
(963,1676,ls),
(959,1686,o),
(942,1720,q),
(915,1764,l),
(912,1777,o),
(915,1798,q),
(946,1821,o),
(986,1815,q),
(1078,1659,o),
(1219,1717,q),
(1236,1717,o),
(1257,1703,q),
(1294,1595,o),
(1091,1608,q),
(1108,1554,l),
(1111,1548,l),
(1148,1433,l),
(1159,1406,o),
(1165,1369,q),
(1169,1359,ls),
(1175,1342,o),
(1179,1315,qs),
(1182,1301,l),
(1189,1281,o),
(1192,1254,qs),
(1199,1213,l),
(1202,1200,l),
(1206,1186,l),
(1206,1159,o),
(1213,1119,q),
(1216,1075,o),
(1223,1041,q),
(1243,1038,o),
(1270,1038,q),
(1280,1007,o),
(1226,1007,q),
(1284,686,o),
(1091,474,q),
(1040,440,l),
(1017,430,l),
(996,426,l),
(973,423,l),
(953,420,l),
(942,416,l),
(909,416,l),
(871,423,o),
(828,443,qs),
(770,470,o),
(726,528,q),
(706,484,o),
(662,447,q),
(622,426,l),
(172,345,o),
(280,1007,q),
(250,1014,o),
(203,1011,q),
(0,1011,l),
(0,1038,l),
(280,1038,l),
(287,1068,o),
(287,1112,q),
(290,1122,l),
(290,1146,l),
(297,1186,o),
(297,1213,q),
(307,1318,l),
(307,1342,o),
(311,1372,q),
(331,1869,o),
(98,1686,q),
(88,1663,o),
(88,1629,q),
(74,1612,l),
(41,1595,o),
(10,1622,q),
(-7,1771,o),
(152,1818,q)
);
},
{
closed = 1;
nodes = (
(277,416,o),
(601,514,q),
(638,551,o),
(655,612,q),
(662,686,l),
(662,720,l),
(665,730,l),
(665,788,l),
(669,811,o),
(669,842,qs),
(669,943,l),
(672,953,l),
(672,1007,l),
(642,1014,o),
(594,1011,q),
(375,1011,l)
);
},
{
closed = 1;
nodes = (
(760,977,o),
(763,926,qs),
(763,899,l),
(760,886,l),
(760,815,l),
(767,791,o),
(763,757,q),
(763,740,ls),
(763,717,o),
(770,686,q),
(770,659,l),
(784,609,l),
(794,588,l),
(814,565,o),
(851,534,q),
(865,528,ls),
(1003,457,o),
(1101,646,q),
(1105,663,o),
(1115,686,q),
(1128,730,l),
(1138,781,o),
(1138,821,qs),
(1138,919,l),
(1135,930,l),
(1135,967,o),
(1132,1007,q),
(1101,1014,o),
(1054,1011,q),
(767,1011,l)
);
},
{
closed = 1;
nodes = (
(1270,413,l),
(1277,392,o),
(1260,386,q),
(10,386,l),
(-3,392,o),
(0,413,q)
);
},
{
closed = 1;
nodes = (
(1270,-401,l),
(1277,-422,o),
(1260,-428,q),
(10,-428,l),
(-3,-422,o),
(0,-401,q)
);
}
);
width = 1220;
}
);
note = W;
unicode = 87;
},
{
glyphname = X;
layers = (
{
layerId = m01;
shapes = (
{
closed = 1;
nodes = (
(1088,1852,l),
(1094,1831,o),
(1078,1825,q),
(7,1825,l),
(0,1835,o),
(0,1852,q)
);
},
{
closed = 1;
nodes = (
(250,1821,o),
(304,1801,q),
(334,1777,l),
(372,1740,l),
(375,1733,l),
(388,1713,l),
(402,1683,ls),
(422,1642,o),
(432,1605,q),
(436,1595,l),
(436,1575,o),
(446,1551,q),
(446,1527,l),
(449,1517,l),
(453,1480,ls),
(456,1456,o),
(456,1429,q),
(459,1402,l),
(463,1389,o),
(463,1369,qs),
(463,1169,ls),
(463,1146,o),
(470,1115,q),
(466,1402,o),
(625,1679,q),
(655,1713,ls),
(676,1740,o),
(713,1771,qs),
(726,1781,l),
(774,1808,o),
(838,1815,q),
(844,1818,l),
(902,1821,o),
(969,1794,q),
(1020,1760,o),
(1054,1696,q),
(1064,1649,o),
(1054,1595,q),
(993,1477,l),
(980,1460,l),
(963,1433,l),
(939,1402,l),
(824,1291,l),
(814,1284,l),
(750,1223,l),
(740,1217,l),
(706,1183,l),
(686,1169,o),
(665,1146,q),
(635,1119,l),
(625,1112,l),
(588,1082,l),
(571,1065,l),
(561,1041,l),
(1084,1038,l),
(1088,1028,o),
(1088,1011,q),
(564,1011,l),
(557,865,l),
(561,855,l),
(551,666,o),
(686,521,q),
(736,501,l),
(780,504,l),
(1013,565,o),
(980,805,q),
(912,987,o),
(757,876,q),
(736,872,l),
(692,889,o),
(706,933,q),
(719,953,o),
(746,977,q),
(956,1068,o),
(1067,852,q),
(1128,683,o),
(996,534,qs),
(892,413,o),
(713,420,q),
(672,426,o),
(622,453,q),
(446,656,o),
(463,997,q),
(456,973,l),
(453,946,l),
(449,828,l),
(439,771,ls),
(436,757,o),
(436,737,q),
(429,720,o),
(429,693,q),
(422,676,l),
(422,666,l),
(412,636,l),
(409,615,o),
(399,588,qs),
(388,565,l),
(378,551,o),
(372,531,q),
(324,470,l),
(314,457,l),
(280,430,o),
(226,423,qs),
(37,392,o),
(0,595,q),
(-3,639,o),
(14,690,q),
(14,700,l),
(44,751,l),
(68,781,l),
(81,798,l),
(122,838,l),
(138,859,o),
(162,872,q),
(182,889,l),
(193,899,l),
(199,903,l),
(226,930,o),
(274,960,q),
(290,973,o),
(297,977,qs),
(338,1004,l),
(345,1011,l),
(0,1011,l),
(0,1038,l),
(372,1038,l),
(378,1061,o),
(375,1088,q),
(375,1352,ls),
(375,1365,o),
(372,1386,q),
(372,1409,o),
(368,1419,q),
(368,1463,l),
(365,1490,l),
(361,1504,l),
(361,1527,o),
(351,1554,q),
(351,1565,l),
(345,1588,l),
(345,1602,l),
(318,1663,l),
(290,1710,o),
(230,1737,q),
(155,1730,o),
(111,1659,q),
(78,1581,o),
(152,1517,q),
(152,1497,o),
(142,1473,q),
(101,1456,o),
(64,1490,qs),
(47,1504,o),
(27,1531,q),
(-34,1747,o),
(203,1818,q)
);
},
{
closed = 1;
nodes = (
(834,1733,o),
(797,1717,q),
(763,1690,l),
(757,1686,l),
(719,1649,l),
(594,1463,o),
(567,1207,q),
(564,1193,o),
(571,1176,q),
(578,1190,o),
(594,1200,q),
(649,1254,l),
(669,1271,l),
(679,1281,l),
(682,1288,o),
(692,1294,q),
(713,1315,l),
(723,1321,l),
(750,1348,l),
(770,1365,l),
(811,1406,l),
(834,1423,o),
(844,1440,qs),
(851,1450,o),
(868,1467,qs),
(882,1484,l),
(946,1581,l),
(949,1588,ls),
(993,1710,o),
(861,1737,q)
);
},
{
closed = 1;
nodes = (
(348,903,o),
(311,879,qs),
(297,869,l),
(267,848,l),
(250,832,o),
(220,811,q),
(118,710,l),
(111,700,l),
(34,548,o),
(182,494,q),
(206,497,o),
(236,511,q),
(378,666,o),
(368,923,q)
);
},
{
closed = 1;
nodes = (
(1088,413,l),
(1094,392,o),
(1078,386,q),
(7,386,l),
(0,396,o),
(0,413,q)
);
},
{
closed = 1;
nodes = (
(1088,-401,l),
(1094,-422,o),
(1078,-428,q),
(7,-428,l),
(0,-418,o),
(0,-401,q)
);
}
);
width = 1068;
}
);
note = X;
unicode = 88;
},
{
glyphname = Y;
layers = (
{
layerId = m01;
shapes = (
{
closed = 1;
nodes = (
(1213,1852,l),
(1219,1829,o),
(1199,1825,q),
(7,1825,l),
(0,1836,o),
(0,1852,q)
);
},
{
closed = 1;
nodes = (
(355,1819,o),
(409,1748,q),
(432,1694,l),
(436,1657,o),
(436,1633,q),
(439,1626,l),
(439,1592,l),
(442,1579,l),
(442,1491,l),
(439,1471,l),
(439,1434,l),
(436,1420,l),
(432,1309,l),
(429,1295,l),
(426,1258,o),
(426,1234,q),
(422,1228,l),
(422,1204,l),
(419,1197,l),
(419,1184,ls),
(419,1160,o),
(412,1126,q),
(412,1082,o),
(405,1045,q),
(409,1038,l),
(746,1038,l),
(753,1069,o),
(750,1116,q),
(753,1126,l),
(753,1228,l),
(757,1241,o),
(757,1261,qs),
(757,1309,l),
(760,1322,l),
(760,1393,l),
(763,1403,l),
(763,1437,ls),
(763,1478,o),
(767,1542,qs),
(767,1562,l),
(770,1589,o),
(770,1630,qs),
(770,1657,l),
(774,1704,o),
(777,1741,q),
(777,1792,l),
(797,1822,o),
(838,1819,q),
(844,1815,ls),
(865,1798,o),
(875,1748,o),
(868,1717,q),
(855,1170,l),
(848,1147,o),
(851,1119,q),
(851,1052,l),
(848,1042,l),
(878,1035,o),
(926,1038,q),
(1213,1038,l),
(1213,1011,l),
(912,1011,l),
(885,1015,o),
(848,1008,q),
(848,907,l),
(844,886,o),
(844,859,qs),
(848,640,l),
(851,613,l),
(858,515,l),
(861,505,l),
(963,599,ls),
(986,620,o),
(1017,657,q),
(1081,721,l),
(1094,741,o),
(1121,765,qs),
(1142,785,l),
(1162,772,o),
(1182,748,q),
(1209,721,l),
(1213,714,l),
(1182,680,l),
(1172,674,o),
(1162,657,q),
(1128,623,l),
(1121,620,o),
(1115,609,q),
(1101,589,o),
(1078,569,qs),
(1050,542,l),
(1044,539,l),
(1007,505,l),
(996,498,o),
(980,481,qs),
(919,424,l),
(905,414,l),
(1213,414,l),
(1213,387,l),
(888,387,l),
(868,380,l),
(865,356,o),
(868,299,q),
(871,292,l),
(871,248,l),
(875,238,l),
(875,197,l),
(878,194,o),
(878,184,qs),
(878,153,l),
(882,137,l),
(885,69,l),
(888,59,l),
(888,8,l),
(885,-22,l),
(888,-49,o),
(882,-80,q),
(875,-167,l),
(871,-188,o),
(861,-215,q),
(861,-228,o),
(851,-245,q),
(834,-286,l),
(787,-353,o),
(699,-380,qs),
(530,-438,o),
(399,-299,q),
(297,-97,o),
(493,137,qs),
(513,160,l),
(527,180,o),
(551,204,qs),
(733,387,l),
(10,387,l),
(-3,393,o),
(0,414,q),
(746,414,ls),
(757,414,o),
(767,420,q),
(760,518,l),
(757,528,l),
(753,572,l),
(750,586,l),
(618,376,o),
(392,437,q),
(361,451,o),
(334,481,q),
(236,663,o),
(301,890,q),
(304,913,o),
(304,944,q),
(307,951,l),
(307,974,l),
(311,988,l),
(311,1011,l),
(0,1011,l),
(0,1038,l),
(314,1038,l),
(321,1062,o),
(321,1092,q),
(324,1119,l),
(328,1163,l),
(331,1190,l),
(331,1231,l),
(338,1255,o),
(334,1282,q),
(338,1288,l),
(338,1302,ls),
(341,1336,o),
(345,1363,q),
(345,1400,o),
(351,1454,q),
(345,1657,l),
(341,1680,o),
(328,1707,q),
(311,1724,l),
(145,1731,o),
(84,1555,q),
(68,1535,l),
(-30,1552,o),
(34,1650,q),
(95,1795,o),
(270,1819,q)
);
},
{
closed = 1;
nodes = (
(399,988,o),
(399,951,q),
(395,927,ls),
(392,897,o),
(388,876,q),
(388,846,o),
(382,819,q),
(382,799,l),
(378,788,l),
(378,761,l),
(375,748,l),
(372,691,l),
(375,653,l),
(378,647,l),
(378,626,l),
(402,555,l),
(422,525,o),
(453,508,q),
(625,495,o),
(740,731,q),
(743,751,l),
(743,802,l),
(746,809,l),
(746,954,l),
(750,971,l),
(750,1008,l),
(719,1015,o),
(672,1011,q),
(405,1011,l)
);
},
{
closed = 1;
nodes = (
(763,278,o),
(740,258,q),
(628,147,l),
(611,133,o),
(601,116,q),
(584,96,l),
(574,86,l),
(564,62,o),
(540,35,q),
(530,15,l),
(520,1,o),
(500,-42,qs),
(490,-66,o),
(480,-83,qs),
(476,-90,l),
(412,-306,o),
(632,-296,qs),
(649,-296,o),
(672,-289,qs),
(709,-279,l),
(716,-276,l),
(743,-252,o),
(767,-215,q),
(811,-83,o),
(794,72,q),
(790,160,l),
(787,167,l),
(784,265,l),
(780,272,l),
(780,289,l),
(777,299,l)
);
},
{
closed = 1;
nodes = (
(1213,-401,l),
(1219,-424,o),
(1199,-428,q),
(7,-428,l),
(0,-417,o),
(0,-401,q)
);
}
);
width = 1149;
}
);
note = Y;
unicode = 89;
},
{
glyphname = Z;
layers = (
{
layerId = m01;
shapes = (
{
closed = 1;
nodes = (
(922,1852,l),
(929,1828,o),
(909,1825,q),
(3,1825,l),
(0,1835,o),
(0,1852,q)
);
},
{
closed = 1;
nodes = (
(284,1821,o),
(318,1811,q),
(355,1764,l),
(551,1639,o),
(719,1815,q),
(746,1821,o),
(777,1808,q),
(794,1791,o),
(801,1760,q),
(757,1696,l),
(753,1690,ls),
(736,1659,o),
(726,1612,q),
(716,1588,l),
(713,1575,l),
(692,1517,l),
(689,1504,l),
(662,1426,l),
(652,1396,l),
(649,1372,o),
(635,1338,q),
(594,1217,l),
(672,1190,l),
(679,1183,l),
(692,1082,o),
(571,1129,q),
(564,1122,l),
(537,1041,l),
(567,1034,o),
(615,1038,q),
(922,1038,l),
(929,1014,o),
(909,1011,q),
(594,1011,l),
(567,1014,o),
(527,1007,q),
(520,973,o),
(500,923,q),
(497,909,l),
(483,862,l),
(476,848,l),
(473,828,o),
(463,801,qs),
(456,784,l),
(453,767,l),
(402,609,l),
(497,477,o),
(655,521,q),
(787,609,o),
(855,774,q),
(878,761,o),
(902,734,qs),
(915,720,o),
(922,707,q),
(713,244,o),
(358,521,q),
(290,420,o),
(162,420,q),
(51,413,o),
(7,524,q),
(-7,605,o),
(54,680,q),
(179,771,o),
(321,680,q),
(338,734,l),
(341,740,l),
(348,764,l),
(351,778,l),
(378,859,l),
(385,872,l),
(395,906,l),
(402,930,l),
(405,943,l),
(419,977,l),
(429,1007,l),
(0,1011,l),
(0,1038,l),
(436,1038,l),
(446,1055,o),
(453,1082,qs),
(476,1152,l),
(459,1163,l),
(402,1186,o),
(365,1240,q),
(378,1267,o),
(405,1291,q),
(470,1261,l),
(490,1254,l),
(500,1247,l),
(520,1281,o),
(551,1386,q),
(557,1399,l),
(561,1413,l),
(571,1450,l),
(578,1463,l),
(588,1490,l),
(591,1511,l),
(618,1588,l),
(622,1612,o),
(632,1639,q),
(628,1646,l),
(466,1592,o),
(301,1693,q),
(260,1568,o),
(135,1524,q),
(105,1541,o),
(95,1578,q),
(115,1602,l),
(209,1663,o),
(226,1781,q),
(236,1798,o),
(253,1818,q)
);
},
{
closed = 1;
nodes = (
(88,632,o),
(95,541,q),
(108,517,l),
(230,467,o),
(294,592,q),
(247,636,o),
(176,653,q)
);
},
{
closed = 1;
nodes = (
(922,413,l),
(929,389,o),
(909,386,q),
(3,386,l),
(0,396,o),
(0,413,q)
);
},
{
closed = 1;
nodes = (
(922,-401,l),
(929,-425,o),
(909,-428,q),
(3,-428,l),
(0,-418,o),
(0,-401,q)
);
}
);
width = 870;
}
);
note = Z;
unicode = 90;
},
{
glyphname = bracketleft;
layers = (
{
layerId = m01;
shapes = (
{
closed = 1;
nodes = (
(360,1852,l),
(360,1825,l),
(0,1825,l),
(0,1852,l)
);
},
{
closed = 1;
nodes = (
(295,1768,l),
(319,1757,o),
(329,1747,q),
(332,1717,o),
(316,1686,q),
(122,1679,l),
(109,1676,l),
(109,1581,l),
(112,1574,l),
(112,1439,l),
(115,1415,l),
(115,1076,l),
(119,1065,o),
(119,1048,qs),
(119,1038,l),
(149,1031,o),
(197,1035,q),
(360,1035,l),
(360,1008,l),
(132,1008,l),
(119,1004,l),
(119,889,l),
(122,875,l),
(126,573,l),
(129,560,o),
(129,540,qs),
(129,482,l),
(132,465,o),
(132,441,q),
(136,434,l),
(136,411,l),
(166,404,o),
(214,407,q),
(360,407,l),
(360,380,l),
(153,380,l),
(136,377,l),
(136,48,l),
(132,31,l),
(126,-265,l),
(176,-275,o),
(258,-271,qs),
(316,-271,l),
(349,-288,o),
(349,-332,q),
(346,-343,o),
(332,-353,q),
(85,-356,l),
(64,-353,o),
(37,-343,q),
(27,-312,l),
(27,-231,l),
(31,-220,l),
(31,-153,l),
(34,-115,l),
(34,-51,l),
(37,-41,l),
(37,126,ls),
(37,153,o),
(41,193,q),
(41,367,l),
(27,380,o),
(0,383,q),
(0,407,l),
(31,397,o),
(37,424,q),
(34,540,l),
(27,563,o),
(31,601,q),
(27,757,l),
(24,780,l),
(24,940,l),
(20,950,l),
(20,998,l),
(14,1008,o),
(0,1011,q),
(-3,1035,o),
(20,1038,q),
(20,1099,l),
(24,1123,l),
(17,1622,l),
(14,1635,l),
(17,1662,o),
(10,1693,qs),
(0,1740,o),
(44,1768,q)
);
},
{
closed = 1;
nodes = (
(360,-410,l),
(360,-438,l),
(0,-438,l),
(0,-410,l)
);
}
);
width = 360;
}
);
note = bracketleft;
unicode = 91;
},
{
glyphname = backslash;
layers = (
{
layerId = m01;
shapes = (
{
closed = 1;
nodes = (
(651,1852,l),
(648,1825,l),
(0,1825,l),
(0,1852,l)
);
},
{
closed = 1;
nodes = (
(58,1530,o),
(81,1520,q),
(112,1466,l),
(122,1445,l),
(149,1391,l),
(153,1381,l),
(163,1367,o),
(173,1344,qs),
(193,1306,l),
(204,1289,l),
(248,1218,l),
(258,1201,l),
(261,1191,l),
(271,1181,o),
(278,1160,q),
(282,1157,o),
(292,1137,qs),
(312,1093,o),
(332,1062,q),
(339,1045,o),
(346,1035,q),
(651,1035,l),
(651,1008,l),
(407,1008,l),
(387,1011,o),
(360,1004,q),
(377,981,o),
(394,943,q),
(438,865,l),
(448,852,o),
(455,831,q),
(499,750,l),
(512,733,o),
(526,702,q),
(556,648,l),
(567,624,l),
(587,587,l),
(597,570,ls),
(607,550,o),
(611,540,q),
(624,523,o),
(634,495,q),
(645,475,l),
(648,448,o),
(628,421,q),
(597,411,o),
(563,424,q),
(550,441,o),
(539,468,q),
(533,478,l),
(522,502,l),
(516,512,l),
(502,546,l),
(485,573,o),
(465,621,q),
(404,733,ls),
(394,750,o),
(390,757,q),
(383,774,l),
(373,794,l),
(363,811,l),
(319,896,l),
(316,899,o),
(305,919,qs),
(278,974,l),
(275,984,l),
(261,1008,l),
(0,1008,l),
(0,1035,l),
(234,1035,l),
(248,1038,l),
(217,1089,l),
(214,1099,o),
(204,1116,qs),
(183,1154,l),
(180,1164,l),
(153,1211,ls),
(142,1232,o),
(122,1259,q),
(109,1286,l),
(98,1299,o),
(88,1320,q),
(85,1330,l),
(64,1371,l),
(61,1381,o),
(51,1398,q),
(47,1408,l),
(27,1445,l),
(17,1466,l),
(7,1486,l),
(7,1517,o),
(37,1530,q)
);
},
{
closed = 1;
nodes = (
(645,407,l),
(651,397,o),
(651,380,q),
(7,380,l),
(0,390,o),
(0,407,q)
);
},
{
closed = 1;
nodes = (
(651,-410,l),
(648,-438,l),
(0,-438,l),
(0,-410,l)
);
}
);
width = 647;
}
);
note = backslash;
unicode = 92;
},
{
glyphname = bracketright;
layers = (
{
layerId = m01;
shapes = (
{
closed = 1;
nodes = (
(356,1852,l),
(356,1825,l),
(0,1825,l),
(0,1852,l)
);
},
{
closed = 1;
nodes = (
(268,1771,l),
(282,1768,l),
(299,1764,l),
(322,1751,l),
(329,1713,l),
(329,1649,l),
(326,1642,l),
(326,1564,l),
(322,1547,o),
(322,1523,qs),
(322,1479,l),
(319,1459,l),
(319,1299,l),
(322,1272,o),
(316,1232,q),
(316,1048,l),
(329,1035,o),
(356,1031,q),
(356,1008,l),
(329,1014,o),
(319,994,q),
(322,886,l),
(326,869,l),
(329,651,l),
(332,635,o),
(332,607,qs),
(336,411,l),
(349,411,o),
(356,397,q),
(356,383,o),
(336,370,q),
(339,343,o),
(332,302,q),
(336,-125,l),
(339,-136,l),
(343,-315,l),
(336,-336,l),
(319,-349,l),
(312,-353,l),
(54,-353,l),
(41,-346,o),
(27,-326,q),
(24,-298,o),
(41,-271,q),
(234,-265,l),
(248,-261,l),
(248,-166,l),
(244,-159,l),
(244,-24,l),
(241,0,l),
(241,339,l),
(237,350,o),
(237,367,qs),
(237,377,l),
(214,383,o),
(187,380,q),
(0,380,l),
(0,400,ls),
(0,404,o),
(7,407,q),
(224,407,l),
(237,411,l),
(237,533,l),
(234,543,l),
(231,821,l),
(227,858,l),
(227,875,l),
(231,906,o),
(224,950,q),
(221,1004,l),
(0,1008,l),
(0,1035,l),
(204,1035,l),
(221,1038,l),
(221,1367,l),
(224,1384,l),
(224,1435,l),
(227,1459,o),
(227,1493,qs),
(227,1581,l),
(231,1605,o),
(231,1635,qs),
(231,1679,l),
(180,1693,o),
(98,1686,q),
(41,1686,l),
(-34,1734,o),
(41,1771,q)
);
},
{
closed = 1;
nodes = (
(356,-410,l),
(356,-438,l),
(0,-438,l),
(0,-410,l)
);
}
);
width = 360;
}
);
note = bracketright;
unicode = 93;
},
{
glyphname = asciicircum;
layers = (
{
layerId = m01;
shapes = (
{
closed = 1;
nodes = (
(649,1852,l),
(645,1825,l),
(0,1825,l),
(0,1852,l)
);
},
{
closed = 1;
nodes = (
(365,1575,o),
(395,1541,q),
(446,1490,ls),
(459,1477,o),
(483,1460,qs),
(500,1446,l),
(507,1443,l),
(520,1429,o),
(544,1416,qs),
(571,1399,l),
(622,1375,l),
(638,1359,l),
(649,1342,l),
(649,1332,l),
(638,1308,o),
(611,1294,q),
(598,1294,o),
(581,1301,q),
(513,1345,l),
(507,1348,l),
(486,1362,l),
(473,1372,l),
(449,1386,o),
(432,1402,q),
(388,1433,o),
(368,1456,qs),
(334,1490,l),
(321,1477,o),
(294,1456,qs),
(274,1443,l),
(250,1426,l),
(236,1416,l),
(230,1409,l),
(216,1402,o),
(196,1386,qs),
(172,1369,l),
(159,1359,l),
(125,1342,l),
(111,1332,o),
(68,1308,o),
(34,1301,q),
(17,1311,o),
(0,1332,q),
(0,1355,o),
(17,1375,q),
(47,1389,l),
(57,1396,l),
(84,1406,o),
(118,1429,qs),
(172,1467,l),
(179,1473,l),
(199,1484,o),
(226,1504,qs),
(243,1517,l),
(260,1531,l),
(267,1538,l),
(321,1581,l),
(334,1592,l)
);
},
{
closed = 1;
nodes = (
(649,1038,l),
(645,1011,l),
(0,1011,l),
(0,1038,l)
);
},
{
closed = 1;
nodes = (
(642,413,l),
(649,403,o),
(649,386,q),
(7,386,l),
(0,396,o),
(0,413,q)
);
},
{
closed = 1;
nodes = (
(649,-401,l),
(645,-428,l),
(0,-428,l),
(0,-401,l)
);
}
);
width = 650;
}
);
note = asciicircum;
unicode = 94;
},
{
glyphname = underscore;
layers = (
{
layerId = m01;
shapes = (
{
closed = 1;
nodes = (
(578,1852,l),
(584,1842,o),
(584,1825,q),
(7,1825,l),
(0,1835,o),
(0,1852,q)
);
},
{
closed = 1;
nodes = (
(584,1038,l),
(584,1011,l),
(0,1011,l),
(0,1038,l)
);
},
{
closed = 1;
nodes = (
(578,413,l),
(584,403,o),
(584,386,q),
(7,386,l),
(0,396,o),
(0,413,q)
);
},
{
closed = 1;
nodes = (
(547,-276,o),
(581,-310,q),
(588,-340,o),
(564,-364,q),
(534,-371,o),
(486,-371,qs),
(466,-371,l),
(456,-374,l),
(243,-374,l),
(216,-378,l),
(98,-378,l),
(74,-381,o),
(44,-374,q),
(17,-371,l),
(0,-347,o),
(3,-317,q),
(17,-300,o),
(41,-293,q),
(226,-293,l),
(243,-290,l),
(392,-290,l),
(402,-286,l),
(486,-286,l),
(503,-283,ls)
);
},
{
closed = 1;
nodes = (
(584,-401,l),
(584,-428,l),
(0,-428,l),
(0,-401,l)
);
}
);
width = 580;
}
);
note = underscore;
unicode = 95;
},
{
glyphname = grave;
layers = (
{
layerId = m01;
shapes = (
{
closed = 1;
nodes = (
(267,1852,l),
(267,1825,l),
(0,1825,l),
(0,1852,l)
);
},
{
closed = 1;
nodes = (
(64,1592,o),
(118,1558,q),
(152,1541,l),
(206,1514,l),
(216,1511,o),
(250,1490,q),
(257,1484,l),
(263,1470,o),
(263,1450,q),
(253,1443,o),
(243,1443,q),
(145,1484,l),
(125,1487,o),
(101,1500,qs),
(78,1511,o),
(61,1521,q),
(20,1538,l),
(-10,1568,o),
(17,1602,q)
);
},
{
closed = 1;
nodes = (
(267,1038,l),
(267,1011,l),
(0,1011,l),
(0,1038,l)
);
},
{
closed = 1;
nodes = (
(267,413,l),
(267,386,l),
(0,386,l),
(0,413,l)
);
},
{
closed = 1;
nodes = (
(267,-401,l),
(267,-428,l),
(0,-428,l),
(0,-401,l)
);
}
);
width = 270;
}
);
note = grave;
unicode = 96;
},
{
glyphname = a;
layers = (
{
layerId = m01;
shapes = (
{
closed = 1;
nodes = (
(1011,1852,l),
(1018,1832,o),
(1001,1825,q),
(7,1825,l),
(0,1835,o),
(0,1852,q)
);
},
{
closed = 1;
nodes = (
(1011,1035,l),
(1018,1014,o),
(1001,1008,q),
(7,1008,l),
(0,1018,o),
(0,1035,q)
);
},
{
closed = 1;
nodes = (
(411,1008,o),
(495,943,q),
(509,1011,o),
(573,970,q),
(573,909,l),
(570,886,l),
(570,763,l),
(567,750,l),
(567,655,l),
(563,648,l),
(563,577,l),
(567,546,o),
(590,516,q),
(631,499,o),
(682,506,q),
(712,519,l),
(733,533,l),
(740,540,l),
(757,550,l),
(807,604,l),
(824,624,l),
(852,651,l),
(885,699,ls),
(892,709,o),
(909,726,qs),
(923,743,l),
(943,767,l),
(977,750,o),
(1011,709,q),
(997,675,o),
(960,638,qs),
(943,621,o),
(926,594,q),
(892,560,l),
(774,387,o),
(560,424,q),
(529,438,o),
(505,461,qs),
(499,468,l),
(482,509,l),
(360,363,o),
(187,441,qs),
(153,458,o),
(122,499,q),
(115,502,l),
(41,638,o),
(85,801,q),
(136,960,o),
(316,1001,q)
);
},
{
closed = 1;
nodes = (
(176,879,o),
(156,713,qs),
(129,523,o),
(305,502,q),
(472,546,o),
(478,733,q),
(509,916,o),
(322,916,q)
);
},
{
closed = 1;
nodes = (
(1011,407,l),
(1018,387,o),
(1001,380,q),
(7,380,l),
(0,390,o),
(0,407,q)
);
},
{
closed = 1;
nodes = (
(1011,-410,l),
(1018,-431,o),
(1001,-438,q),
(7,-438,l),
(0,-427,o),
(0,-410,q)
);
}
);
width = 890;
}
);
note = a;
unicode = 97;
},
{
glyphname = b;
layers = (
{
layerId = m01;
shapes = (
{
closed = 1;
nodes = (
(780,1852,l),
(777,1825,l),
(3,1825,l),
(0,1835,o),
(0,1852,q)
);
},
{
closed = 1;
nodes = (
(392,1811,l),
(422,1794,o),
(453,1764,q),
(463,1747,o),
(473,1720,qs),
(493,1663,l),
(497,1598,l),
(500,1581,l),
(500,1554,o),
(493,1514,qs),
(490,1484,l),
(486,1470,ls),
(480,1446,o),
(476,1413,q),
(470,1396,o),
(466,1372,q),
(453,1335,l),
(446,1311,ls),
(442,1294,o),
(432,1274,qs),
(331,1058,l),
(318,1038,l),
(780,1038,l),
(780,1011,l),
(307,1011,l),
(297,1000,o),
(274,963,o),
(260,936,q),
(230,889,ls),
(223,876,o),
(206,859,q),
(199,848,l),
(203,680,l),
(199,653,o),
(209,612,q),
(213,568,l),
(230,524,l),
(257,497,o),
(297,490,q),
(324,490,o),
(351,507,q),
(486,707,o),
(358,946,q),
(361,963,o),
(375,980,q),
(405,994,o),
(439,980,q),
(527,767,o),
(713,784,q),
(780,717,l),
(780,707,l),
(642,663,o),
(510,744,q),
(520,575,o),
(399,440,q),
(314,403,o),
(213,433,q),
(169,470,l),
(159,484,l),
(108,602,o),
(118,757,q),
(115,764,l),
(91,734,o),
(54,710,q),
(3,761,l),
(10,774,o),
(24,784,q),
(91,852,l),
(101,859,o),
(111,876,qs),
(118,886,l),
(118,1007,l),
(95,1014,o),
(68,1011,q),
(0,1011,l),
(0,1038,l),
(108,1038,l),
(122,1041,l),
(125,1061,l),
(125,1102,l),
(128,1136,o),
(135,1176,o),
(135,1203,q),
(138,1227,l),
(142,1264,l),
(145,1288,l),
(149,1304,l),
(149,1332,l),
(159,1392,l),
(162,1423,l),
(169,1440,o),
(169,1467,q),
(172,1487,l),
(176,1507,ls),
(182,1534,o),
(186,1571,q),
(196,1598,o),
(203,1636,q),
(209,1656,l),
(213,1659,o),
(216,1679,q),
(247,1744,ls),
(274,1794,o),
(331,1815,q)
);
},
{
closed = 1;
nodes = (
(331,1710,o),
(311,1676,q),
(301,1652,l),
(290,1625,l),
(277,1575,l),
(277,1565,l),
(270,1541,l),
(267,1511,o),
(260,1490,q),
(257,1470,l),
(253,1443,l),
(250,1429,l),
(247,1413,l),
(247,1396,o),
(243,1389,q),
(243,1375,l),
(236,1355,o),
(233,1328,qs),
(220,1213,l),
(216,1176,l),
(209,1149,o),
(209,1109,q),
(206,1098,l),
(206,1048,l),
(209,1038,l),
(223,1044,l),
(243,1082,l),
(247,1092,l),
(405,1321,o),
(415,1629,q),
(405,1659,l),
(405,1676,o),
(399,1696,q),
(385,1720,o),
(355,1730,q)
);
},
{
closed = 1;
nodes = (
(780,413,l),
(777,386,l),
(3,386,l),
(0,396,o),
(0,413,q)
);
},
{
closed = 1;
nodes = (
(780,-401,l),
(777,-428,l),
(3,-428,l),
(0,-418,o),
(0,-401,q)
);
}
);
width = 700;
}
);
note = b;
unicode = 98;
},
{
glyphname = c;
layers = (
{
layerId = m01;
shapes = (
{
closed = 1;
nodes = (
(676,1852,l),
(672,1825,l),
(0,1825,l),
(0,1852,l)
);
},
{
closed = 1;
nodes = (
(676,1038,l),
(672,1011,l),
(0,1011,l),
(0,1038,l)
);
},
{
closed = 1;
nodes = (
(375,1024,o),
(429,889,q),
(463,761,o),
(321,720,q),
(294,730,o),
(274,757,q),
(274,771,o),
(280,788,q),
(388,835,o),
(314,906,q),
(199,967,o),
(132,862,q),
(54,676,o),
(149,528,q),
(166,517,o),
(189,511,qs),
(220,504,o),
(260,504,q),
(459,558,o),
(615,767,q),
(638,751,o),
(669,717,qs),
(676,710,l),
(534,494,o),
(270,420,q),
(176,420,l),
(149,426,o),
(118,443,q),
(37,494,o),
(20,602,q),
(-7,676,o),
(14,764,q),
(24,960,o),
(213,1004,q)
);
},
{
closed = 1;
nodes = (
(676,413,l),
(672,386,l),
(0,386,l),
(0,413,l)
);
},
{
closed = 1;
nodes = (
(676,-401,l),
(672,-428,l),
(0,-428,l),
(0,-401,l)
);
}
);
width = 620;
}
);
note = c;
unicode = 99;
},
{
glyphname = d;
layers = (
{
layerId = m01;
shapes = (
{
closed = 1;
nodes = (
(1007,1852,l),
(1013,1831,o),
(996,1825,q),
(7,1825,l),
(0,1835,o),
(0,1852,q)
);
},
{
closed = 1;
nodes = (
(567,1815,l),
(584,1804,o),
(594,1784,q),
(598,1757,o),
(591,1720,q),
(588,1534,l),
(591,1507,o),
(584,1467,q),
(584,1355,l),
(581,1345,l),
(581,1234,l),
(578,1223,l),
(574,1041,l),
(1007,1038,l),
(1007,1011,l),
(578,1011,l),
(571,984,o),
(571,940,qs),
(571,903,l),
(567,892,l),
(564,656,l),
(561,642,o),
(561,622,q),
(567,544,l),
(689,430,o),
(868,686,q),
(939,771,l),
(980,751,o),
(1007,703,q),
(723,295,o),
(497,474,q),
(480,514,l),
(378,392,o),
(209,433,q),
(81,497,o),
(71,656,q),
(54,764,o),
(111,869,q),
(270,1095,o),
(493,946,q),
(497,973,o),
(490,1011,q),
(0,1011,l),
(0,1038,l),
(476,1038,l),
(497,1041,l),
(497,1142,l),
(500,1152,o),
(500,1169,qs),
(500,1261,ls),
(500,1277,o),
(503,1301,q),
(503,1426,l),
(507,1450,o),
(507,1480,qs),
(507,1558,l),
(510,1568,l),
(510,1703,l),
(513,1710,l),
(513,1771,ls),
(513,1798,o),
(540,1815,q)
);
},
{
closed = 1;
nodes = (
(176,882,o),
(155,717,qs),
(128,528,o),
(304,507,q),
(470,551,o),
(476,737,q),
(507,919,o),
(321,919,q)
);
},
{
closed = 1;
nodes = (
(1007,413,l),
(1013,392,o),
(996,386,q),
(7,386,l),
(0,396,o),
(0,413,q)
);
},
{
closed = 1;
nodes = (
(1007,-401,l),
(1013,-422,o),
(996,-428,q),
(7,-428,l),
(0,-418,o),
(0,-401,q)
);
}
);
width = 950;
}
);
note = d;
unicode = 100;
},
{
glyphname = e;
layers = (
{
layerId = m01;
shapes = (
{
closed = 1;
nodes = (
(611,1852,l),
(618,1842,o),
(618,1825,q),
(7,1825,l),
(0,1835,o),
(0,1852,q)
);
},
{
closed = 1;
nodes = (
(348,1095,o),
(422,1038,q),
(618,1038,l),
(618,1011,l),
(439,1011,l),
(442,990,l),
(446,967,l),
(449,946,l),
(392,737,o),
(159,707,q),
(152,609,o),
(213,514,q),
(402,457,o),
(554,767,q),
(588,751,o),
(618,713,q),
(611,696,o),
(598,680,q),
(561,619,l),
(551,605,l),
(524,575,l),
(439,426,o),
(257,420,q),
(71,426,o),
(78,703,q),
(34,730,o),
(0,781,q),
(37,778,o),
(81,794,q),
(84,906,o),
(155,1007,q),
(125,1014,o),
(78,1011,q),
(0,1011,l),
(0,1038,l),
(176,1038,l),
(209,1071,o),
(263,1088,q)
);
},
{
closed = 1;
nodes = (
(179,946,o),
(169,818,qs),
(162,754,o),
(304,848,q),
(341,886,o),
(365,946,q),
(358,1021,o),
(274,1011,q)
);
},
{
closed = 1;
nodes = (
(618,413,l),
(615,386,l),
(0,386,l),
(0,413,l)
);
},
{
closed = 1;
nodes = (
(611,-401,l),
(618,-411,o),
(618,-428,q),
(7,-428,l),
(0,-418,o),
(0,-401,q)
);
}
);
width = 560;
}
);
note = e;
unicode = 101;
},
{
glyphname = f;
layers = (
{
layerId = m01;
shapes = (
{
closed = 1;
nodes = (
(543,1852,l),
(543,1825,l),
(0,1825,l),
(0,1852,l)
);
},
{
closed = 1;
nodes = (
(366,1822,o),
(407,1808,q),
(455,1774,o),
(485,1713,q),
(499,1662,l),
(502,1571,l),
(489,1496,ls),
(485,1479,o),
(475,1442,q),
(475,1428,o),
(468,1408,q),
(465,1394,l),
(448,1350,l),
(448,1340,l),
(441,1330,l),
(438,1313,o),
(421,1269,q),
(414,1259,l),
(394,1204,l),
(383,1181,l),
(380,1177,o),
(377,1167,q),
(360,1137,l),
(356,1123,l),
(339,1096,l),
(329,1069,o),
(309,1035,q),
(543,1035,l),
(543,1008,l),
(295,1008,l),
(254,960,o),
(254,892,qs),
(258,801,l),
(261,794,l),
(356,746,o),
(475,780,q),
(543,713,l),
(543,702,l),
(414,658,o),
(265,692,q),
(258,662,o),
(261,614,qs),
(265,411,l),
(295,404,o),
(343,407,q),
(543,407,l),
(543,380,l),
(282,380,l),
(265,377,l),
(265,248,l),
(268,234,o),
(268,214,qs),
(268,37,l),
(265,14,o),
(271,-17,q),
(271,-129,l),
(275,-156,l),
(275,-346,ls),
(275,-373,o),
(258,-400,q),
(207,-417,o),
(183,-366,q),
(183,-217,l),
(180,-203,o),
(180,-183,qs),
(180,292,l),
(176,329,l),
(176,377,l),
(146,383,o),
(98,380,q),
(0,380,l),
(-10,417,o),
(61,407,q),
(173,407,l),
(176,434,o),
(176,475,qs),
(176,567,l),
(173,573,l),
(173,736,l),
(142,770,l),
(129,746,o),
(112,730,qs),
(88,706,l),
(47,726,o),
(20,770,q),
(51,791,o),
(81,828,qs),
(95,845,l),
(71,923,l),
(68,947,l),
(109,994,o),
(156,947,q),
(173,974,o),
(166,1008,q),
(0,1008,l),
(0,1035,l),
(163,1035,l),
(170,1038,l),
(170,1099,l),
(166,1123,l),
(166,1259,l),
(173,1289,o),
(170,1388,q),
(173,1408,l),
(173,1466,l),
(170,1489,o),
(176,1520,q),
(176,1551,l),
(183,1618,l),
(187,1639,l),
(197,1676,l),
(197,1690,l),
(217,1744,l),
(231,1768,l),
(234,1778,l),
(271,1812,o),
(329,1822,q)
);
},
{
closed = 1;
nodes = (
(292,1710,o),
(275,1656,q),
(275,1642,o),
(268,1625,q),
(265,1588,l),
(265,1567,l),
(261,1554,l),
(261,1517,l),
(258,1479,l),
(258,1428,l),
(254,1408,l),
(254,1347,l),
(251,1323,l),
(251,1140,l),
(254,1126,l),
(271,1150,o),
(285,1188,q),
(292,1198,l),
(299,1215,l),
(302,1218,o),
(305,1228,q),
(316,1245,l),
(400,1500,ls),
(407,1520,o),
(407,1547,q),
(414,1567,o),
(417,1601,q),
(421,1612,l),
(417,1662,o),
(390,1717,q),
(363,1744,o),
(326,1740,q)
);
},
{
closed = 1;
nodes = (
(543,-410,l),
(543,-438,l),
(0,-438,l),
(0,-410,l)
);
}
);
width = 460;
}
);
note = f;
unicode = 102;
},
{
glyphname = g;
layers = (
{
layerId = m01;
shapes = (
{
closed = 1;
nodes = (
(945,1852,l),
(952,1832,o),
(935,1825,q),
(3,1825,l),
(0,1835,o),
(0,1852,q)
);
},
{
closed = 1;
nodes = (
(945,1044,l),
(952,1024,o),
(935,1017,q),
(3,1017,l),
(0,1027,o),
(0,1044,q)
);
},
{
closed = 1;
nodes = (
(362,1024,o),
(456,947,q),
(462,1031,o),
(539,980,q),
(550,940,o),
(546,880,qs),
(546,853,l),
(543,830,l),
(539,696,l),
(536,686,l),
(536,578,l),
(533,572,l),
(529,441,l),
(533,424,l),
(590,454,o),
(640,521,q),
(761,652,l),
(774,672,o),
(801,699,qs),
(878,779,l),
(911,763,o),
(945,722,q),
(932,699,o),
(905,676,q),
(901,669,l),
(875,642,l),
(858,622,l),
(848,612,ls),
(831,595,o),
(808,562,q),
(771,521,l),
(767,515,l),
(680,424,l),
(945,424,l),
(945,397,l),
(650,397,l),
(613,364,l),
(593,351,o),
(570,327,qs),
(556,314,o),
(533,297,q),
(523,287,l),
(523,223,l),
(519,216,l),
(519,186,l),
(516,166,o),
(516,139,q),
(513,126,o),
(513,106,qs),
(513,79,l),
(509,42,l),
(506,29,l),
(506,-31,l),
(503,-55,l),
(503,-65,l),
(496,-88,o),
(496,-119,q),
(493,-135,l),
(479,-199,l),
(472,-222,o),
(456,-253,qs),
(446,-276,l),
(422,-310,o),
(379,-346,qs),
(372,-353,l),
(198,-434,o),
(87,-266,q),
(30,-68,o),
(198,93,q),
(265,170,l),
(268,176,l),
(369,277,l),
(409,307,l),
(426,327,o),
(432,354,qs),
(436,374,o),
(429,397,q),
(0,397,l),
(0,424,l),
(121,424,l),
(134,428,l),
(-27,518,o),
(17,736,q),
(37,950,o),
(258,1011,q)
);
},
{
closed = 1;
nodes = (
(70,863,o),
(104,595,q),
(151,407,o),
(328,535,q),
(405,612,o),
(429,736,q),
(452,917,o),
(278,920,q)
);
},
{
closed = 1;
nodes = (
(399,461,o),
(325,424,q),
(429,424,l),
(446,471,o),
(436,525,q)
);
},
{
closed = 1;
nodes = (
(409,183,o),
(385,166,qs),
(369,153,o),
(348,126,q),
(285,59,l),
(268,36,o),
(251,19,o),
(235,-5,q),
(218,-21,l),
(204,-38,l),
(194,-62,o),
(171,-98,q),
(168,-105,ls),
(111,-273,o),
(268,-289,q),
(318,-283,o),
(362,-239,q),
(382,-189,l),
(389,-162,ls),
(399,-129,o),
(399,-109,q),
(402,-88,o),
(405,-62,o),
(409,-48,q),
(409,-8,l),
(412,-1,l),
(412,32,l),
(416,52,l),
(416,93,l),
(419,139,l),
(422,149,l),
(422,173,l),
(426,190,l),
(422,203,l)
);
},
{
closed = 1;
nodes = (
(945,-383,l),
(952,-403,o),
(935,-410,q),
(3,-410,l),
(0,-400,o),
(0,-383,q)
);
}
);
width = 890;
}
);
note = g;
unicode = 103;
},
{
glyphname = h;
layers = (
{
layerId = m01;
shapes = (
{
closed = 1;
nodes = (
(1062,1852,l),
(1069,1832,o),
(1052,1825,q),
(7,1825,l),
(0,1835,o),
(0,1852,q)
);
},
{
closed = 1;
nodes = (
(478,1822,o),
(546,1808,q),
(597,1781,o),
(628,1724,q),
(641,1679,o),
(641,1618,q),
(634,1595,o),
(631,1561,qs),
(628,1540,l),
(600,1466,l),
(590,1442,l),
(587,1428,l),
(580,1408,l),
(567,1384,l),
(563,1374,o),
(553,1357,q),
(550,1347,o),
(539,1330,q),
(536,1320,o),
(526,1303,qs),
(499,1255,l),
(482,1225,ls),
(458,1184,o),
(438,1157,qs),
(427,1140,l),
(421,1137,o),
(411,1120,qs),
(377,1069,l),
(363,1052,l),
(353,1038,l),
(1052,1035,l),
(1065,1028,o),
(1062,1008,q),
(332,1008,l),
(278,964,o),
(285,892,q),
(455,1076,o),
(628,957,q),
(651,926,o),
(662,882,q),
(665,808,l),
(662,770,l),
(658,746,l),
(655,702,l),
(648,665,l),
(648,607,l),
(651,563,ls),
(655,526,o),
(692,506,q),
(818,516,o),
(896,641,q),
(923,675,l),
(933,689,l),
(947,713,l),
(960,726,o),
(970,746,q),
(984,763,o),
(987,770,q),
(997,780,l),
(1035,760,o),
(1062,713,q),
(1014,648,l),
(1008,641,l),
(879,411,o),
(672,417,q),
(624,421,o),
(584,461,q),
(546,556,o),
(560,675,q),
(560,702,o),
(563,743,q),
(567,760,l),
(567,770,l),
(570,797,o),
(570,838,qs),
(570,862,l),
(550,913,o),
(485,923,q),
(346,869,o),
(278,713,q),
(278,441,l),
(265,421,o),
(241,411,q),
(210,411,o),
(187,441,q),
(187,825,l),
(183,831,l),
(112,750,ls),
(95,730,o),
(64,706,q),
(31,723,o),
(3,760,q),
(17,784,o),
(44,808,q),
(112,879,ls),
(126,892,o),
(142,916,q),
(159,933,o),
(176,960,q),
(190,974,l),
(190,1004,l),
(159,1011,o),
(112,1008,q),
(0,1008,l),
(0,1035,l),
(173,1035,l),
(190,1038,l),
(193,1065,o),
(193,1106,qs),
(193,1140,l),
(197,1160,o),
(200,1211,o),
(200,1242,qs),
(200,1262,ls),
(204,1333,o),
(210,1384,q),
(210,1398,l),
(217,1418,o),
(217,1445,q),
(227,1503,l),
(231,1520,l),
(234,1537,ls),
(237,1571,o),
(258,1618,q),
(261,1632,l),
(268,1652,l),
(278,1666,o),
(288,1690,q),
(319,1740,l),
(336,1757,o),
(346,1774,q),
(377,1808,o),
(427,1819,q)
);
},
{
closed = 1;
nodes = (
(427,1730,o),
(404,1707,q),
(370,1635,l),
(356,1615,o),
(346,1584,q),
(343,1578,l),
(336,1557,l),
(332,1527,ls),
(329,1506,o),
(322,1479,o),
(319,1456,q),
(319,1439,o),
(312,1418,q),
(312,1401,l),
(305,1377,o),
(305,1340,q),
(302,1316,ls),
(299,1286,o),
(295,1266,q),
(288,1140,l),
(292,1103,l),
(309,1133,o),
(343,1177,qs),
(360,1201,l),
(363,1204,o),
(366,1215,q),
(383,1235,o),
(394,1262,q),
(438,1340,l),
(448,1367,l),
(461,1388,o),
(468,1405,q),
(472,1408,o),
(475,1418,q),
(509,1489,l),
(519,1523,l),
(526,1534,l),
(546,1615,l),
(550,1659,o),
(533,1710,q),
(502,1744,o),
(448,1740,q)
);
},
{
closed = 1;
nodes = (
(1062,407,l),
(1069,387,o),
(1052,380,q),
(7,380,l),
(0,390,o),
(0,407,q)
);
},
{
closed = 1;
nodes = (
(1062,-410,l),
(1069,-431,o),
(1052,-438,q),
(7,-438,l),
(0,-427,o),
(0,-410,q)
);
}
);
width = 1010;
}
);
note = h;
unicode = 104;
},
{
glyphname = i;
layers = (
{
layerId = m01;
shapes = (
{
closed = 1;
nodes = (
(581,1852,l),
(578,1825,l),
(0,1825,l),
(0,1852,l)
);
},
{
closed = 1;
nodes = (
(189,1223,o),
(216,1180,q),
(216,1129,o),
(162,1115,q),
(111,1129,o),
(105,1183,q),
(118,1210,o),
(145,1220,q)
);
},
{
closed = 1;
nodes = (
(581,1038,l),
(578,1011,l),
(0,1011,l),
(0,1038,l)
);
},
{
closed = 1;
nodes = (
(149,1007,o),
(176,990,q),
(186,967,o),
(182,896,q),
(186,869,o),
(179,838,q),
(176,595,ls),
(176,565,o),
(189,524,q),
(199,511,o),
(216,501,q),
(250,501,o),
(294,517,q),
(318,534,l),
(324,538,l),
(372,585,l),
(375,592,l),
(415,636,l),
(432,656,l),
(473,710,l),
(480,717,l),
(497,744,l),
(507,757,o),
(520,774,q),
(544,757,o),
(574,724,qs),
(581,717,l),
(581,707,l),
(571,690,o),
(551,666,qs),
(500,602,l),
(483,582,l),
(412,504,l),
(388,484,l),
(368,467,l),
(361,460,l),
(345,450,ls),
(334,443,o),
(318,440,q),
(294,430,o),
(280,423,q),
(213,420,l),
(206,423,l),
(159,423,o),
(122,463,q),
(98,528,l),
(95,740,l),
(30,673,o),
(0,767,q),
(101,845,o),
(101,984,q),
(108,994,o),
(125,1004,q)
);
},
{
closed = 1;
nodes = (
(581,413,l),
(578,386,l),
(0,386,l),
(0,413,l)
);
},
{
closed = 1;
nodes = (
(581,-401,l),
(578,-428,l),
(0,-428,l),
(0,-401,l)
);
}
);
width = 530;
}
);
note = i;
unicode = 105;
},
{
glyphname = j;
layers = (
{
layerId = m01;
shapes = (
{
closed = 1;
nodes = (
(770,1852,l),
(767,1825,l),
(0,1825,l),
(0,1852,l)
);
},
{
closed = 1;
nodes = (
(378,1196,o),
(399,1152,q),
(392,1122,l),
(318,1068,o),
(297,1163,q),
(307,1183,o),
(334,1196,q)
);
},
{
closed = 1;
nodes = (
(770,1038,l),
(767,1011,l),
(0,1011,l),
(0,1038,l)
);
},
{
closed = 1;
nodes = (
(351,1011,o),
(378,987,q),
(378,916,l),
(375,906,l),
(378,683,l),
(382,663,l),
(388,436,l),
(392,413,l),
(405,433,o),
(432,457,qs),
(439,463,ls),
(456,477,o),
(470,497,q),
(567,605,l),
(584,626,l),
(591,636,l),
(594,639,o),
(601,649,q),
(608,653,o),
(622,669,o),
(635,686,o),
(649,703,o),
(662,720,o),
(669,734,o),
(686,747,o),
(699,764,o),
(706,774,q),
(733,757,o),
(763,724,qs),
(770,717,l),
(746,673,o),
(703,629,q),
(679,599,ls),
(662,578,o),
(645,561,o),
(642,555,q),
(625,541,o),
(615,524,q),
(581,490,l),
(567,470,o),
(544,450,q),
(540,443,l),
(510,413,l),
(770,413,l),
(770,386,l),
(486,386,l),
(470,365,o),
(442,345,q),
(395,298,l),
(399,278,l),
(399,197,l),
(402,180,l),
(402,102,l),
(405,85,o),
(405,61,qs),
(405,-94,l),
(402,-131,l),
(399,-155,l),
(395,-172,ls),
(388,-212,o),
(368,-273,q),
(331,-364,o),
(226,-391,q),
(132,-408,o),
(74,-320,q),
(61,-303,o),
(51,-273,q),
(0,-3,o),
(209,227,q),
(257,288,l),
(270,301,l),
(277,311,o),
(307,342,q),
(307,382,l),
(284,389,o),
(257,386,q),
(0,386,l),
(0,413,l),
(250,413,l),
(274,409,o),
(304,416,q),
(301,639,l),
(297,656,o),
(297,683,q),
(294,703,o),
(294,730,qs),
(294,784,l),
(290,801,l),
(263,744,o),
(199,707,q),
(169,730,o),
(145,767,q),
(243,852,o),
(290,990,q),
(307,1004,l),
(314,1007,l)
);
},
{
closed = 1;
nodes = (
(84,-6,o),
(145,-270,q),
(159,-293,o),
(189,-313,q),
(220,-313,o),
(250,-297,q),
(287,-259,o),
(304,-202,q),
(314,-148,l),
(318,-74,l),
(321,-60,o),
(321,-40,qs),
(321,48,l),
(318,58,l),
(318,136,l),
(314,183,l),
(318,197,o),
(311,217,q)
);
},
{
closed = 1;
nodes = (
(770,-401,l),
(767,-428,l),
(0,-428,l),
(0,-401,l)
);
}
);
width = 541;
}
);
note = j;
unicode = 106;
},
{
glyphname = k;
layers = (
{
layerId = m01;
shapes = (
{
closed = 1;
nodes = (
(953,1852,l),
(959,1831,o),
(942,1825,q),
(3,1825,l),
(0,1835,o),
(0,1852,q)
);
},
{
closed = 1;
nodes = (
(375,1828,o),
(415,1717,q),
(419,1693,o),
(412,1656,q),
(412,1646,l),
(392,1578,l),
(392,1568,l),
(388,1565,o),
(388,1554,q),
(378,1534,o),
(375,1507,q),
(358,1456,ls),
(351,1436,o),
(345,1399,q),
(314,1304,ls),
(304,1277,o),
(301,1257,q),
(297,1244,ls),
(287,1213,o),
(284,1186,q),
(277,1166,ls),
(274,1156,o),
(277,1139,q),
(375,1338,o),
(584,1473,q),
(601,1477,o),
(625,1487,q),
(665,1497,l),
(706,1500,o),
(757,1487,q),
(777,1477,o),
(797,1456,q),
(807,1433,o),
(807,1402,q),
(804,1379,o),
(790,1352,qs),
(780,1328,l),
(777,1321,l),
(638,1139,o),
(405,1038,q),
(953,1038,l),
(959,1000,o),
(898,1011,q),
(503,1011,l),
(476,1014,o),
(436,1007,q),
(473,980,o),
(493,930,q),
(497,909,l),
(500,886,l),
(503,876,l),
(503,832,l),
(507,794,l),
(507,737,l),
(510,727,l),
(510,663,l),
(513,646,l),
(513,609,o),
(524,555,q),
(534,528,o),
(551,507,q),
(578,497,o),
(615,501,q),
(770,578,o),
(895,764,q),
(926,751,o),
(953,717,q),
(946,696,l),
(841,575,l),
(824,551,o),
(794,528,q),
(763,497,l),
(743,484,l),
(736,477,l),
(703,450,l),
(696,447,l),
(672,433,o),
(642,423,qs),
(632,420,l),
(571,413,o),
(503,440,q),
(483,457,o),
(459,490,q),
(456,497,l),
(439,551,l),
(432,568,o),
(432,592,q),
(429,602,l),
(426,710,l),
(422,724,l),
(422,825,l),
(419,838,l),
(419,865,l),
(412,886,o),
(409,913,q),
(365,977,o),
(287,997,q),
(274,967,o),
(274,930,q),
(267,906,o),
(267,872,q),
(260,842,o),
(260,798,qs),
(260,767,l),
(250,727,o),
(253,666,q),
(253,450,l),
(223,403,o),
(176,433,q),
(169,457,o),
(172,484,q),
(172,740,ls),
(172,761,o),
(176,788,q),
(176,825,l),
(179,842,l),
(179,879,l),
(182,913,l),
(179,936,l),
(162,865,o),
(108,788,q),
(95,761,o),
(78,740,q),
(71,727,o),
(54,707,q),
(30,720,o),
(7,747,qs),
(0,754,l),
(17,798,o),
(54,838,q),
(98,930,l),
(105,940,l),
(128,997,l),
(135,1007,l),
(0,1011,l),
(0,1038,l),
(135,1038,l),
(149,1041,l),
(166,1095,l),
(172,1109,l),
(176,1125,l),
(179,1139,l),
(189,1166,l),
(189,1315,l),
(186,1328,o),
(186,1348,qs),
(182,1514,l),
(179,1527,l),
(176,1703,l),
(179,1723,o),
(182,1747,q),
(206,1801,o),
(267,1818,q)
);
},
{
closed = 1;
nodes = (
(263,1733,o),
(253,1713,q),
(247,1679,o),
(253,1636,q),
(253,1592,l),
(257,1554,l),
(260,1544,l),
(260,1487,l),
(263,1473,l),
(260,1446,o),
(267,1409,q),
(270,1440,o),
(294,1517,q),
(297,1531,l),
(301,1544,l),
(304,1558,l),
(314,1592,l),
(318,1605,l),
(321,1622,l),
(331,1656,l),
(334,1679,o),
(334,1710,q),
(321,1744,o),
(277,1747,q)
);
},
{
closed = 1;
nodes = (
(655,1423,o),
(608,1402,q),
(480,1291,ls),
(463,1277,o),
(442,1250,qs),
(426,1230,o),
(405,1193,q),
(338,1095,l),
(554,1173,o),
(719,1375,q),
(726,1392,o),
(726,1413,q),
(709,1429,o),
(682,1429,q)
);
},
{
closed = 1;
nodes = (
(953,413,l),
(959,392,o),
(942,386,q),
(3,386,l),
(0,396,o),
(0,413,q)
);
},
{
closed = 1;
nodes = (
(953,-401,l),
(959,-422,o),
(942,-428,q),
(3,-428,l),
(0,-418,o),
(0,-401,q)
);
}
);
width = 910;
}
);
note = k;
unicode = 107;
},
{
glyphname = l;
layers = (
{
layerId = m01;
shapes = (
{
closed = 1;
nodes = (
(641,1852,l),
(641,1825,l),
(0,1825,l),
(0,1852,l)
);
},
{
closed = 1;
nodes = (
(390,1819,o),
(434,1798,q),
(451,1785,o),
(461,1768,qs),
(485,1730,l),
(489,1724,l),
(495,1683,l),
(499,1673,l),
(499,1652,l),
(502,1646,l),
(502,1622,l),
(505,1612,l),
(505,1581,o),
(499,1537,qs),
(495,1513,l),
(495,1503,l),
(485,1479,l),
(485,1456,o),
(475,1439,q),
(472,1405,o),
(451,1367,q),
(370,1164,ls),
(353,1126,o),
(336,1103,q),
(319,1065,l),
(316,1055,l),
(305,1038,l),
(336,1031,o),
(383,1035,q),
(641,1035,l),
(645,998,o),
(600,1008,q),
(288,1008,l),
(278,994,o),
(268,974,qs),
(244,930,l),
(241,926,o),
(237,916,q),
(224,896,l),
(214,882,l),
(214,696,l),
(217,679,o),
(217,655,qs),
(217,638,o),
(221,628,q),
(221,611,l),
(227,587,o),
(227,556,q),
(237,533,o),
(241,512,q),
(251,502,o),
(268,495,q),
(377,509,o),
(468,638,qs),
(522,709,l),
(533,723,l),
(553,746,l),
(563,763,o),
(573,770,q),
(614,750,o),
(641,706,q),
(621,685,o),
(597,651,q),
(590,645,l),
(495,495,o),
(316,414,q),
(265,414,ls),
(204,417,o),
(159,475,q),
(139,540,l),
(136,563,l),
(132,590,l),
(129,607,l),
(126,767,l),
(64,706,l),
(41,719,o),
(17,746,qs),
(3,760,l),
(17,787,o),
(44,814,q),
(61,835,l),
(75,848,l),
(88,872,o),
(105,889,qs),
(119,906,o),
(126,916,qs),
(136,933,l),
(136,960,o),
(139,1001,q),
(136,1008,l),
(0,1008,l),
(0,1035,l),
(129,1035,l),
(139,1038,l),
(139,1062,o),
(142,1137,q),
(146,1147,l),
(142,1188,o),
(149,1215,q),
(146,1245,o),
(153,1289,q),
(153,1303,l),
(149,1330,o),
(159,1371,q),
(159,1398,l),
(163,1405,l),
(163,1428,l),
(166,1439,o),
(166,1456,q),
(173,1472,o),
(173,1500,q),
(183,1537,l),
(187,1578,o),
(204,1639,qs),
(214,1676,ls),
(224,1707,o),
(248,1751,q),
(285,1798,o),
(349,1819,q)
);
},
{
closed = 1;
nodes = (
(322,1710,o),
(302,1673,qs),
(299,1666,ls),
(292,1646,o),
(288,1618,q),
(282,1601,o),
(278,1578,qs),
(268,1537,l),
(265,1513,l),
(265,1500,l),
(258,1483,o),
(258,1462,q),
(248,1388,l),
(244,1361,l),
(241,1337,l),
(237,1310,l),
(237,1262,l),
(234,1249,l),
(231,1147,l),
(227,1133,l),
(227,1096,l),
(231,1086,l),
(258,1140,l),
(268,1160,l),
(285,1198,l),
(295,1211,o),
(302,1232,q),
(373,1405,l),
(377,1425,o),
(390,1456,q),
(390,1466,l),
(400,1489,l),
(404,1503,l),
(411,1523,l),
(421,1578,l),
(417,1646,l),
(414,1656,l),
(414,1676,o),
(400,1720,q),
(380,1734,o),
(349,1734,q)
);
},
{
closed = 1;
nodes = (
(634,407,l),
(641,397,o),
(641,380,q),
(7,380,l),
(0,390,o),
(0,407,q)
);
},
{
closed = 1;
nodes = (
(641,-410,l),
(641,-438,l),
(0,-438,l),
(0,-410,l)
);
}
);
width = 580;
}
);
note = l;
unicode = 108;
},
{
glyphname = m;
layers = (
{
layerId = m01;
shapes = (
{
closed = 1;
nodes = (
(1331,1852,l),
(1338,1828,o),
(1317,1825,q),
(10,1825,l),
(-3,1831,o),
(0,1852,q)
);
},
{
closed = 1;
nodes = (
(1331,1038,l),
(1338,1014,o),
(1317,1011,q),
(10,1011,l),
(-3,1017,o),
(0,1038,q)
);
},
{
closed = 1;
nodes = (
(321,1007,o),
(372,933,q),
(426,1004,o),
(517,1004,qs),
(601,1007,o),
(649,923,q),
(784,1092,o),
(919,930,q),
(929,899,o),
(936,852,qs),
(939,835,l),
(939,700,l),
(936,676,l),
(936,592,l),
(939,585,l),
(939,565,ls),
(942,531,o),
(973,504,q),
(1000,504,o),
(1030,517,q),
(1121,595,l),
(1138,615,l),
(1192,683,l),
(1202,693,l),
(1206,700,l),
(1223,720,l),
(1236,734,l),
(1240,740,l),
(1257,761,l),
(1267,771,l),
(1300,754,o),
(1331,717,q),
(1331,710,l),
(1314,693,o),
(1290,659,q),
(1277,646,o),
(1273,639,q),
(1257,622,l),
(1148,433,o),
(973,420,q),
(926,420,o),
(885,460,q),
(855,534,l),
(855,555,o),
(848,578,q),
(848,653,ls),
(848,676,o),
(851,713,q),
(851,842,l),
(848,879,o),
(824,916,q),
(790,926,o),
(750,913,q),
(699,869,o),
(669,798,q),
(659,757,o),
(659,696,qs),
(659,524,l),
(662,490,o),
(655,440,q),
(608,396,o),
(571,453,q),
(571,815,l),
(581,903,o),
(510,926,q),
(348,879,o),
(378,575,qs),
(395,355,o),
(294,440,q),
(294,835,l),
(290,855,l),
(290,886,l),
(284,903,o),
(263,919,q),
(226,903,l),
(172,848,l),
(155,825,l),
(152,818,l),
(142,808,o),
(132,791,qs),
(111,761,o),
(91,740,q),
(74,717,o),
(57,710,q),
(27,734,o),
(3,771,q),
(54,828,l),
(61,838,l),
(74,852,o),
(95,879,qs),
(101,886,l),
(132,930,l),
(159,957,l),
(162,963,o),
(182,980,q),
(193,987,l),
(243,1004,l)
);
},
{
closed = 1;
nodes = (
(1331,413,l),
(1338,389,o),
(1317,386,q),
(10,386,l),
(-3,392,o),
(0,413,q)
);
},
{
closed = 1;
nodes = (
(1331,-401,l),
(1338,-425,o),
(1317,-428,q),
(10,-428,l),
(-3,-422,o),
(0,-401,q)
);
}
);
width = 1280;
}
);
note = m;
unicode = 109;
},
{
glyphname = n;
layers = (
{
layerId = m01;
shapes = (
{
closed = 1;
nodes = (
(1050,1852,l),
(1057,1831,o),
(1040,1825,q),
(7,1825,l),
(0,1835,o),
(0,1852,q)
);
},
{
closed = 1;
nodes = (
(1050,1038,l),
(1057,1017,o),
(1040,1011,q),
(7,1011,l),
(0,1021,o),
(0,1038,q)
);
},
{
closed = 1;
nodes = (
(321,1007,o),
(372,933,q),
(507,1088,o),
(635,930,q),
(645,899,o),
(652,852,qs),
(655,835,l),
(655,700,l),
(652,676,l),
(652,592,l),
(655,585,l),
(655,565,l),
(659,531,o),
(689,504,q),
(716,504,o),
(746,517,q),
(838,595,l),
(855,615,l),
(909,683,l),
(919,693,l),
(922,700,l),
(939,720,l),
(953,734,l),
(956,740,l),
(973,761,l),
(983,771,l),
(1017,754,o),
(1047,717,q),
(1047,710,l),
(1027,686,ls),
(1013,666,o),
(990,642,q),
(986,636,l),
(973,622,o),
(959,602,q),
(949,592,l),
(922,555,l),
(912,541,l),
(868,497,l),
(824,460,o),
(787,440,q),
(777,433,l),
(743,420,o),
(642,420,o),
(601,460,q),
(584,487,o),
(574,528,qs),
(567,555,l),
(564,686,l),
(567,700,o),
(567,720,qs),
(567,828,l),
(564,865,ls),
(561,913,o),
(510,923,q),
(351,876,o),
(378,612,q),
(378,497,l),
(385,463,o),
(365,426,q),
(355,420,l),
(321,416,o),
(294,440,q),
(290,886,l),
(284,909,o),
(253,916,q),
(172,865,o),
(118,771,q),
(64,710,l),
(41,724,o),
(17,751,q),
(3,764,l),
(20,794,o),
(54,828,q),
(78,859,l),
(88,869,l),
(115,906,l),
(128,923,l),
(132,930,l),
(182,980,l),
(206,994,o),
(236,1000,q),
(243,1004,l)
);
},
{
closed = 1;
nodes = (
(1050,413,l),
(1057,392,o),
(1040,386,q),
(7,386,l),
(0,396,o),
(0,413,q)
);
},
{
closed = 1;
nodes = (
(1050,-401,l),
(1057,-422,o),
(1040,-428,q),
(7,-428,l),
(0,-418,o),
(0,-401,q)
);
}
);
width = 990;
}
);
note = n;
unicode = 110;
},
{
glyphname = o;
layers = (
{
layerId = m01;
shapes = (
{
closed = 1;
nodes = (
(676,1852,l),
(672,1825,l),
(0,1825,l),
(0,1852,l)
);
},
{
closed = 1;
nodes = (
(676,1038,l),
(672,1011,l),
(0,1011,l),
(0,1038,l)
);
},
{
closed = 1;
nodes = (
(527,1014,o),
(527,747,q),
(544,754,o),
(571,757,q),
(581,761,l),
(605,774,l),
(615,774,l),
(676,713,l),
(665,700,l),
(581,673,l),
(557,669,l),
(534,666,l),
(510,663,l),
(392,349,o),
(115,443,q),
(-105,626,o),
(98,930,q),
(128,967,o),
(179,994,qs),
(216,1011,o),
(243,980,q),
(260,994,o),
(290,1004,q)
);
},
{
closed = 1;
nodes = (
(314,926,l),
(304,916,o),
(297,899,q),
(304,781,o),
(429,747,q),
(442,815,o),
(415,886,q),
(378,923,o),
(321,930,q)
);
},
{
closed = 1;
nodes = (
(64,781,o),
(115,575,q),
(149,487,o),
(243,507,qs),
(358,534,o),
(405,659,q),
(216,707,o),
(213,913,q)
);
},
{
closed = 1;
nodes = (
(676,413,l),
(672,386,l),
(0,386,l),
(0,413,l)
);
},
{
closed = 1;
nodes = (
(676,-401,l),
(672,-428,l),
(0,-428,l),
(0,-401,l)
);
}
);
width = 620;
}
);
note = o;
unicode = 111;
},
{
glyphname = p;
layers = (
{
layerId = m01;
shapes = (
{
closed = 1;
nodes = (
(1023,1852,l),
(1030,1831,o),
(1013,1825,q),
(7,1825,l),
(0,1835,o),
(0,1852,q)
);
},
{
closed = 1;
nodes = (
(1023,1038,l),
(1030,1017,o),
(1013,1011,q),
(7,1011,l),
(0,1021,o),
(0,1038,q)
);
},
{
closed = 1;
nodes = (
(213,1007,o),
(243,997,q),
(253,957,o),
(247,903,q),
(250,896,l),
(267,936,o),
(311,977,q),
(439,1041,o),
(567,963,q),
(645,821,o),
(625,639,q),
(625,565,l),
(628,528,o),
(659,501,q),
(699,497,o),
(746,517,q),
(814,585,ls),
(828,599,o),
(838,619,q),
(861,639,l),
(878,659,l),
(942,744,l),
(949,751,l),
(963,771,l),
(996,751,o),
(1023,710,q),
(716,264,o),
(547,494,q),
(534,544,o),
(537,626,qs),
(540,663,l),
(534,818,l),
(527,835,o),
(524,862,q),
(520,872,l),
(490,930,o),
(415,930,q),
(399,926,o),
(375,913,qs),
(368,909,l),
(307,859,o),
(277,778,q),
(267,761,o),
(257,734,q),
(243,416,l),
(1023,413,l),
(1027,399,o),
(1017,386,q),
(253,386,l),
(243,382,l),
(243,58,l),
(240,41,l),
(240,-20,l),
(236,-43,l),
(236,-219,l),
(240,-249,l),
(240,-351,l),
(236,-374,l),
(213,-401,o),
(172,-395,q),
(159,-381,o),
(155,-361,q),
(155,-300,l),
(152,-276,l),
(152,24,ls),
(152,48,o),
(155,85,q),
(155,382,l),
(125,389,o),
(78,386,q),
(0,386,l),
(0,413,l),
(138,413,l),
(155,416,l),
(155,761,l),
(152,778,l),
(54,653,o),
(3,771,q),
(118,838,o),
(159,980,q),
(166,994,o),
(186,1004,q)
);
},
{
closed = 1;
nodes = (
(1023,-401,l),
(1030,-422,o),
(1013,-428,q),
(7,-428,l),
(0,-418,o),
(0,-401,q)
);
}
);
width = 970;
}
);
note = p;
unicode = 112;
},
{
glyphname = q;
layers = (
{
layerId = m01;
shapes = (
{
closed = 1;
nodes = (
(767,1852,l),
(780,1846,o),
(777,1825,q),
(10,1825,l),
(-3,1832,o),
(0,1852,q)
);
},
{
closed = 1;
nodes = (
(777,1035,l),
(774,1008,l),
(3,1008,l),
(0,1018,o),
(0,1035,q)
);
},
{
closed = 1;
nodes = (
(332,1014,o),
(417,930,q),
(411,1018,o),
(499,998,q),
(505,984,o),
(509,964,q),
(509,886,l),
(512,848,l),
(512,540,l),
(516,533,l),
(543,553,o),
(573,590,q),
(577,597,l),
(590,611,l),
(607,635,l),
(611,641,l),
(699,760,l),
(709,770,l),
(743,753,o),
(777,713,q),
(777,702,l),
(743,655,l),
(733,641,l),
(719,624,l),
(706,604,l),
(614,495,l),
(577,461,l),
(556,445,l),
(536,434,l),
(519,417,l),
(516,407,l),
(777,407,l),
(777,380,l),
(556,380,l),
(536,383,o),
(516,377,q),
(516,316,l),
(512,292,l),
(512,-10,l),
(505,-44,o),
(509,-95,q),
(505,-108,l),
(505,-383,l),
(468,-421,o),
(421,-390,q),
(414,-360,o),
(414,-315,qs),
(411,-190,l),
(414,-180,l),
(414,-136,ls),
(414,-112,o),
(417,-75,q),
(417,-24,o),
(421,7,q),
(421,275,l),
(424,285,l),
(424,377,l),
(394,383,o),
(346,380,q),
(0,380,l),
(0,407,l),
(421,407,l),
(427,431,o),
(424,458,q),
(424,540,l),
(288,336,o),
(61,455,q),
(31,495,l),
(-75,770,o),
(146,970,q),
(170,984,o),
(207,994,q),
(224,1001,l)
);
},
{
closed = 1;
nodes = (
(61,821,o),
(95,597,q),
(126,445,o),
(285,523,q),
(360,594,o),
(390,709,q),
(411,899,o),
(241,923,q)
);
},
{
closed = 1;
nodes = (
(777,-410,l),
(774,-438,l),
(3,-438,l),
(0,-427,o),
(0,-410,q)
);
}
);
width = 720;
}
);
note = q;
unicode = 113;
},
{
glyphname = r;
layers = (
{
layerId = m01;
shapes = (
{
closed = 1;
nodes = (
(757,1852,l),
(753,1825,l),
(0,1825,l),
(0,1852,l)
);
},
{
closed = 1;
nodes = (
(757,1035,l),
(753,1008,l),
(0,1008,l),
(0,1035,l)
);
},
{
closed = 1;
nodes = (
(176,1004,o),
(204,998,q),
(299,848,o),
(451,994,q),
(465,998,o),
(485,994,q),
(512,974,o),
(522,936,q),
(336,774,o),
(339,533,q),
(387,468,o),
(478,512,q),
(489,523,o),
(505,533,q),
(567,601,l),
(584,621,l),
(624,668,l),
(631,679,l),
(658,709,l),
(672,730,o),
(695,753,q),
(699,760,l),
(726,743,o),
(757,709,q),
(746,692,o),
(729,675,q),
(726,668,l),
(716,658,o),
(706,641,q),
(689,621,l),
(675,604,l),
(665,594,l),
(539,377,o),
(319,424,q),
(295,431,o),
(275,451,q),
(207,638,o),
(326,831,q),
(248,835,o),
(180,882,q),
(146,784,o),
(58,702,q),
(24,723,o),
(0,760,q),
(92,841,o),
(129,977,q),
(156,1001,l)
);
},
{
closed = 1;
nodes = (
(757,407,l),
(753,380,l),
(0,380,l),
(0,407,l)
);
},
{
closed = 1;
nodes = (
(757,-410,l),
(753,-438,l),
(0,-438,l),
(0,-410,l)
);
}
);
width = 700;
}
);
note = r;
unicode = 114;
},
{
glyphname = s;
layers = (
{
layerId = m01;
shapes = (
{
closed = 1;
nodes = (
(509,1852,l),
(509,1825,l),
(0,1825,l),
(0,1852,l)
);
},
{
closed = 1;
nodes = (
(509,1035,l),
(509,1008,l),
(0,1008,l),
(0,1035,l)
);
},
{
closed = 1;
nodes = (
(282,1008,o),
(319,987,q),
(319,967,l),
(288,926,o),
(312,872,qs),
(326,845,o),
(360,814,q),
(570,726,o),
(390,383,o),
(183,414,q),
(41,475,o),
(92,621,q),
(173,743,o),
(288,668,q),
(295,638,o),
(275,607,q),
(251,601,l),
(207,611,o),
(170,584,q),
(149,523,o),
(214,499,q),
(302,478,o),
(373,553,q),
(468,682,o),
(309,746,q),
(258,780,o),
(227,845,q),
(204,804,o),
(153,757,q),
(146,753,l),
(115,726,o),
(61,702,q),
(31,726,o),
(0,770,q),
(136,835,o),
(214,981,q),
(224,991,o),
(244,1001,q)
);
},
{
closed = 1;
nodes = (
(509,407,l),
(509,380,l),
(0,380,l),
(0,407,l)
);
},
{
closed = 1;
nodes = (
(509,-410,l),
(509,-438,l),
(0,-438,l),
(0,-410,l)
);
}
);
width = 459;
}
);
note = s;
unicode = 115;
},
{
glyphname = t;
layers = (
{
layerId = m01;
shapes = (
{
closed = 1;
nodes = (
(709,1852,l),
(723,1846,o),
(719,1825,q),
(10,1825,l),
(-3,1832,o),
(0,1852,q)
);
},
{
closed = 1;
nodes = (
(268,1822,o),
(295,1808,q),
(305,1781,l),
(302,1601,l),
(343,1595,o),
(404,1601,q),
(421,1598,l),
(431,1591,o),
(441,1578,q),
(458,1510,o),
(299,1510,q),
(302,1489,o),
(295,1469,q),
(292,1038,l),
(719,1035,l),
(719,1008,l),
(295,1008,l),
(292,740,l),
(295,723,l),
(295,668,l),
(299,648,o),
(299,621,q),
(305,584,l),
(309,567,l),
(312,550,l),
(316,540,ls),
(322,523,o),
(336,509,q),
(363,499,o),
(394,506,q),
(519,573,o),
(611,706,q),
(648,746,l),
(658,760,l),
(689,743,o),
(719,709,q),
(709,685,o),
(689,665,q),
(679,645,l),
(672,641,l),
(587,509,o),
(431,424,q),
(390,411,o),
(285,421,o),
(241,468,q),
(227,495,o),
(221,533,q),
(214,556,o),
(214,573,q),
(204,618,l),
(204,645,l),
(197,668,o),
(200,696,q),
(200,808,l),
(197,831,l),
(193,858,l),
(146,767,o),
(51,706,q),
(24,726,o),
(0,763,q),
(31,791,l),
(47,811,l),
(71,835,o),
(78,845,q),
(95,862,l),
(159,957,l),
(166,964,l),
(176,984,o),
(193,1008,q),
(0,1008,l),
(0,1035,l),
(187,1035,l),
(200,1038,l),
(200,1062,o),
(204,1099,q),
(204,1238,ls),
(204,1255,o),
(207,1279,q),
(207,1462,l),
(210,1486,l),
(210,1588,l),
(214,1598,o),
(214,1615,qs),
(214,1652,ls),
(214,1679,o),
(217,1720,q),
(217,1778,l),
(221,1802,o),
(244,1819,q)
);
},
{
closed = 1;
nodes = (
(719,407,l),
(723,394,o),
(712,380,q),
(0,380,l),
(0,407,l)
);
},
{
closed = 1;
nodes = (
(719,-410,l),
(723,-424,o),
(712,-438,q),
(0,-438,l),
(0,-410,l)
);
}
);
width = 670;
}
);
note = t;
unicode = 116;
},
{
glyphname = u;
layers = (
{
layerId = m01;
shapes = (
{
closed = 1;
nodes = (
(892,1852,l),
(895,1838,o),
(885,1825,q),
(3,1825,l),
(0,1835,o),
(0,1852,q)
);
},
{
closed = 1;
nodes = (
(892,1038,l),
(895,1024,o),
(885,1011,q),
(3,1011,l),
(0,1021,o),
(0,1038,q)
);
},
{
closed = 1;
nodes = (
(172,1004,l),
(179,1000,l),
(189,960,o),
(186,899,q),
(186,622,l),
(172,487,o),
(274,514,q),
(432,602,o),
(432,771,qs),
(432,872,l),
(436,892,o),
(436,919,qs),
(436,963,ls),
(436,977,o),
(439,997,q),
(476,1007,o),
(520,997,q),
(527,973,o),
(524,946,q),
(524,876,l),
(520,838,l),
(520,646,ls),
(520,632,o),
(524,612,q),
(527,555,l),
(540,524,l),
(591,487,o),
(649,555,qs),
(699,609,l),
(709,626,o),
(726,642,qs),
(743,659,o),
(746,666,q),
(780,710,l),
(784,713,o),
(790,724,q),
(814,754,l),
(831,771,o),
(841,764,qs),
(868,744,o),
(892,707,q),
(871,686,o),
(855,656,q),
(794,578,l),
(784,568,l),
(774,551,o),
(757,534,qs),
(692,474,l),
(679,460,o),
(652,447,q),
(645,440,l),
(591,420,l),
(551,416,o),
(500,430,q),
(480,443,o),
(463,467,q),
(442,517,l),
(436,544,l),
(355,403,o),
(193,426,q),
(159,436,o),
(125,467,q),
(108,511,l),
(98,744,l),
(44,680,o),
(0,767,q),
(105,842,o),
(98,973,q),
(101,990,o),
(111,1004,q)
);
},
{
closed = 1;
nodes = (
(892,413,l),
(895,399,o),
(885,386,q),
(3,386,l),
(0,396,o),
(0,413,q)
);
},
{
closed = 1;
nodes = (
(878,-401,l),
(895,-405,o),
(892,-428,q),
(14,-428,l),
(-3,-425,o),
(0,-401,q)
);
}
);
width = 840;
}
);
note = u;
unicode = 117;
},
{
glyphname = v;
layers = (
{
layerId = m01;
shapes = (
{
closed = 1;
nodes = (
(1035,1852,l),
(1042,1829,o),
(1021,1825,q),
(7,1825,l),
(0,1835,o),
(0,1852,q)
);
},
{
closed = 1;
nodes = (
(1035,1035,l),
(1042,1011,o),
(1021,1008,q),
(7,1008,l),
(0,1018,o),
(0,1035,q)
);
},
{
closed = 1;
nodes = (
(444,1008,o),
(390,658,q),
(394,580,l),
(400,543,l),
(421,495,o),
(478,492,q),
(590,540,o),
(624,665,q),
(672,794,o),
(597,930,q),
(597,960,o),
(617,991,q),
(641,1001,o),
(668,991,q),
(682,977,o),
(692,957,q),
(746,743,o),
(967,780,q),
(1035,713,l),
(1035,709,l),
(872,648,o),
(740,730,q),
(719,506,o),
(536,414,q),
(492,411,l),
(326,390,o),
(302,563,qs),
(295,604,o),
(295,668,q),
(299,726,l),
(302,746,o),
(302,774,q),
(309,797,o),
(309,831,qs),
(309,841,l),
(244,1035,o),
(64,706,q),
(-10,743,o),
(10,791,q),
(64,899,o),
(170,987,q),
(190,998,o),
(221,1004,q)
);
},
{
closed = 1;
nodes = (
(1035,407,l),
(1042,383,o),
(1021,380,q),
(7,380,l),
(0,390,o),
(0,407,q)
);
},
{
closed = 1;
nodes = (
(1035,-410,l),
(1042,-434,o),
(1021,-438,q),
(7,-438,l),
(0,-427,o),
(0,-410,q)
);
}
);
width = 960;
}
);
note = v;
unicode = 118;
},
{
glyphname = w;
layers = (
{
layerId = m01;
shapes = (
{
closed = 1;
nodes = (
(1311,1852,l),
(1317,1828,o),
(1297,1825,q),
(10,1825,l),
(-3,1831,o),
(0,1852,q)
);
},
{
closed = 1;
nodes = (
(1311,1038,l),
(1317,1014,o),
(1297,1011,q),
(10,1011,l),
(-3,1017,o),
(0,1038,q)
);
},
{
closed = 1;
nodes = (
(345,1014,o),
(392,882,q),
(402,832,o),
(395,767,qs),
(392,747,o),
(392,724,q),
(388,696,l),
(388,656,l),
(392,636,l),
(392,585,l),
(395,578,l),
(395,561,o),
(409,524,o),
(426,507,q),
(628,463,o),
(611,815,q),
(622,855,l),
(655,889,o),
(692,859,q),
(703,842,l),
(703,781,l),
(699,757,l),
(699,703,l),
(696,686,l),
(696,599,l),
(703,558,l),
(703,548,l),
(817,399,o),
(919,727,q),
(926,825,o),
(868,923,q),
(865,936,o),
(865,957,q),
(875,980,o),
(898,997,q),
(926,997,o),
(949,977,q),
(976,930,l),
(1037,744,o),
(1240,781,q),
(1290,730,l),
(1297,727,o),
(1307,710,q),
(1145,649,o),
(1013,730,q),
(1000,612,o),
(919,501,qs),
(831,372,o),
(679,443,q),
(652,463,o),
(628,504,q),
(625,497,l),
(611,477,o),
(588,453,q),
(567,436,l),
(426,372,o),
(328,474,q),
(311,514,l),
(301,548,o),
(301,599,q),
(297,626,l),
(297,737,l),
(301,747,l),
(301,781,o),
(307,832,q),
(307,845,l),
(301,879,o),
(274,913,q),
(257,919,o),
(233,919,q),
(199,903,l),
(159,869,o),
(81,737,qs),
(64,710,l),
(37,727,o),
(7,761,q),
(0,767,l),
(47,889,o),
(162,987,q),
(182,997,o),
(213,1004,q),
(220,1007,l)
);
},
{
closed = 1;
nodes = (
(1311,413,l),
(1317,389,o),
(1297,386,q),
(10,386,l),
(-3,392,o),
(0,413,q)
);
},
{
closed = 1;
nodes = (
(1311,-401,l),
(1317,-425,o),
(1297,-428,q),
(10,-428,l),
(-3,-422,o),
(0,-401,q)
);
}
);
width = 1250;
}
);
note = w;
unicode = 119;
},
{
glyphname = x;
layers = (
{
layerId = m01;
shapes = (
{
closed = 1;
nodes = (
(743,1852,l),
(740,1825,l),
(0,1825,l),
(0,1852,l)
);
},
{
closed = 1;
nodes = (
(743,1038,l),
(740,1011,l),
(0,1011,l),
(0,1038,l)
);
},
{
closed = 1;
nodes = (
(274,1021,o),
(351,882,q),
(415,1021,o),
(578,1000,q),
(706,973,o),
(669,845,q),
(632,791,o),
(561,781,q),
(527,801,o),
(530,842,q),
(564,859,o),
(591,896,q),
(530,960,o),
(459,886,qs),
(372,788,o),
(388,646,qs),
(402,548,o),
(500,504,q),
(561,507,o),
(608,558,q),
(659,602,o),
(649,676,q),
(588,707,o),
(544,622,q),
(527,619,o),
(507,622,q),
(439,700,o),
(571,764,q),
(801,788,o),
(719,558,q),
(665,430,o),
(520,420,q),
(402,420,o),
(331,531,q),
(277,426,o),
(155,420,qs),
(132,420,o),
(101,430,q),
(-30,555,o),
(115,676,q),
(145,680,l),
(166,673,o),
(182,649,q),
(176,602,o),
(132,561,q),
(142,460,o),
(240,551,q),
(338,740,o),
(240,892,q),
(223,906,o),
(196,913,q),
(176,923,l),
(115,930,o),
(95,869,q),
(78,791,o),
(169,744,q),
(172,727,o),
(166,710,q),
(57,646,o),
(7,805,q),
(-24,950,o),
(125,1004,q)
);
},
{
closed = 1;
nodes = (
(733,413,l),
(746,406,o),
(743,386,q),
(10,386,l),
(-3,392,o),
(0,413,q)
);
},
{
closed = 1;
nodes = (
(743,-401,l),
(740,-428,l),
(0,-428,l),
(0,-401,l)
);
}
);
width = 710;
}
);
note = x;
unicode = 120;
},
{
glyphname = y;
layers = (
{
layerId = m01;
shapes = (
{
closed = 1;
nodes = (
(874,1852,l),
(878,1839,o),
(868,1826,q),
(3,1826,l),
(0,1836,o),
(0,1852,q)
);
},
{
closed = 1;
nodes = (
(874,1042,l),
(878,1029,o),
(868,1015,q),
(3,1015,l),
(0,1025,o),
(0,1042,q)
);
},
{
closed = 1;
nodes = (
(165,1012,o),
(188,985,q),
(192,958,o),
(182,918,q),
(182,907,l),
(175,870,l),
(175,860,l),
(168,834,o),
(165,797,q),
(161,776,o),
(158,753,q),
(158,652,l),
(161,642,l),
(165,595,l),
(185,531,l),
(212,507,o),
(252,507,q),
(286,517,o),
(316,551,q),
(330,571,ls),
(346,598,o),
(363,642,q),
(373,662,o),
(383,699,qs),
(400,756,l),
(407,773,o),
(410,797,q),
(424,823,o),
(427,860,qs),
(430,881,o),
(434,894,q),
(437,918,l),
(441,938,ls),
(447,981,o),
(464,1008,q),
(508,1025,o),
(535,988,q),
(541,941,o),
(525,877,q),
(521,850,l),
(508,437,l),
(511,420,l),
(552,420,l),
(572,443,l),
(589,464,l),
(639,521,l),
(652,538,l),
(663,551,ls),
(676,564,o),
(683,575,qs),
(720,628,ls),
(730,642,o),
(740,665,q),
(753,682,l),
(757,692,l),
(773,712,o),
(794,749,qs),
(807,770,l),
(814,776,l),
(837,763,o),
(861,736,qs),
(874,723,l),
(874,712,l),
(800,591,l),
(794,585,l),
(763,534,o),
(747,517,q),
(683,433,l),
(669,420,l),
(874,420,l),
(874,393,l),
(646,393,l),
(585,329,l),
(578,319,l),
(538,279,l),
(531,275,o),
(525,265,qs),
(511,238,o),
(515,205,qs),
(518,184,l),
(518,144,l),
(521,121,l),
(525,-78,l),
(521,-98,l),
(521,-138,l),
(518,-155,o),
(518,-182,q),
(511,-202,o),
(508,-236,q),
(498,-253,o),
(488,-286,q),
(484,-293,l),
(447,-344,o),
(387,-370,q),
(87,-434,o),
(145,-101,q),
(198,63,o),
(360,211,q),
(387,245,l),
(397,258,l),
(400,265,l),
(420,285,l),
(427,295,l),
(420,390,l),
(390,396,o),
(343,393,q),
(0,393,l),
(0,420,l),
(417,420,l),
(420,443,o),
(420,474,qs),
(420,568,l),
(360,410,o),
(192,430,q),
(54,470,o),
(71,719,q),
(27,716,o),
(0,766,q),
(98,850,o),
(108,995,q),
(135,1012,l)
);
},
{
closed = 1;
nodes = (
(504,363,o),
(528,393,q),
(511,393,l)
);
},
{
closed = 1;
nodes = (
(414,144,o),
(397,121,q),
(367,90,l),
(360,80,l),
(198,-48,o),
(232,-259,q),
(259,-290,l),
(498,-357,o),
(427,158,q)
);
},
{
closed = 1;
nodes = (
(874,-391,l),
(878,-404,o),
(868,-418,q),
(3,-418,l),
(0,-407,o),
(0,-391,q)
);
}
);
width = 820;
}
);
note = y;
unicode = 121;
},
{
glyphname = z;
layers = (
{
layerId = m01;
shapes = (
{
closed = 1;
nodes = (
(835,1852,l),
(838,1839,o),
(828,1825,q),
(3,1825,l),
(0,1835,o),
(0,1852,q)
);
},
{
closed = 1;
nodes = (
(835,1035,l),
(838,1021,o),
(828,1008,q),
(3,1008,l),
(0,1018,o),
(0,1035,q)
);
},
{
closed = 1;
nodes = (
(173,1001,o),
(200,994,q),
(299,794,o),
(482,998,q),
(519,1001,o),
(550,977,q),
(556,960,o),
(556,936,q),
(505,862,ls),
(492,841,o),
(478,804,qs),
(475,794,o),
(465,777,qs),
(455,757,l),
(444,736,l),
(441,726,l),
(424,696,l),
(482,679,o),
(475,628,q),
(441,587,o),
(394,628,q),
(383,601,o),
(360,563,q),
(407,516,l),
(461,492,o),
(526,509,q),
(577,540,o),
(621,594,qs),
(634,611,o),
(651,631,o),
(662,641,q),
(712,699,ls),
(729,719,o),
(736,730,q),
(770,767,l),
(794,753,o),
(818,726,qs),
(831,713,l),
(821,689,o),
(797,665,qs),
(780,645,l),
(777,638,l),
(723,573,l),
(719,567,l),
(679,523,ls),
(668,509,o),
(651,495,q),
(604,448,l),
(580,434,o),
(550,424,qs),
(543,421,l),
(414,383,o),
(319,482,q),
(271,414,o),
(180,414,qs),
(105,411,o),
(71,482,q),
(58,567,o),
(142,611,qs),
(210,651,o),
(285,611,q),
(316,675,l),
(265,696,o),
(254,750,q),
(299,801,o),
(346,743,q),
(366,780,l),
(370,791,l),
(383,814,l),
(380,821,l),
(268,777,o),
(176,872,q),
(146,814,l),
(142,804,l),
(109,757,l),
(92,740,l),
(88,733,l),
(61,706,l),
(27,723,o),
(0,763,q),
(85,841,o),
(122,970,qs),
(129,991,o),
(153,1001,q)
);
},
{
closed = 1;
nodes = (
(173,546,o),
(146,519,q),
(153,478,o),
(197,482,q),
(285,529,o),
(204,556,q)
);
},
{
closed = 1;
nodes = (
(835,407,l),
(838,394,o),
(828,380,q),
(3,380,l),
(0,390,o),
(0,407,q)
);
},
{
closed = 1;
nodes = (
(835,-410,l),
(838,-424,o),
(828,-438,q),
(3,-438,l),
(0,-427,o),
(0,-410,q)
);
}
);
width = 770;
}
);
note = z;
unicode = 122;
},
{
glyphname = braceleft;
layers = (
{
layerId = m01;
shapes = (
{
closed = 1;
nodes = (
(522,1852,l),
(522,1825,l),
(0,1825,l),
(0,1852,l)
);
},
{
closed = 1;
nodes = (
(472,1703,o),
(492,1696,q),
(512,1676,o),
(505,1646,q),
(485,1629,l),
(414,1612,o),
(353,1554,q),
(254,1394,o),
(254,1184,q),
(248,1154,o),
(251,1106,q),
(248,1096,l),
(248,1045,l),
(251,1035,l),
(522,1035,l),
(522,1008,l),
(248,1008,l),
(258,835,o),
(129,709,q),
(265,601,o),
(282,407,q),
(522,407,l),
(522,380,l),
(285,380,l),
(288,258,l),
(285,221,l),
(285,149,l),
(288,132,l),
(292,88,o),
(292,61,q),
(295,44,l),
(305,-30,l),
(312,-54,l),
(312,-64,l),
(326,-98,ls),
(329,-108,o),
(349,-142,q),
(411,-193,o),
(499,-197,q),
(516,-214,o),
(519,-241,q),
(512,-258,o),
(492,-275,q),
(380,-288,o),
(285,-203,q),
(234,-125,l),
(217,-64,l),
(214,-44,ls),
(210,-3,o),
(204,24,q),
(207,37,o),
(200,58,q),
(197,132,l),
(193,156,l),
(193,214,o),
(197,255,q),
(197,346,l),
(193,356,l),
(193,377,l),
(0,380,l),
(0,407,l),
(173,407,l),
(190,411,l),
(173,594,o),
(0,702,q),
(10,716,o),
(31,736,q),
(163,831,o),
(153,1008,q),
(0,1008,l),
(0,1035,l),
(122,1035,l),
(159,1038,l),
(159,1072,o),
(163,1123,q),
(163,1160,l),
(166,1174,l),
(159,1377,o),
(265,1578,q),
(285,1608,o),
(322,1646,qs),
(329,1652,l),
(380,1686,o),
(455,1703,q)
);
},
{
closed = 1;
nodes = (
(522,-410,l),
(522,-438,l),
(0,-438,l),
(0,-410,l)
);
}
);
width = 520;
}
);
note = braceleft;
unicode = 123;
},
{
glyphname = bar;
layers = (
{
layerId = m01;
shapes = (
{
closed = 1;
nodes = (
(115,1852,l),
(115,1825,l),
(0,1825,l),
(0,1852,l)
);
},
{
closed = 1;
nodes = (
(85,1656,o),
(98,1615,q),
(98,1405,l),
(95,1384,l),
(95,1147,l),
(98,1137,l),
(98,1048,ls),
(98,1035,o),
(115,1035,q),
(122,1011,o),
(98,1004,q),
(98,926,l),
(102,889,l),
(102,679,l),
(98,651,l),
(102,411,l),
(115,407,l),
(115,383,l),
(109,380,o),
(102,370,q),
(102,221,l),
(105,207,o),
(98,187,q),
(98,-17,l),
(105,-41,o),
(102,-68,q),
(102,-200,l),
(85,-231,o),
(44,-231,q),
(14,-197,o),
(17,-139,q),
(17,177,l),
(20,200,o),
(20,231,qs),
(20,353,l),
(27,377,o),
(0,380,q),
(3,404,o),
(20,417,q),
(17,540,l),
(14,556,o),
(14,584,qs),
(14,689,l),
(17,709,o),
(17,767,q),
(20,784,l),
(17,991,ls),
(17,1008,o),
(0,1008,q),
(-7,1031,o),
(17,1038,q),
(14,1418,l),
(17,1428,l),
(17,1476,l),
(14,1503,o),
(20,1540,q),
(20,1608,ls),
(20,1635,o),
(44,1656,q)
);
},
{
closed = 1;
nodes = (
(115,-410,l),
(115,-438,l),
(0,-438,l),
(0,-410,l)
);
}
);
width = 120;
}
);
note = bar;
unicode = 124;
},
{
glyphname = braceright;
layers = (
{
layerId = m01;
shapes = (
{
closed = 1;
nodes = (
(512,1852,l),
(512,1825,l),
(0,1825,l),
(0,1852,l)
);
},
{
closed = 1;
nodes = (
(105,1700,o),
(180,1652,q),
(356,1456,o),
(343,1137,q),
(349,1103,o),
(346,1052,q),
(349,1038,l),
(380,1031,o),
(427,1035,q),
(512,1035,l),
(512,1008,l),
(356,1008,l),
(346,947,o),
(366,875,q),
(400,797,o),
(478,736,qs),
(495,723,o),
(509,702,q),
(346,611,o),
(319,411,q),
(512,407,l),
(512,380,l),
(329,380,l),
(316,377,l),
(312,244,l),
(316,241,o),
(316,231,qs),
(312,119,l),
(309,102,l),
(309,65,l),
(305,48,l),
(305,24,o),
(299,-7,qs),
(292,-54,l),
(288,-78,l),
(285,-91,l),
(254,-166,l),
(183,-268,o),
(47,-278,q),
(27,-275,o),
(7,-254,q),
(3,-227,o),
(17,-200,q),
(31,-193,o),
(51,-190,q),
(112,-190,o),
(159,-142,qs),
(170,-129,o),
(180,-105,qs),
(197,-64,l),
(197,-41,o),
(207,-13,q),
(210,7,o),
(210,20,q),
(214,48,l),
(217,58,l),
(217,95,l),
(221,98,o),
(224,143,o),
(224,170,qs),
(224,380,l),
(0,380,l),
(0,407,l),
(227,407,l),
(237,590,o),
(380,709,q),
(258,814,o),
(265,994,q),
(258,1008,l),
(0,1008,l),
(0,1035,l),
(254,1035,l),
(261,1076,o),
(254,1137,q),
(254,1198,l),
(251,1204,l),
(258,1381,o),
(156,1554,q),
(112,1605,o),
(37,1622,q),
(20,1629,o),
(3,1646,q),
(-7,1683,o),
(31,1703,q)
);
},
{
closed = 1;
nodes = (
(509,-410,l),
(512,-421,o),
(512,-438,q),
(3,-438,l),
(0,-427,o),
(0,-410,q)
);
}
);
width = 510;
}
);
note = braceright;
unicode = 125;
},
{
glyphname = asciitilde;
layers = (
{
layerId = m01;
shapes = (
{
closed = 1;
nodes = (
(493,1852,l),
(493,1825,l),
(0,1825,l),
(0,1852,l)
);
},
{
closed = 1;
nodes = (
(493,1038,l),
(493,1011,l),
(0,1011,l),
(0,1038,l)
);
},
{
closed = 1;
nodes = (
(152,794,o),
(203,778,q),
(267,764,l),
(338,747,l),
(355,744,l),
(358,740,o),
(368,740,q),
(392,737,o),
(419,740,q),
(449,751,o),
(480,781,q),
(490,784,l),
(449,619,o),
(203,707,q),
(128,727,l),
(111,734,o),
(88,734,q),
(34,707,l),
(20,693,o),
(0,686,q),
(17,771,o),
(111,794,q)
);
},
{
closed = 1;
nodes = (
(493,413,l),
(493,386,l),
(0,386,l),
(0,413,l)
);
},
{
closed = 1;
nodes = (
(493,-401,l),
(493,-428,l),
(0,-428,l),
(0,-401,l)
);
}
);
width = 490;
}
);
note = asciitilde;
unicode = 126;
},
{
glyphname = Adieresis;
layers = (
{
layerId = m01;
shapes = (
{
closed = 1;
nodes = (
(1371,1852,l),
(1378,1828,o),
(1354,1825,q),
(10,1825,l),
(-3,1831,o),
(0,1852,q)
);
},
{
closed = 1;
nodes = (
(594,1818,o),
(615,1794,q),
(615,1757,o),
(578,1747,q),
(520,1774,o),
(567,1818,q)
);
},
{
closed = 1;
nodes = (
(743,1815,o),
(763,1791,q),
(763,1754,o),
(726,1744,q),
(669,1771,o),
(716,1815,q)
);
},
{
closed = 1;
nodes = (
(537,1757,o),
(567,1706,q),
(753,1686,o),
(804,1453,q),
(804,1720,l),
(838,1754,o),
(882,1727,q),
(892,1676,o),
(885,1595,q),
(885,1105,l),
(882,1078,o),
(888,1038,q),
(1371,1038,l),
(1371,1011,l),
(888,1011,l),
(882,980,o),
(885,933,q),
(885,788,l),
(865,484,o),
(1010,501,q),
(1165,541,o),
(1260,700,q),
(1304,751,l),
(1311,761,l),
(1338,744,o),
(1368,710,q),
(1270,501,o),
(1034,420,q),
(963,420,l),
(953,423,l),
(926,426,o),
(892,436,q),
(858,463,o),
(831,511,qs),
(824,524,l),
(811,578,ls),
(804,609,o),
(804,622,qs),
(801,713,l),
(797,724,l),
(797,835,l),
(801,848,o),
(794,869,q),
(753,734,ls),
(746,707,o),
(726,669,q),
(723,656,l),
(719,653,o),
(709,632,qs),
(696,602,l),
(679,578,l),
(669,561,l),
(665,551,l),
(598,480,l),
(574,467,o),
(544,457,q),
(530,447,o),
(510,440,qs),
(493,436,o),
(476,430,q),
(466,430,l),
(213,382,o),
(47,737,q),
(-61,1082,o),
(84,1446,q),
(108,1484,l),
(115,1490,l),
(138,1531,l),
(247,1639,ls),
(263,1656,o),
(290,1673,q),
(301,1683,l),
(321,1696,l),
(338,1706,l),
(388,1727,ls),
(412,1737,o),
(446,1740,q),
(473,1747,l)
);
},
{
closed = 1;
nodes = (
(382,1646,l),
(78,1433,o),
(88,1038,q),
(726,1038,l),
(736,1061,o),
(740,1112,o),
(740,1146,q),
(743,1166,o),
(743,1193,qs),
(743,1203,l),
(746,1227,o),
(746,1257,q),
(743,1267,l),
(743,1288,l),
(692,1723,o),
(476,1578,q),
(436,1581,l),
(409,1622,o),
(453,1669,q)
);
},
{
closed = 1;
nodes = (
(74,740,o),
(301,541,q),
(341,517,o),
(399,511,q),
(453,511,o),
(513,538,q),
(534,544,l),
(540,548,l),
(581,585,l),
(598,605,l),
(608,619,l),
(618,632,l),
(659,727,l),
(669,744,o),
(679,771,q),
(682,794,o),
(692,825,qs),
(706,869,l),
(709,903,o),
(723,946,q),
(723,973,o),
(730,1011,q),
(91,1011,l)
);
},
{
closed = 1;
nodes = (
(1371,413,l),
(1378,389,o),
(1354,386,q),
(10,386,l),
(-3,392,o),
(0,413,q)
);
},
{
closed = 1;
nodes = (
(1371,-401,l),
(1378,-425,o),
(1354,-428,q),
(10,-428,l),
(-3,-422,o),
(0,-401,q)
);
}
);
width = 1320;
}
);
note = Adieresis;
unicode = 196;
},
{
glyphname = Aring;
layers = (
{
layerId = m01;
shapes = (
{
closed = 1;
nodes = (
(1372,1847,l),
(1375,1834,o),
(1365,1820,q),
(764,1820,l),
(753,1817,l),
(811,1790,o),
(811,1726,q),
(841,1733,o),
(878,1722,q),
(889,1695,l),
(885,1057,l),
(889,1033,l),
(1372,1033,l),
(1372,1006,l),
(895,1006,l),
(885,999,o),
(885,986,qs),
(889,662,l),
(892,618,ls),
(895,594,o),
(899,581,q),
(902,560,o),
(916,530,q),
(929,513,o),
(953,499,q),
(1135,483,o),
(1260,695,q),
(1304,746,l),
(1311,756,l),
(1338,739,o),
(1368,706,q),
(1365,689,l),
(1341,658,l),
(1334,651,l),
(1260,530,o),
(1118,445,q),
(916,351,o),
(824,520,q),
(811,574,ls),
(804,604,o),
(804,618,qs),
(801,709,l),
(797,719,l),
(797,831,l),
(801,844,o),
(794,864,q),
(753,729,l),
(747,702,o),
(726,665,q),
(723,651,l),
(720,648,o),
(709,628,q),
(696,597,l),
(679,574,l),
(669,557,l),
(666,547,l),
(598,476,l),
(574,462,o),
(537,449,q),
(520,439,l),
(497,432,ls),
(480,425,o),
(453,422,q),
(443,415,l),
(412,412,o),
(372,422,q),
(351,422,o),
(331,432,q),
(321,432,l),
(41,581,o),
(7,932,qs),
(3,969,o),
(3,993,q),
(0,1010,l),
(0,1033,l),
(3,1043,o),
(3,1060,qs),
(3,1094,l),
(7,1114,l),
(7,1165,l),
(14,1192,l),
(17,1212,l),
(20,1233,l),
(20,1246,o),
(24,1266,q),
(41,1310,l),
(44,1334,l),
(61,1381,l),
(68,1395,l),
(84,1442,o),
(108,1479,qs),
(122,1499,l),
(128,1506,l),
(139,1526,l),
(206,1597,l),
(226,1614,l),
(253,1641,l),
(264,1648,l),
(280,1665,o),
(304,1678,q),
(314,1689,l),
(368,1716,l),
(385,1719,o),
(405,1729,q),
(416,1733,l),
(470,1739,l),
(476,1743,l),
(497,1743,l),
(503,1739,l),
(530,1739,l),
(551,1733,l),
(564,1702,o),
(601,1695,q),
(574,1773,o),
(649,1820,q),
(7,1820,l),
(0,1831,o),
(0,1847,q)
);
},
{
closed = 1;
nodes = (
(659,1766,o),
(655,1729,q),
(733,1658,o),
(736,1756,q),
(720,1773,o),
(689,1776,q)
);
},
{
closed = 1;
nodes = (
(774,1655,o),
(709,1641,q),
(774,1567,o),
(801,1456,q),
(804,1449,l),
(804,1695,l),
(801,1702,l)
);
},
{
closed = 1;
nodes = (
(382,1641,l),
(78,1428,o),
(88,1033,q),
(726,1033,l),
(736,1057,o),
(740,1108,o),
(740,1141,q),
(743,1162,o),
(743,1189,qs),
(743,1199,l),
(747,1222,o),
(747,1253,q),
(743,1263,l),
(743,1283,l),
(693,1719,o),
(476,1574,q),
(436,1577,l),
(409,1618,o),
(453,1665,q)
);
},
{
closed = 1;
nodes = (
(74,736,o),
(301,537,q),
(341,513,o),
(399,506,q),
(453,506,o),
(514,533,q),
(534,540,l),
(541,543,l),
(581,581,l),
(598,601,l),
(608,614,l),
(618,628,l),
(659,722,l),
(669,739,o),
(679,766,q),
(682,790,o),
(693,820,qs),
(706,864,l),
(709,898,o),
(723,942,q),
(723,969,o),
(730,1006,q),
(91,1006,l)
);
},
{
closed = 1;
nodes = (
(1372,408,l),
(1378,385,o),
(1355,381,q),
(10,381,l),
(-3,388,o),
(0,408,q)
);
},
{
closed = 1;
nodes = (
(1372,-406,l),
(1378,-430,o),
(1355,-433,q),
(10,-433,l),
(-3,-426,o),
(0,-406,q)
);
}
);
width = 1320;
}
);
note = Aring;
unicode = 197;
},
{
glyphname = Ccedilla;
layers = (
{
layerId = m01;
shapes = (
{
closed = 1;
nodes = (
(868,1852,l),
(885,1848,o),
(882,1825,q),
(14,1825,l),
(-3,1828,o),
(0,1852,q)
);
},
{
closed = 1;
nodes = (
(517,1818,ls),
(540,1818,o),
(574,1811,q),
(584,1811,l),
(659,1781,l),
(692,1760,ls),
(706,1750,o),
(726,1730,qs),
(838,1625,o),
(753,1507,q),
(723,1504,o),
(696,1521,q),
(686,1554,o),
(699,1595,q),
(696,1619,l),
(679,1649,o),
(649,1679,qs),
(642,1686,l),
(547,1744,o),
(426,1727,q),
(395,1710,o),
(365,1679,qs),
(328,1636,l),
(307,1598,l),
(270,1531,l),
(260,1511,l),
(257,1500,l),
(243,1480,o),
(233,1446,qs),
(189,1315,l),
(186,1298,o),
(176,1271,q),
(172,1247,o),
(155,1193,q),
(152,1169,l),
(149,1152,l),
(149,1136,o),
(145,1129,q),
(142,1092,l),
(135,1068,l),
(135,1041,l),
(166,1034,o),
(213,1038,q),
(882,1038,l),
(882,1011,l),
(149,1011,ls),
(135,1011,o),
(128,1000,q),
(91,696,o),
(280,541,q),
(304,528,o),
(368,511,o),
(412,511,q),
(436,507,l),
(466,507,l),
(503,511,l),
(682,585,o),
(807,771,q),
(848,771,o),
(882,720,q),
(882,710,l),
(865,696,o),
(844,669,q),
(787,612,l),
(682,457,o),
(486,420,q),
(483,413,l),
(882,413,l),
(882,386,l),
(480,386,l),
(463,342,o),
(422,305,q),
(524,278,o),
(503,180,qs),
(473,65,o),
(348,45,q),
(355,65,l),
(486,190,o),
(351,308,q),
(388,338,o),
(392,386,q),
(0,386,l),
(0,413,l),
(382,413,l),
(402,416,l),
(270,416,o),
(166,511,q),
(138,531,o),
(115,572,qs),
(111,578,l),
(64,653,l),
(54,683,l),
(34,724,o),
(30,774,qs),
(27,794,l),
(24,815,l),
(20,909,l),
(17,919,o),
(17,936,q),
(14,960,o),
(20,987,q),
(20,1007,l),
(-3,1011,o),
(0,1038,q),
(24,1041,l),
(30,1109,l),
(34,1132,l),
(37,1149,ls),
(41,1180,o),
(47,1200,q),
(51,1240,o),
(68,1301,qs),
(71,1315,l),
(84,1362,l),
(88,1375,l),
(118,1450,l),
(122,1463,l),
(142,1511,l),
(149,1521,o),
(155,1538,q),
(240,1686,l),
(260,1710,ls),
(267,1720,o),
(284,1737,qs),
(331,1784,l),
(361,1804,o),
(412,1815,qs),
(422,1818,l)
);
},
{
closed = 1;
nodes = (
(882,-401,l),
(888,-422,o),
(871,-428,q),
(3,-428,l),
(0,-418,o),
(0,-401,q)
);
}
);
width = 820;
}
);
note = Ccedilla;
unicode = 199;
},
{
glyphname = Eacute;
layers = (
{
layerId = m01;
shapes = (
{
closed = 1;
nodes = (
(774,1852,l),
(787,1845,o),
(784,1825,q),
(10,1825,l),
(-3,1831,o),
(0,1852,q)
);
},
{
closed = 1;
nodes = (
(598,1818,l),
(588,1784,l),
(459,1750,l),
(388,1733,l),
(399,1771,l),
(449,1784,l),
(473,1788,o),
(507,1798,q),
(527,1801,l),
(537,1804,ls),
(557,1808,o),
(584,1818,q)
);
},
{
closed = 1;
nodes = (
(84,1811,o),
(108,1801,q),
(125,1788,o),
(142,1760,qs),
(155,1740,o),
(182,1717,q),
(236,1663,ls),
(250,1649,o),
(277,1632,q),
(284,1625,l),
(463,1838,o),
(689,1656,q),
(706,1622,l),
(713,1524,o),
(618,1473,qs),
(476,1402,o),
(321,1507,q),
(260,1274,o),
(534,1267,q),
(564,1254,l),
(581,1230,o),
(571,1196,q),
(561,1186,o),
(540,1176,q),
(304,1196,o),
(179,1041,q),
(777,1038,l),
(784,1028,o),
(784,1011,q),
(159,1011,l),
(115,940,o),
(111,845,q),
(78,676,o),
(220,544,q),
(243,534,l),
(253,531,o),
(270,521,qs),
(277,517,l),
(507,484,o),
(659,680,q),
(743,835,o),
(601,916,q),
(537,886,o),
(493,909,q),
(470,957,o),
(513,990,q),
(817,1038,o),
(774,720,q),
(703,477,o),
(426,430,q),
(213,376,o),
(71,568,q),
(-44,767,o),
(51,1007,q),
(27,1014,o),
(0,1011,q),
(0,1038,l),
(57,1038,l),
(145,1169,o),
(307,1244,q),
(172,1369,o),
(243,1554,q),
(199,1588,l),
(186,1598,l),
(68,1717,l),
(41,1754,l),
(34,1767,o),
(34,1788,q),
(44,1801,o),
(61,1811,q)
);
},
{
closed = 1;
nodes = (
(415,1646,o),
(368,1581,q),
(551,1453,o),
(622,1602,q),
(601,1625,l),
(551,1652,o),
(486,1656,q)
);
},
{
closed = 1;
nodes = (
(774,413,l),
(787,406,o),
(784,386,q),
(10,386,l),
(-3,392,o),
(0,413,q)
);
},
{
closed = 1;
nodes = (
(784,-401,l),
(780,-428,l),
(3,-428,l),
(0,-418,o),
(0,-401,q)
);
}
);
width = 760;
}
);
note = Eacute;
unicode = 201;
},
{
glyphname = Ntilde;
layers = (
{
layerId = m01;
shapes = (
{
closed = 1;
nodes = (
(1370,1850,l),
(1377,1826,o),
(1353,1823,q),
(10,1823,l),
(-3,1830,o),
(0,1850,q)
);
},
{
closed = 1;
nodes = (
(442,1813,o),
(547,1745,q),
(577,1735,l),
(638,1739,o),
(692,1783,q),
(641,1600,o),
(422,1725,q),
(338,1783,o),
(240,1722,q),
(257,1796,o),
(338,1816,q)
);
},
{
closed = 1;
nodes = (
(388,1698,o),
(462,1550,q),
(483,1597,o),
(533,1637,q),
(817,1779,o),
(911,1506,q),
(911,1475,o),
(921,1421,q),
(921,1371,l),
(925,1354,o),
(925,1330,qs),
(925,1215,l),
(921,1202,l),
(921,1114,l),
(918,1094,l),
(918,1053,l),
(915,1047,l),
(918,1037,l),
(1370,1037,l),
(1370,1010,l),
(918,1010,l),
(911,986,o),
(915,959,q),
(915,787,l),
(918,777,l),
(918,719,l),
(921,706,o),
(921,686,q),
(925,655,l),
(928,642,l),
(928,615,o),
(938,578,q),
(952,551,o),
(975,527,q),
(1114,443,o),
(1283,743,q),
(1293,756,o),
(1313,767,q),
(1367,713,l),
(1353,679,o),
(1320,632,q),
(1310,615,o),
(1299,605,q),
(1218,449,o),
(1036,419,q),
(948,419,o),
(874,486,q),
(857,517,o),
(847,564,q),
(837,588,o),
(834,621,qs),
(830,645,o),
(827,672,o),
(824,686,q),
(824,709,l),
(820,726,o),
(820,750,qs),
(820,787,l),
(817,807,l),
(817,915,l),
(820,922,l),
(820,1006,l),
(493,1010,l),
(486,979,o),
(489,932,q),
(489,638,l),
(486,618,o),
(486,591,qs),
(486,470,l),
(483,453,l),
(479,436,l),
(466,419,l),
(432,412,o),
(395,432,q),
(381,480,o),
(392,537,q),
(392,621,ls),
(392,635,o),
(395,655,q),
(395,1006,l),
(0,1010,l),
(0,1037,l),
(338,1037,l),
(365,1030,o),
(395,1043,q),
(395,1209,l),
(392,1229,l),
(392,1350,l),
(388,1367,o),
(388,1394,qs),
(385,1431,l),
(381,1452,l),
(378,1469,l),
(375,1485,ls),
(371,1512,o),
(354,1543,q),
(351,1553,l),
(243,1634,o),
(138,1529,q),
(105,1462,l),
(95,1442,l),
(84,1421,l),
(78,1415,l),
(47,1404,o),
(17,1418,q),
(0,1445,l),
(27,1644,o),
(233,1681,q)
);
},
{
closed = 1;
nodes = (
(506,1560,o),
(489,1350,q),
(489,1040,l),
(817,1037,l),
(820,1060,o),
(820,1091,q),
(824,1111,l),
(824,1158,ls),
(824,1175,o),
(827,1202,q),
(827,1367,l),
(824,1384,l),
(824,1418,l),
(820,1448,l),
(817,1475,l),
(807,1512,l),
(786,1550,l),
(783,1560,l),
(743,1604,o),
(678,1600,q)
);
},
{
closed = 1;
nodes = (
(1370,412,l),
(1377,389,o),
(1353,385,q),
(10,385,l),
(-3,392,o),
(0,412,q)
);
},
{
closed = 1;
nodes = (
(1370,-401,l),
(1377,-425,o),
(1353,-428,q),
(10,-428,l),
(-3,-422,o),
(0,-401,q)
);
}
);
width = 1310;
}
);
note = Ntilde;
unicode = 209;
},
{
glyphname = Odieresis;
layers = (
{
layerId = m01;
shapes = (
{
closed = 1;
nodes = (
(913,1852,l),
(919,1832,o),
(902,1825,q),
(3,1825,l),
(0,1835,o),
(0,1852,q)
);
},
{
closed = 1;
nodes = (
(397,1815,o),
(417,1791,q),
(417,1754,o),
(380,1744,q),
(322,1771,o),
(370,1815,q)
);
},
{
closed = 1;
nodes = (
(546,1812,o),
(567,1788,q),
(567,1751,o),
(529,1740,q),
(472,1768,o),
(519,1812,q)
);
},
{
closed = 1;
nodes = (
(638,1713,o),
(757,1520,q),
(801,1557,o),
(845,1625,q),
(872,1629,o),
(899,1608,q),
(909,1591,o),
(909,1571,q),
(892,1540,o),
(858,1496,qs),
(845,1479,l),
(828,1459,l),
(807,1442,l),
(801,1435,l),
(852,1245,ls),
(862,1211,o),
(869,1160,q),
(872,1157,o),
(875,1137,q),
(875,1123,l),
(879,1093,o),
(882,1072,q),
(882,1059,o),
(885,1038,q),
(899,1038,o),
(913,1028,q),
(916,1008,o),
(889,1004,q),
(889,919,l),
(885,892,l),
(882,835,l),
(879,818,l),
(848,441,o),
(441,414,q),
(397,414,l),
(24,543,o),
(10,967,qs),
(10,987,o),
(0,1008,q),
(0,1025,o),
(7,1048,q),
(10,1323,o),
(180,1584,q),
(210,1625,o),
(237,1649,qs),
(251,1662,l),
(258,1666,l),
(278,1683,l),
(285,1690,l),
(346,1734,o),
(394,1700,q),
(414,1720,o),
(448,1734,q)
);
},
{
closed = 1;
nodes = (
(400,1571,o),
(472,1483,q),
(573,1408,o),
(679,1479,q),
(600,1615,o),
(475,1646,q)
);
},
{
closed = 1;
nodes = (
(312,1601,l),
(105,1377,o),
(102,1038,q),
(787,1035,l),
(790,1072,o),
(784,1093,q),
(780,1120,l),
(780,1157,o),
(763,1211,q),
(763,1221,l),
(753,1245,l),
(753,1266,o),
(743,1289,q),
(740,1313,l),
(733,1330,l),
(729,1347,l),
(719,1384,l),
(712,1391,l),
(546,1310,o),
(390,1442,q),
(332,1527,o),
(366,1632,q)
);
},
{
closed = 1;
nodes = (
(92,811,o),
(227,641,q),
(312,502,o),
(485,512,q),
(835,560,o),
(787,1008,q),
(105,1008,l)
);
},
{
closed = 1;
nodes = (
(913,407,l),
(919,387,o),
(902,380,q),
(3,380,l),
(0,390,o),
(0,407,q)
);
},
{
closed = 1;
nodes = (
(913,-410,l),
(919,-431,o),
(902,-438,q),
(3,-438,l),
(0,-427,o),
(0,-410,q)
);
}
);
width = 860;
}
);
note = Odieresis;
unicode = 214;
},
{
glyphname = Udieresis;
layers = (
{
layerId = m01;
shapes = (
{
closed = 1;
nodes = (
(1269,1852,l),
(1276,1832,o),
(1259,1825,q),
(10,1825,l),
(-3,1832,o),
(0,1852,q)
);
},
{
closed = 1;
nodes = (
(577,1808,o),
(597,1785,q),
(597,1747,o),
(560,1737,q),
(502,1764,o),
(550,1808,q)
);
},
{
closed = 1;
nodes = (
(726,1805,o),
(746,1781,q),
(746,1744,o),
(709,1734,q),
(651,1761,o),
(699,1805,q)
);
},
{
closed = 1;
nodes = (
(319,1717,o),
(373,1686,q),
(407,1652,o),
(427,1598,q),
(431,1591,l),
(434,1554,o),
(434,1530,q),
(438,1506,l),
(441,1483,l),
(434,1255,l),
(431,1252,o),
(431,1242,q),
(427,1204,o),
(427,1181,q),
(421,1147,o),
(421,1126,q),
(417,1096,l),
(411,1079,o),
(411,1059,q),
(407,1042,o),
(411,1035,q),
(753,1035,l),
(760,1059,o),
(757,1086,q),
(757,1157,ls),
(757,1174,o),
(760,1201,q),
(760,1272,l),
(763,1286,l),
(763,1357,l),
(767,1377,l),
(767,1428,ls),
(767,1449,o),
(770,1486,qs),
(770,1513,o),
(774,1554,q),
(774,1578,l),
(777,1591,o),
(777,1612,qs),
(777,1669,l),
(780,1696,l),
(794,1713,l),
(841,1727,o),
(872,1679,q),
(875,1652,o),
(869,1615,q),
(869,1530,ls),
(869,1517,o),
(865,1496,q),
(865,1384,l),
(862,1333,l),
(865,1310,o),
(858,1276,q),
(858,1164,l),
(855,1140,l),
(855,1059,l),
(852,1038,l),
(1269,1035,l),
(1269,1008,l),
(855,1008,l),
(848,635,l),
(852,618,l),
(855,573,l),
(858,560,l),
(869,529,l),
(957,478,o),
(1035,567,q),
(1113,645,l),
(1137,679,l),
(1164,709,o),
(1174,730,q),
(1191,753,l),
(1198,760,o),
(1211,767,q),
(1242,743,o),
(1269,702,q),
(1174,523,o),
(994,424,q),
(926,407,o),
(845,424,q),
(818,438,o),
(787,472,q),
(767,506,o),
(763,556,q),
(753,580,l),
(621,370,o),
(394,431,q),
(363,445,o),
(336,475,q),
(237,658,o),
(302,886,q),
(305,909,o),
(305,940,q),
(309,947,l),
(309,970,l),
(312,984,l),
(312,1008,l),
(0,1008,l),
(0,1035,l),
(316,1035,l),
(322,1059,o),
(322,1096,q),
(326,1120,l),
(329,1133,l),
(329,1154,l),
(332,1177,ls),
(339,1215,o),
(339,1242,q),
(343,1252,l),
(343,1299,l),
(349,1357,l),
(346,1527,l),
(336,1581,l),
(326,1605,o),
(309,1622,q),
(288,1629,o),
(261,1622,q),
(129,1598,o),
(81,1452,q),
(64,1432,l),
(-7,1435,o),
(10,1503,q),
(68,1683,o),
(268,1717,q)
);
},
{
closed = 1;
nodes = (
(400,984,o),
(400,947,q),
(397,923,ls),
(394,892,o),
(390,872,q),
(390,841,o),
(383,814,q),
(383,794,l),
(380,784,l),
(380,757,l),
(377,743,l),
(373,685,l),
(377,648,l),
(380,641,l),
(380,621,l),
(404,550,l),
(424,519,o),
(455,502,q),
(628,489,o),
(743,726,q),
(750,780,l),
(750,892,l),
(753,903,l),
(753,1004,l),
(723,1011,o),
(675,1008,q),
(407,1008,l)
);
},
{
closed = 1;
nodes = (
(1269,407,l),
(1276,387,o),
(1259,380,q),
(10,380,l),
(-3,387,o),
(0,407,q)
);
},
{
closed = 1;
nodes = (
(1269,-410,l),
(1276,-431,o),
(1259,-438,q),
(10,-438,l),
(-3,-431,o),
(0,-410,q)
);
}
);
width = 1200;
}
);
note = Udieresis;
unicode = 220;
},
{
glyphname = aacute;
layers = (
{
layerId = m01;
shapes = (
{
closed = 1;
nodes = (
(1011,1852,l),
(1018,1832,o),
(1001,1825,q),
(7,1825,l),
(0,1835,o),
(0,1852,q)
);
},
{
closed = 1;
nodes = (
(560,1259,o),
(546,1194,q),
(516,1177,l),
(502,1174,o),
(485,1164,q),
(438,1143,l),
(427,1137,l),
(332,1093,l),
(292,1076,l),
(292,1099,o),
(295,1137,q),
(349,1164,l),
(370,1174,l),
(502,1238,l),
(522,1245,o),
(546,1262,q)
);
},
{
closed = 1;
nodes = (
(1011,1035,l),
(1018,1014,o),
(1001,1008,q),
(7,1008,l),
(0,1018,o),
(0,1035,q)
);
},
{
closed = 1;
nodes = (
(411,1008,o),
(495,943,q),
(509,1011,o),
(573,970,q),
(573,909,l),
(570,886,l),
(570,763,l),
(567,750,l),
(567,655,l),
(563,648,l),
(563,577,l),
(567,546,o),
(590,516,q),
(631,499,o),
(682,506,q),
(712,519,l),
(733,533,l),
(740,540,l),
(757,550,l),
(807,604,l),
(824,624,l),
(852,651,l),
(885,699,ls),
(892,709,o),
(909,726,qs),
(923,743,l),
(943,767,l),
(977,750,o),
(1011,709,q),
(997,675,o),
(960,638,qs),
(943,621,o),
(926,594,q),
(892,560,l),
(774,387,o),
(560,424,q),
(529,438,o),
(505,461,qs),
(499,468,l),
(482,509,l),
(360,363,o),
(187,441,qs),
(153,458,o),
(122,499,q),
(115,502,l),
(41,638,o),
(85,801,q),
(136,960,o),
(316,1001,q)
);
},
{
closed = 1;
nodes = (
(176,879,o),
(156,713,qs),
(129,523,o),
(305,502,q),
(472,546,o),
(478,733,q),
(509,916,o),
(322,916,q)
);
},
{
closed = 1;
nodes = (
(1011,407,l),
(1018,387,o),
(1001,380,q),
(7,380,l),
(0,390,o),
(0,407,q)
);
},
{
closed = 1;
nodes = (
(1011,-410,l),
(1018,-431,o),
(1001,-438,q),
(7,-438,l),
(0,-427,o),
(0,-410,q)
);
}
);
width = 890;
}
);
note = aacute;
unicode = 225;
},
{
glyphname = agrave;
layers = (
{
layerId = m01;
shapes = (
{
closed = 1;
nodes = (
(947,1852,l),
(953,1829,o),
(933,1825,q),
(3,1825,l),
(0,1835,o),
(0,1852,q)
);
},
{
closed = 1;
nodes = (
(265,1272,o),
(329,1238,qs),
(339,1232,l),
(360,1225,o),
(390,1208,q),
(414,1198,l),
(424,1191,l),
(455,1177,l),
(475,1167,l),
(478,1130,o),
(478,1106,q),
(455,1113,o),
(417,1133,q),
(400,1140,l),
(390,1147,l),
(343,1167,l),
(339,1171,o),
(329,1174,q),
(312,1184,o),
(285,1194,q),
(224,1225,l),
(214,1252,o),
(221,1286,q)
);
},
{
closed = 1;
nodes = (
(933,1035,l),
(950,1031,o),
(947,1008,q),
(14,1008,l),
(-3,1011,o),
(0,1035,q)
);
},
{
closed = 1;
nodes = (
(346,1008,o),
(431,943,q),
(444,1011,o),
(509,970,q),
(509,909,l),
(505,886,l),
(505,763,l),
(502,750,l),
(502,655,l),
(499,648,l),
(499,577,l),
(502,546,o),
(526,516,q),
(567,499,o),
(617,506,q),
(648,519,l),
(668,533,l),
(675,540,l),
(692,550,l),
(743,604,l),
(760,624,l),
(787,651,l),
(821,699,ls),
(828,709,o),
(845,726,q),
(858,743,l),
(879,767,l),
(913,750,o),
(947,709,q),
(933,675,o),
(896,638,qs),
(879,621,o),
(862,594,q),
(828,560,l),
(709,387,o),
(495,424,q),
(465,438,o),
(441,461,qs),
(434,468,l),
(417,509,l),
(295,363,o),
(122,441,qs),
(88,458,o),
(58,499,q),
(51,502,l),
(-24,638,o),
(20,801,q),
(71,960,o),
(251,1001,q)
);
},
{
closed = 1;
nodes = (
(112,879,o),
(92,713,qs),
(64,523,o),
(241,502,q),
(407,546,o),
(414,733,q),
(444,916,o),
(258,916,q)
);
},
{
closed = 1;
nodes = (
(947,407,l),
(953,383,o),
(933,380,q),
(3,380,l),
(0,390,o),
(0,407,q)
);
},
{
closed = 1;
nodes = (
(947,-410,l),
(953,-434,o),
(933,-438,q),
(3,-438,l),
(0,-427,o),
(0,-410,q)
);
}
);
width = 890;
}
);
note = agrave;
unicode = 224;
},
{
glyphname = acircumflex;
layers = (
{
layerId = m01;
shapes = (
{
closed = 1;
nodes = (
(947,1852,l),
(953,1829,o),
(933,1825,q),
(3,1825,l),
(0,1835,o),
(0,1852,q)
);
},
{
closed = 1;
nodes = (
(366,1232,o),
(421,1198,q),
(455,1181,l),
(495,1164,l),
(495,1103,l),
(472,1109,o),
(438,1126,qs),
(377,1157,l),
(363,1160,l),
(326,1181,l),
(316,1171,o),
(295,1164,q),
(224,1130,l),
(204,1120,l),
(183,1109,l),
(156,1099,l),
(156,1160,l),
(173,1171,o),
(224,1194,qs),
(244,1204,l),
(254,1208,l),
(278,1221,l),
(288,1225,l),
(292,1228,o),
(302,1232,q),
(319,1242,l)
);
},
{
closed = 1;
nodes = (
(933,1035,l),
(950,1031,o),
(947,1008,q),
(14,1008,l),
(-3,1011,o),
(0,1035,q)
);
},
{
closed = 1;
nodes = (
(343,1008,o),
(427,943,q),
(441,1011,o),
(505,970,q),
(505,909,l),
(502,886,l),
(502,763,l),
(499,750,l),
(499,655,l),
(495,648,l),
(495,577,l),
(499,546,o),
(522,516,q),
(563,499,o),
(614,506,q),
(645,519,l),
(665,533,l),
(672,540,l),
(689,550,l),
(740,604,l),
(757,624,l),
(784,651,l),
(818,699,ls),
(824,709,o),
(841,726,qs),
(855,743,l),
(875,767,l),
(909,750,o),
(943,709,q),
(930,675,o),
(892,638,qs),
(875,621,o),
(858,594,q),
(824,560,l),
(706,387,o),
(492,424,q),
(461,438,o),
(438,461,qs),
(431,468,l),
(414,509,l),
(292,363,o),
(119,441,qs),
(85,458,o),
(54,499,q),
(47,502,l),
(-27,638,o),
(17,801,q),
(68,960,o),
(248,1001,q)
);
},
{
closed = 1;
nodes = (
(109,879,o),
(88,713,qs),
(61,523,o),
(237,502,q),
(404,546,o),
(411,733,q),
(441,916,o),
(254,916,q)
);
},
{
closed = 1;
nodes = (
(947,407,l),
(953,383,o),
(933,380,q),
(3,380,l),
(0,390,o),
(0,407,q)
);
},
{
closed = 1;
nodes = (
(947,-410,l),
(953,-434,o),
(933,-438,q),
(3,-438,l),
(0,-427,o),
(0,-410,q)
);
}
);
width = 890;
}
);
note = acircumflex;
unicode = 226;
},
{
glyphname = adieresis;
layers = (
{
layerId = m01;
shapes = (
{
closed = 1;
nodes = (
(947,1852,l),
(953,1829,o),
(933,1825,q),
(3,1825,l),
(0,1835,o),
(0,1852,q)
);
},
{
closed = 1;
nodes = (
(275,1171,o),
(295,1147,q),
(295,1109,o),
(258,1099,q),
(200,1126,o),
(248,1171,q)
);
},
{
closed = 1;
nodes = (
(475,1154,o),
(421,1096,q),
(343,1109,o),
(397,1167,q)
);
},
{
closed = 1;
nodes = (
(933,1035,l),
(950,1031,o),
(947,1008,q),
(14,1008,l),
(-3,1011,o),
(0,1035,q)
);
},
{
closed = 1;
nodes = (
(346,1008,o),
(431,943,q),
(444,1011,o),
(509,970,q),
(509,909,l),
(505,886,l),
(505,763,l),
(502,750,l),
(502,655,l),
(499,648,l),
(499,577,l),
(502,546,o),
(526,516,q),
(567,499,o),
(617,506,q),
(648,519,l),
(668,533,l),
(675,540,l),
(692,550,l),
(743,604,l),
(760,624,l),
(787,651,l),
(821,699,ls),
(828,709,o),
(845,726,q),
(858,743,l),
(879,767,l),
(913,750,o),
(947,709,q),
(933,675,o),
(896,638,qs),
(879,621,o),
(862,594,q),
(828,560,l),
(709,387,o),
(495,424,q),
(465,438,o),
(441,461,qs),
(434,468,l),
(417,509,l),
(295,363,o),
(122,441,qs),
(88,458,o),
(58,499,q),
(51,502,l),
(-24,638,o),
(20,801,q),
(71,960,o),
(251,1001,q)
);
},
{
closed = 1;
nodes = (
(112,879,o),
(92,713,qs),
(64,523,o),
(241,502,q),
(407,546,o),
(414,733,q),
(444,916,o),
(258,916,q)
);
},
{
closed = 1;
nodes = (
(947,407,l),
(953,383,o),
(933,380,q),
(3,380,l),
(0,390,o),
(0,407,q)
);
},
{
closed = 1;
nodes = (
(947,-410,l),
(953,-434,o),
(933,-438,q),
(3,-438,l),
(0,-427,o),
(0,-410,q)
);
}
);
width = 890;
}
);
note = adieresis;
unicode = 228;
},
{
glyphname = atilde;
layers = (
{
layerId = m01;
shapes = (
{
closed = 1;
nodes = (
(947,1852,l),
(953,1829,o),
(933,1825,q),
(3,1825,l),
(0,1835,o),
(0,1852,q)
);
},
{
closed = 1;
nodes = (
(248,1225,o),
(285,1218,q),
(309,1204,l),
(319,1201,o),
(336,1191,q),
(346,1188,l),
(434,1116,o),
(533,1198,q),
(522,1120,o),
(438,1093,qs),
(411,1086,o),
(380,1093,q),
(237,1164,l),
(217,1164,l),
(190,1157,o),
(153,1137,q),
(126,1126,l),
(142,1201,o),
(224,1221,q)
);
},
{
closed = 1;
nodes = (
(933,1035,l),
(950,1031,o),
(947,1008,q),
(14,1008,l),
(-3,1011,o),
(0,1035,q)
);
},
{
closed = 1;
nodes = (
(346,1008,o),
(431,943,q),
(444,1011,o),
(509,970,q),
(509,909,l),
(505,886,l),
(505,763,l),
(502,750,l),
(502,655,l),
(499,648,l),
(499,577,l),
(502,546,o),
(526,516,q),
(567,499,o),
(617,506,q),
(648,519,l),
(668,533,l),
(675,540,l),
(692,550,l),
(743,604,l),
(760,624,l),
(787,651,l),
(821,699,ls),
(828,709,o),
(845,726,q),
(858,743,l),
(879,767,l),
(913,750,o),
(947,709,q),
(933,675,o),
(896,638,qs),
(879,621,o),
(862,594,q),
(828,560,l),
(709,387,o),
(495,424,q),
(465,438,o),
(441,461,qs),
(434,468,l),
(417,509,l),
(295,363,o),
(122,441,qs),
(88,458,o),
(58,499,q),
(51,502,l),
(-24,638,o),
(20,801,q),
(71,960,o),
(251,1001,q)
);
},
{
closed = 1;
nodes = (
(112,879,o),
(92,713,qs),
(64,523,o),
(241,502,q),
(407,546,o),
(414,733,q),
(444,916,o),
(258,916,q)
);
},
{
closed = 1;
nodes = (
(947,407,l),
(953,383,o),
(933,380,q),
(3,380,l),
(0,390,o),
(0,407,q)
);
},
{
closed = 1;
nodes = (
(947,-410,l),
(953,-434,o),
(933,-438,q),
(3,-438,l),
(0,-427,o),
(0,-410,q)
);
}
);
width = 880;
}
);
note = atilde;
unicode = 227;
},
{
glyphname = aring;
layers = (
{
layerId = m01;
shapes = (
{
closed = 1;
nodes = (
(1011,1852,l),
(1018,1832,o),
(1001,1825,q),
(7,1825,l),
(0,1835,o),
(0,1852,q)
);
},
{
closed = 1;
nodes = (
(434,1245,o),
(478,1157,q),
(472,1052,o),
(360,1048,q),
(254,1062,o),
(261,1171,q),
(292,1218,o),
(346,1235,q)
);
},
{
closed = 1;
nodes = (
(326,1171,o),
(322,1133,q),
(400,1062,o),
(404,1160,q),
(387,1177,o),
(356,1181,q)
);
},
{
closed = 1;
nodes = (
(1011,1035,l),
(1018,1014,o),
(1001,1008,q),
(7,1008,l),
(0,1018,o),
(0,1035,q)
);
},
{
closed = 1;
nodes = (
(411,1008,o),
(495,943,q),
(509,1011,o),
(573,970,q),
(573,909,l),
(570,886,l),
(570,763,l),
(567,750,l),
(567,655,l),
(563,648,l),
(563,577,l),
(567,546,o),
(590,516,q),
(631,499,o),
(682,506,q),
(712,519,l),
(733,533,l),
(740,540,l),
(757,550,l),
(807,604,l),
(824,624,l),
(852,651,l),
(885,699,ls),
(892,709,o),
(909,726,qs),
(923,743,l),
(943,767,l),
(977,750,o),
(1011,709,q),
(997,675,o),
(960,638,qs),
(943,621,o),
(926,594,q),
(892,560,l),
(774,387,o),
(560,424,q),
(529,438,o),
(505,461,qs),
(499,468,l),
(482,509,l),
(360,363,o),
(187,441,qs),
(153,458,o),
(122,499,q),
(115,502,l),
(41,638,o),
(85,801,q),
(136,960,o),
(316,1001,q)
);
},
{
closed = 1;
nodes = (
(176,879,o),
(156,713,qs),
(129,523,o),
(305,502,q),
(472,546,o),
(478,733,q),
(509,916,o),
(322,916,q)
);
},
{
closed = 1;
nodes = (
(1011,407,l),
(1018,387,o),
(1001,380,q),
(7,380,l),
(0,390,o),
(0,407,q)
);
},
{
closed = 1;
nodes = (
(1011,-410,l),
(1018,-431,o),
(1001,-438,q),
(7,-438,l),
(0,-427,o),
(0,-410,q)
);
}
);
width = 950;
}
);
note = aring;
unicode = 229;
},
{
glyphname = ccedilla;
layers = (
{
layerId = m01;
shapes = (
{
closed = 1;
nodes = (
(679,1852,l),
(675,1825,l),
(0,1825,l),
(0,1852,l)
);
},
{
closed = 1;
nodes = (
(679,1035,l),
(675,1008,l),
(0,1008,l),
(0,1035,l)
);
},
{
closed = 1;
nodes = (
(377,1021,o),
(431,886,q),
(465,757,o),
(322,716,q),
(295,726,o),
(275,753,q),
(275,767,o),
(282,784,q),
(390,831,o),
(316,903,q),
(200,964,o),
(132,858,q),
(54,672,o),
(149,523,q),
(166,512,o),
(190,506,qs),
(221,499,o),
(261,499,q),
(461,553,o),
(617,763,q),
(641,746,o),
(672,713,qs),
(679,706,l),
(543,499,o),
(288,417,q),
(285,411,l),
(679,407,l),
(685,380,o),
(658,380,qs),
(278,380,l),
(258,373,o),
(241,353,q),
(349,339,o),
(332,248,q),
(299,153,o),
(190,139,q),
(197,160,l),
(265,210,o),
(244,288,q),
(227,316,o),
(197,343,qs),
(183,356,l),
(210,380,l),
(0,380,l),
(0,407,l),
(207,407,l),
(224,411,l),
(54,417,o),
(20,597,q),
(-31,784,o),
(95,953,q),
(142,987,o),
(207,998,q),
(214,1001,l)
);
},
{
closed = 1;
nodes = (
(679,-410,l),
(675,-438,l),
(0,-438,l),
(0,-410,l)
);
}
);
width = 630;
}
);
note = ccedilla;
unicode = 231;
},
{
glyphname = eacute;
layers = (
{
layerId = m01;
shapes = (
{
closed = 1;
nodes = (
(624,1852,l),
(624,1825,l),
(0,1825,l),
(0,1852,l)
);
},
{
closed = 1;
nodes = (
(474,1331,o),
(461,1266,q),
(430,1249,l),
(417,1246,o),
(400,1236,q),
(376,1225,l),
(373,1222,o),
(352,1215,q),
(342,1209,l),
(247,1164,l),
(207,1148,l),
(207,1171,o),
(210,1209,q),
(264,1236,l),
(285,1246,l),
(356,1280,l),
(380,1290,l),
(417,1310,l),
(437,1317,o),
(461,1334,q)
);
},
{
closed = 1;
nodes = (
(352,1093,o),
(427,1036,q),
(624,1036,l),
(624,1009,l),
(444,1009,l),
(447,988,l),
(451,965,l),
(454,944,l),
(397,734,o),
(163,704,q),
(156,605,o),
(217,510,q),
(407,453,o),
(559,765,q),
(593,748,o),
(624,710,q),
(617,693,o),
(603,676,q),
(566,615,l),
(556,602,l),
(529,571,l),
(444,422,o),
(261,415,q),
(75,422,o),
(81,700,q),
(58,714,o),
(34,741,qs),
(3,771,l),
(0,778,l),
(27,778,o),
(68,785,q),
(78,785,l),
(85,792,l),
(88,904,o),
(159,1005,q),
(136,1012,o),
(108,1009,q),
(0,1009,l),
(0,1036,l),
(180,1036,l),
(214,1070,o),
(268,1087,q)
);
},
{
closed = 1;
nodes = (
(183,944,o),
(173,815,qs),
(166,751,o),
(308,846,q),
(346,883,o),
(369,944,q),
(363,1019,o),
(278,1009,q)
);
},
{
closed = 1;
nodes = (
(624,409,l),
(624,382,l),
(0,382,l),
(0,409,l)
);
},
{
closed = 1;
nodes = (
(617,-408,l),
(624,-418,o),
(624,-435,q),
(7,-435,l),
(0,-425,o),
(0,-408,q)
);
}
);
width = 570;
}
);
note = eacute;
unicode = 233;
},
{
glyphname = egrave;
layers = (
{
layerId = m01;
shapes = (
{
closed = 1;
nodes = (
(624,1852,l),
(624,1825,l),
(0,1825,l),
(0,1852,l)
);
},
{
closed = 1;
nodes = (
(261,1293,o),
(326,1259,q),
(336,1252,l),
(356,1245,o),
(387,1228,q),
(411,1218,l),
(421,1211,l),
(451,1198,l),
(472,1188,l),
(475,1150,o),
(475,1126,q),
(451,1133,o),
(414,1154,q),
(397,1160,l),
(387,1167,l),
(326,1194,l),
(309,1204,o),
(282,1215,q),
(221,1245,l),
(210,1272,o),
(217,1306,q)
);
},
{
closed = 1;
nodes = (
(353,1093,o),
(427,1035,q),
(624,1035,l),
(624,1008,l),
(444,1008,l),
(448,987,l),
(451,964,l),
(455,943,l),
(397,733,o),
(163,702,q),
(156,604,o),
(217,509,q),
(407,451,o),
(560,763,q),
(594,746,o),
(624,709,q),
(617,692,o),
(604,675,q),
(567,614,l),
(556,601,l),
(529,570,l),
(444,421,o),
(261,414,q),
(75,421,o),
(81,699,q),
(58,713,o),
(34,740,qs),
(3,770,l),
(0,777,l),
(27,777,o),
(68,784,q),
(78,784,l),
(85,791,l),
(88,903,o),
(159,1004,q),
(136,1011,o),
(109,1008,q),
(0,1008,l),
(0,1035,l),
(180,1035,l),
(214,1069,o),
(268,1086,q)
);
},
{
closed = 1;
nodes = (
(183,943,o),
(173,814,qs),
(166,750,o),
(309,845,q),
(346,882,o),
(370,943,q),
(363,1018,o),
(278,1008,q)
);
},
{
closed = 1;
nodes = (
(624,407,l),
(624,380,l),
(0,380,l),
(0,407,l)
);
},
{
closed = 1;
nodes = (
(617,-410,l),
(624,-421,o),
(624,-438,q),
(7,-438,l),
(0,-427,o),
(0,-410,q)
);
}
);
width = 560;
}
);
note = egrave;
unicode = 232;
},
{
glyphname = ecircumflex;
layers = (
{
layerId = m01;
shapes = (
{
closed = 1;
nodes = (
(624,1852,l),
(624,1825,l),
(0,1825,l),
(0,1852,l)
);
},
{
closed = 1;
nodes = (
(373,1279,o),
(427,1245,q),
(461,1228,l),
(502,1211,l),
(502,1150,l),
(478,1157,o),
(444,1174,qs),
(383,1204,l),
(370,1208,l),
(332,1228,l),
(322,1218,o),
(302,1211,q),
(231,1177,l),
(210,1167,l),
(190,1157,l),
(163,1147,l),
(163,1208,l),
(180,1218,o),
(231,1242,qs),
(251,1252,l),
(261,1255,l),
(285,1269,l),
(295,1272,l),
(299,1276,o),
(309,1279,q),
(326,1289,l)
);
},
{
closed = 1;
nodes = (
(353,1093,o),
(427,1035,q),
(624,1035,l),
(624,1008,l),
(444,1008,l),
(448,987,l),
(451,964,l),
(455,943,l),
(397,733,o),
(163,702,q),
(156,604,o),
(217,509,q),
(407,451,o),
(560,763,q),
(594,746,o),
(624,709,q),
(617,692,o),
(604,675,q),
(567,614,l),
(556,601,l),
(529,570,l),
(444,421,o),
(261,414,q),
(75,421,o),
(81,699,q),
(58,713,o),
(34,740,qs),
(3,770,l),
(0,777,l),
(27,777,o),
(68,784,q),
(78,784,l),
(85,791,l),
(88,903,o),
(159,1004,q),
(136,1011,o),
(109,1008,q),
(0,1008,l),
(0,1035,l),
(180,1035,l),
(214,1069,o),
(268,1086,q)
);
},
{
closed = 1;
nodes = (
(183,943,o),
(173,814,qs),
(166,750,o),
(309,845,q),
(346,882,o),
(370,943,q),
(363,1018,o),
(278,1008,q)
);
},
{
closed = 1;
nodes = (
(624,407,l),
(624,380,l),
(0,380,l),
(0,407,l)
);
},
{
closed = 1;
nodes = (
(617,-410,l),
(624,-421,o),
(624,-438,q),
(7,-438,l),
(0,-427,o),
(0,-410,q)
);
}
);
width = 570;
}
);
note = ecircumflex;
unicode = 234;
},
{
glyphname = edieresis;
layers = (
{
layerId = m01;
shapes = (
{
closed = 1;
nodes = (
(614,1852,l),
(621,1842,o),
(621,1825,q),
(7,1825,l),
(0,1835,o),
(0,1852,q)
);
},
{
closed = 1;
nodes = (
(261,1232,o),
(282,1208,q),
(282,1171,o),
(244,1160,q),
(187,1188,o),
(234,1232,q)
);
},
{
closed = 1;
nodes = (
(411,1228,o),
(431,1204,q),
(431,1167,o),
(394,1157,q),
(336,1184,o),
(383,1228,q)
);
},
{
closed = 1;
nodes = (
(349,1093,o),
(424,1035,q),
(621,1035,l),
(621,1008,l),
(441,1008,l),
(444,987,l),
(448,964,l),
(451,943,l),
(394,733,o),
(159,702,q),
(153,604,o),
(214,509,q),
(404,451,o),
(556,763,q),
(590,746,o),
(621,709,q),
(614,692,o),
(600,675,q),
(563,614,l),
(553,601,l),
(526,570,l),
(441,421,o),
(258,414,q),
(71,421,o),
(78,699,q),
(34,726,o),
(0,777,q),
(37,774,o),
(81,791,q),
(85,903,o),
(156,1004,q),
(126,1011,o),
(78,1008,q),
(0,1008,l),
(0,1035,l),
(176,1035,l),
(210,1069,o),
(265,1086,q)
);
},
{
closed = 1;
nodes = (
(180,943,o),
(170,814,qs),
(163,750,o),
(305,845,q),
(343,882,o),
(366,943,q),
(360,1018,o),
(275,1008,q)
);
},
{
closed = 1;
nodes = (
(621,407,l),
(617,380,l),
(0,380,l),
(0,407,l)
);
},
{
closed = 1;
nodes = (
(614,-410,l),
(621,-421,o),
(621,-438,q),
(7,-438,l),
(0,-427,o),
(0,-410,q)
);
}
);
width = 570;
}
);
note = edieresis;
unicode = 235;
},
{
glyphname = iacute;
layers = (
{
layerId = m01;
shapes = (
{
closed = 1;
nodes = (
(582,1852,l),
(578,1825,l),
(0,1825,l),
(0,1852,l)
);
},
{
closed = 1;
nodes = (
(257,1166,l),
(183,1132,l),
(169,1122,o),
(149,1115,q),
(98,1092,l),
(81,1081,o),
(57,1075,q),
(57,1132,l),
(81,1146,l),
(91,1149,o),
(108,1159,q),
(118,1163,o),
(135,1173,q),
(149,1176,o),
(166,1186,q),
(243,1223,l),
(254,1230,l)
);
},
{
closed = 1;
nodes = (
(582,1037,l),
(578,1010,l),
(0,1010,l),
(0,1037,l)
);
},
{
closed = 1;
nodes = (
(149,1007,o),
(176,990,q),
(186,966,o),
(183,895,q),
(186,868,o),
(179,838,q),
(176,594,ls),
(176,564,o),
(189,523,q),
(200,510,o),
(216,500,q),
(250,500,o),
(294,517,q),
(318,534,l),
(325,537,l),
(372,584,l),
(375,591,l),
(416,635,l),
(433,655,l),
(473,709,l),
(480,716,l),
(497,743,ls),
(507,757,o),
(521,774,q),
(544,757,o),
(575,723,qs),
(582,716,l),
(582,706,l),
(572,689,o),
(551,665,qs),
(501,601,l),
(484,581,l),
(413,503,l),
(389,483,l),
(369,466,l),
(362,459,l),
(345,449,ls),
(335,442,o),
(318,439,q),
(294,429,o),
(281,422,q),
(213,419,l),
(206,422,l),
(159,422,o),
(122,463,q),
(98,527,l),
(95,740,l),
(30,672,o),
(0,767,q),
(101,845,o),
(101,983,q),
(108,994,o),
(125,1004,q)
);
},
{
closed = 1;
nodes = (
(582,412,l),
(578,385,l),
(0,385,l),
(0,412,l)
);
},
{
closed = 1;
nodes = (
(582,-403,l),
(578,-430,l),
(0,-430,l),
(0,-403,l)
);
}
);
width = 530;
}
);
note = iacute;
unicode = 237;
},
{
glyphname = igrave;
layers = (
{
layerId = m01;
shapes = (
{
closed = 1;
nodes = (
(584,1852,l),
(580,1825,l),
(0,1825,l),
(0,1852,l)
);
},
{
closed = 1;
nodes = (
(61,1228,o),
(88,1211,q),
(105,1204,l),
(126,1191,o),
(142,1188,q),
(241,1137,l),
(241,1079,l),
(217,1089,l),
(166,1113,l),
(142,1123,l),
(132,1126,l),
(129,1130,o),
(109,1140,qs),
(37,1171,l),
(37,1235,l)
);
},
{
closed = 1;
nodes = (
(584,1035,l),
(580,1008,l),
(0,1008,l),
(0,1035,l)
);
},
{
closed = 1;
nodes = (
(149,1004,o),
(176,987,q),
(187,964,o),
(183,892,q),
(187,865,o),
(180,835,q),
(176,590,ls),
(176,560,o),
(190,519,q),
(200,506,o),
(217,495,q),
(251,495,o),
(295,512,q),
(319,529,l),
(326,533,l),
(373,580,l),
(377,587,l),
(417,631,l),
(434,651,l),
(475,706,l),
(482,713,l),
(499,740,l),
(509,753,o),
(522,770,q),
(546,753,o),
(577,719,q),
(584,713,l),
(584,702,l),
(573,685,o),
(553,662,qs),
(502,597,l),
(485,577,l),
(414,499,l),
(390,478,l),
(370,461,l),
(363,455,l),
(346,445,ls),
(336,438,o),
(319,434,q),
(295,424,o),
(282,417,q),
(214,414,l),
(207,417,l),
(159,417,o),
(122,458,q),
(98,523,l),
(95,736,l),
(31,668,o),
(0,763,q),
(102,841,o),
(102,981,q),
(109,991,o),
(126,1001,q)
);
},
{
closed = 1;
nodes = (
(584,407,l),
(580,380,l),
(0,380,l),
(0,407,l)
);
},
{
closed = 1;
nodes = (
(584,-410,l),
(580,-438,l),
(0,-438,l),
(0,-410,l)
);
}
);
width = 530;
}
);
note = igrave;
unicode = 236;
},
{
glyphname = icircumflex;
layers = (
{
layerId = m01;
shapes = (
{
closed = 1;
nodes = (
(584,1852,l),
(580,1825,l),
(0,1825,l),
(0,1852,l)
);
},
{
closed = 1;
nodes = (
(200,1177,o),
(271,1133,q),
(271,1072,l),
(251,1079,o),
(221,1096,q),
(156,1126,l),
(146,1116,o),
(126,1109,q),
(54,1076,l),
(44,1072,l),
(44,1133,l),
(68,1147,l),
(78,1150,o),
(95,1160,q),
(105,1164,o),
(122,1174,q),
(132,1177,o),
(149,1188,q)
);
},
{
closed = 1;
nodes = (
(584,1035,l),
(580,1008,l),
(0,1008,l),
(0,1035,l)
);
},
{
closed = 1;
nodes = (
(149,1004,o),
(176,987,q),
(187,964,o),
(183,892,q),
(187,865,o),
(180,835,q),
(176,590,ls),
(176,560,o),
(190,519,q),
(200,506,o),
(217,495,q),
(251,495,o),
(295,512,q),
(319,529,l),
(326,533,l),
(373,580,l),
(377,587,l),
(417,631,l),
(434,651,l),
(475,706,l),
(482,713,l),
(499,740,l),
(509,753,o),
(522,770,q),
(546,753,o),
(577,719,q),
(584,713,l),
(584,702,l),
(573,685,o),
(553,662,qs),
(502,597,l),
(485,577,l),
(414,499,l),
(390,478,l),
(370,461,l),
(363,455,l),
(346,445,ls),
(336,438,o),
(319,434,q),
(295,424,o),
(282,417,q),
(214,414,l),
(207,417,l),
(159,417,o),
(122,458,q),
(98,523,l),
(95,736,l),
(31,668,o),
(0,763,q),
(102,841,o),
(102,981,q),
(109,991,o),
(126,1001,q)
);
},
{
closed = 1;
nodes = (
(584,407,l),
(580,380,l),
(0,380,l),
(0,407,l)
);
},
{
closed = 1;
nodes = (
(584,-410,l),
(580,-438,l),
(0,-438,l),
(0,-410,l)
);
}
);
width = 530;
}
);
note = icircumflex;
unicode = 238;
},
